<mxfile host="app.diagrams.net" agent="Mozilla/5.0 (Windows NT 10.0; Win64; x64) AppleWebKit/537.36 (KHTML, like Gecko) Chrome/127.0.0.0 Safari/537.36 Edg/127.0.0.0" version="25.0.1">
  <diagram name="第 1 页" id="UANgibShaDeFml_Gui4z">
    <mxGraphModel dx="2258" dy="782" grid="1" gridSize="10" guides="1" tooltips="1" connect="1" arrows="1" fold="1" page="1" pageScale="1" pageWidth="827" pageHeight="1169" math="0" shadow="0">
      <root>
        <mxCell id="0" />
        <mxCell id="1" parent="0" />
        <mxCell id="YyxFNso_PHiNrbnvG7HJ-1" value="" style="rounded=1;whiteSpace=wrap;html=1;fillColor=none;dashed=1;strokeWidth=2;strokeColor=#990000;fontFamily=宋体;" vertex="1" parent="1">
          <mxGeometry x="-39" y="973" width="857" height="1084" as="geometry" />
        </mxCell>
        <mxCell id="YyxFNso_PHiNrbnvG7HJ-2" value="" style="rounded=1;whiteSpace=wrap;html=1;fillColor=none;dashed=1;strokeColor=#000099;fontFamily=宋体;" vertex="1" parent="1">
          <mxGeometry x="291" y="990" width="475" height="336" as="geometry" />
        </mxCell>
        <mxCell id="YyxFNso_PHiNrbnvG7HJ-3" value="" style="rounded=1;whiteSpace=wrap;html=1;fillColor=none;glass=0;dashed=1;dashPattern=12 12;strokeWidth=2;strokeColor=#000099;fontFamily=Times New Roman;" vertex="1" parent="1">
          <mxGeometry x="468" y="290" width="412" height="516.04" as="geometry" />
        </mxCell>
        <mxCell id="YyxFNso_PHiNrbnvG7HJ-4" style="edgeStyle=orthogonalEdgeStyle;rounded=0;orthogonalLoop=1;jettySize=auto;html=1;exitX=0.5;exitY=1;exitDx=0;exitDy=0;fontFamily=Times New Roman;" edge="1" parent="1" source="YyxFNso_PHiNrbnvG7HJ-6" target="YyxFNso_PHiNrbnvG7HJ-9">
          <mxGeometry relative="1" as="geometry" />
        </mxCell>
        <mxCell id="YyxFNso_PHiNrbnvG7HJ-5" style="edgeStyle=orthogonalEdgeStyle;rounded=0;orthogonalLoop=1;jettySize=auto;html=1;exitX=0.5;exitY=1;exitDx=0;exitDy=0;entryX=0.5;entryY=0;entryDx=0;entryDy=0;fontFamily=Times New Roman;" edge="1" parent="1" source="YyxFNso_PHiNrbnvG7HJ-6" target="YyxFNso_PHiNrbnvG7HJ-3">
          <mxGeometry relative="1" as="geometry" />
        </mxCell>
        <mxCell id="YyxFNso_PHiNrbnvG7HJ-6" value="&lt;font style=&quot;font-size: 26px;&quot;&gt;Genbuffer select&lt;/font&gt;" style="rounded=1;whiteSpace=wrap;html=1;strokeColor=#000099;fontFamily=Times New Roman;" vertex="1" parent="1">
          <mxGeometry x="365" y="135" width="120" height="60" as="geometry" />
        </mxCell>
        <mxCell id="YyxFNso_PHiNrbnvG7HJ-7" value="&lt;font style=&quot;font-size: 26px;&quot;&gt;BalanceOper&lt;/font&gt;" style="text;html=1;align=center;verticalAlign=middle;whiteSpace=wrap;rounded=0;fontFamily=Times New Roman;" vertex="1" parent="1">
          <mxGeometry x="49" y="251" width="113.1" height="42" as="geometry" />
        </mxCell>
        <mxCell id="YyxFNso_PHiNrbnvG7HJ-8" style="edgeStyle=orthogonalEdgeStyle;rounded=0;orthogonalLoop=1;jettySize=auto;html=1;exitX=0.5;exitY=1;exitDx=0;exitDy=0;fontFamily=宋体;" edge="1" parent="1" source="YyxFNso_PHiNrbnvG7HJ-9" target="YyxFNso_PHiNrbnvG7HJ-174">
          <mxGeometry relative="1" as="geometry" />
        </mxCell>
        <mxCell id="YyxFNso_PHiNrbnvG7HJ-9" value="" style="rounded=1;whiteSpace=wrap;html=1;fillColor=none;glass=0;dashed=1;dashPattern=12 12;strokeWidth=2;strokeColor=#000099;fontFamily=Times New Roman;" vertex="1" parent="1">
          <mxGeometry x="-7.66" y="290" width="412" height="516.04" as="geometry" />
        </mxCell>
        <mxCell id="YyxFNso_PHiNrbnvG7HJ-10" value="" style="group;fontFamily=Times New Roman;" vertex="1" connectable="0" parent="1">
          <mxGeometry x="3.6799999999999997" y="300.673460144501" width="485.31" height="482.326539855499" as="geometry" />
        </mxCell>
        <mxCell id="YyxFNso_PHiNrbnvG7HJ-11" style="rounded=0;orthogonalLoop=1;jettySize=auto;html=1;exitX=1;exitY=0.5;exitDx=0;exitDy=0;entryX=-0.006;entryY=0.584;entryDx=0;entryDy=0;entryPerimeter=0;fontFamily=Times New Roman;" edge="1" parent="YyxFNso_PHiNrbnvG7HJ-10" source="YyxFNso_PHiNrbnvG7HJ-13" target="YyxFNso_PHiNrbnvG7HJ-117">
          <mxGeometry relative="1" as="geometry" />
        </mxCell>
        <mxCell id="YyxFNso_PHiNrbnvG7HJ-12" style="rounded=0;orthogonalLoop=1;jettySize=auto;html=1;exitX=1;exitY=0.5;exitDx=0;exitDy=0;entryX=0;entryY=0.5;entryDx=0;entryDy=0;fontFamily=Times New Roman;" edge="1" parent="YyxFNso_PHiNrbnvG7HJ-10" source="YyxFNso_PHiNrbnvG7HJ-13" target="YyxFNso_PHiNrbnvG7HJ-65">
          <mxGeometry relative="1" as="geometry" />
        </mxCell>
        <mxCell id="YyxFNso_PHiNrbnvG7HJ-13" value="" style="rounded=1;whiteSpace=wrap;html=1;fillColor=#f5f5f5;strokeWidth=2;fontColor=#333333;strokeColor=#666666;rotation=90;container=0;fontFamily=Times New Roman;" vertex="1" parent="YyxFNso_PHiNrbnvG7HJ-10">
          <mxGeometry x="92.80798191199489" y="13.013393622116439" width="198.5821786770247" height="172.55539143279174" as="geometry" />
        </mxCell>
        <mxCell id="YyxFNso_PHiNrbnvG7HJ-14" value="" style="rounded=0;whiteSpace=wrap;html=1;fillColor=#d5e8d4;strokeColor=#82b366;container=0;rotation=90;fontFamily=Times New Roman;" vertex="1" parent="YyxFNso_PHiNrbnvG7HJ-10">
          <mxGeometry x="251.67372485361466" y="104.7814881568284" width="22.730021682416364" height="10.609466315586669" as="geometry" />
        </mxCell>
        <mxCell id="YyxFNso_PHiNrbnvG7HJ-15" value="" style="rounded=0;whiteSpace=wrap;html=1;fillColor=#d5e8d4;strokeColor=#82b366;container=0;rotation=90;fontFamily=Times New Roman;" vertex="1" parent="YyxFNso_PHiNrbnvG7HJ-10">
          <mxGeometry x="241.74461591976342" y="104.7814881568284" width="22.730021682416364" height="10.609466315586669" as="geometry" />
        </mxCell>
        <mxCell id="YyxFNso_PHiNrbnvG7HJ-16" value="" style="rounded=0;whiteSpace=wrap;html=1;fillColor=#d5e8d4;strokeColor=#82b366;container=0;rotation=90;fontFamily=Times New Roman;" vertex="1" parent="YyxFNso_PHiNrbnvG7HJ-10">
          <mxGeometry x="231.05172937561593" y="104.7814881568284" width="22.730021682416364" height="10.609466315586669" as="geometry" />
        </mxCell>
        <mxCell id="YyxFNso_PHiNrbnvG7HJ-17" value="" style="rounded=0;whiteSpace=wrap;html=1;fillColor=#d5e8d4;strokeColor=#82b366;container=0;rotation=90;fontFamily=Times New Roman;" vertex="1" parent="YyxFNso_PHiNrbnvG7HJ-10">
          <mxGeometry x="221.1226204417647" y="104.7814881568284" width="22.730021682416364" height="10.609466315586669" as="geometry" />
        </mxCell>
        <mxCell id="YyxFNso_PHiNrbnvG7HJ-18" value="" style="rounded=0;whiteSpace=wrap;html=1;fillColor=#d5e8d4;strokeColor=#82b366;container=0;rotation=90;fontFamily=Times New Roman;" vertex="1" parent="YyxFNso_PHiNrbnvG7HJ-10">
          <mxGeometry x="205.08329062554347" y="104.7814881568284" width="22.730021682416364" height="10.609466315586669" as="geometry" />
        </mxCell>
        <mxCell id="YyxFNso_PHiNrbnvG7HJ-19" value="" style="rounded=0;whiteSpace=wrap;html=1;fillColor=#d5e8d4;strokeColor=#82b366;container=0;rotation=90;fontFamily=Times New Roman;" vertex="1" parent="YyxFNso_PHiNrbnvG7HJ-10">
          <mxGeometry x="195.1541816916922" y="104.7814881568284" width="22.730021682416364" height="10.609466315586669" as="geometry" />
        </mxCell>
        <mxCell id="YyxFNso_PHiNrbnvG7HJ-20" value="" style="rounded=0;whiteSpace=wrap;html=1;fillColor=#d5e8d4;strokeColor=#82b366;container=0;rotation=90;fontFamily=Times New Roman;" vertex="1" parent="YyxFNso_PHiNrbnvG7HJ-10">
          <mxGeometry x="184.46129514754475" y="104.7814881568284" width="22.730021682416364" height="10.609466315586669" as="geometry" />
        </mxCell>
        <mxCell id="YyxFNso_PHiNrbnvG7HJ-21" value="" style="rounded=0;whiteSpace=wrap;html=1;fillColor=#d5e8d4;strokeColor=#82b366;container=0;rotation=90;fontFamily=Times New Roman;" vertex="1" parent="YyxFNso_PHiNrbnvG7HJ-10">
          <mxGeometry x="231.05172937561593" y="136.15519569006318" width="22.730021682416364" height="10.609466315586669" as="geometry" />
        </mxCell>
        <mxCell id="YyxFNso_PHiNrbnvG7HJ-22" value="" style="rounded=0;whiteSpace=wrap;html=1;fillColor=#d5e8d4;strokeColor=#82b366;container=0;rotation=90;fontFamily=Times New Roman;" vertex="1" parent="YyxFNso_PHiNrbnvG7HJ-10">
          <mxGeometry x="221.1226204417647" y="136.15519569006318" width="22.730021682416364" height="10.609466315586669" as="geometry" />
        </mxCell>
        <mxCell id="YyxFNso_PHiNrbnvG7HJ-23" value="" style="rounded=0;whiteSpace=wrap;html=1;fillColor=#d5e8d4;strokeColor=#82b366;container=0;rotation=90;fontFamily=Times New Roman;" vertex="1" parent="YyxFNso_PHiNrbnvG7HJ-10">
          <mxGeometry x="210.4297338976172" y="136.15519569006318" width="22.730021682416364" height="10.609466315586669" as="geometry" />
        </mxCell>
        <mxCell id="YyxFNso_PHiNrbnvG7HJ-24" value="" style="rounded=0;whiteSpace=wrap;html=1;fillColor=#f8cecc;strokeColor=#b85450;container=0;rotation=90;fontFamily=Times New Roman;" vertex="1" parent="YyxFNso_PHiNrbnvG7HJ-10">
          <mxGeometry x="191.33529364021098" y="70.27040987027004" width="22.730021682416364" height="10.609466315586669" as="geometry" />
        </mxCell>
        <mxCell id="YyxFNso_PHiNrbnvG7HJ-25" value="" style="rounded=0;whiteSpace=wrap;html=1;fillColor=#f8cecc;strokeColor=#b85450;container=0;rotation=90;fontFamily=Times New Roman;" vertex="1" parent="YyxFNso_PHiNrbnvG7HJ-10">
          <mxGeometry x="161.54796683865726" y="39.681045025366075" width="22.730021682416364" height="10.609466315586669" as="geometry" />
        </mxCell>
        <mxCell id="YyxFNso_PHiNrbnvG7HJ-26" value="" style="rounded=0;whiteSpace=wrap;html=1;fillColor=#f8cecc;strokeColor=#b85450;container=0;rotation=90;fontFamily=Times New Roman;" vertex="1" parent="YyxFNso_PHiNrbnvG7HJ-10">
          <mxGeometry x="150.8550802945098" y="39.681045025366075" width="22.730021682416364" height="10.609466315586669" as="geometry" />
        </mxCell>
        <mxCell id="YyxFNso_PHiNrbnvG7HJ-27" value="" style="rounded=0;whiteSpace=wrap;html=1;fillColor=#f8cecc;strokeColor=#b85450;container=0;rotation=90;fontFamily=Times New Roman;" vertex="1" parent="YyxFNso_PHiNrbnvG7HJ-10">
          <mxGeometry x="140.92597136065856" y="39.681045025366075" width="22.730021682416364" height="10.609466315586669" as="geometry" />
        </mxCell>
        <mxCell id="YyxFNso_PHiNrbnvG7HJ-28" value="" style="rounded=0;whiteSpace=wrap;html=1;fillColor=#f8cecc;strokeColor=#b85450;container=0;rotation=90;fontFamily=Times New Roman;" vertex="1" parent="YyxFNso_PHiNrbnvG7HJ-10">
          <mxGeometry x="130.23308481651108" y="39.681045025366075" width="22.730021682416364" height="10.609466315586669" as="geometry" />
        </mxCell>
        <mxCell id="YyxFNso_PHiNrbnvG7HJ-29" value="" style="rounded=0;whiteSpace=wrap;html=1;fillColor=#f8cecc;strokeColor=#b85450;container=0;rotation=90;fontFamily=Times New Roman;" vertex="1" parent="YyxFNso_PHiNrbnvG7HJ-10">
          <mxGeometry x="143.2173041915473" y="16.935107063770772" width="22.730021682416364" height="10.609466315586669" as="geometry" />
        </mxCell>
        <mxCell id="YyxFNso_PHiNrbnvG7HJ-30" value="" style="rounded=0;whiteSpace=wrap;html=1;fillColor=#f8cecc;strokeColor=#b85450;container=0;rotation=90;fontFamily=Times New Roman;" vertex="1" parent="YyxFNso_PHiNrbnvG7HJ-10">
          <mxGeometry x="120.30397588265984" y="16.935107063770772" width="22.730021682416364" height="10.609466315586669" as="geometry" />
        </mxCell>
        <mxCell id="YyxFNso_PHiNrbnvG7HJ-31" value="" style="rounded=0;whiteSpace=wrap;html=1;fillColor=#f8cecc;strokeColor=#b85450;container=0;rotation=90;fontFamily=Times New Roman;" vertex="1" parent="YyxFNso_PHiNrbnvG7HJ-10">
          <mxGeometry x="117.24886544147483" y="63.21132567529219" width="22.730021682416364" height="10.609466315586669" as="geometry" />
        </mxCell>
        <mxCell id="YyxFNso_PHiNrbnvG7HJ-32" value="" style="rounded=0;whiteSpace=wrap;html=1;fillColor=#f8cecc;strokeColor=#b85450;container=0;rotation=90;fontFamily=Times New Roman;" vertex="1" parent="YyxFNso_PHiNrbnvG7HJ-10">
          <mxGeometry x="140.92597136065856" y="66.34869642861571" width="22.730021682416364" height="10.609466315586669" as="geometry" />
        </mxCell>
        <mxCell id="YyxFNso_PHiNrbnvG7HJ-33" value="" style="rounded=0;whiteSpace=wrap;html=1;fillColor=#f8cecc;strokeColor=#b85450;container=0;rotation=90;fontFamily=Times New Roman;" vertex="1" parent="YyxFNso_PHiNrbnvG7HJ-10">
          <mxGeometry x="158.49285639747228" y="66.34869642861571" width="22.730021682416364" height="10.609466315586669" as="geometry" />
        </mxCell>
        <mxCell id="YyxFNso_PHiNrbnvG7HJ-34" value="" style="rounded=0;whiteSpace=wrap;html=1;fillColor=#fff2cc;strokeColor=#d6b656;container=0;rotation=90;fontFamily=Times New Roman;" vertex="1" parent="YyxFNso_PHiNrbnvG7HJ-10">
          <mxGeometry x="143.2173041915473" y="104.7814881568284" width="22.730021682416364" height="10.609466315586669" as="geometry" />
        </mxCell>
        <mxCell id="YyxFNso_PHiNrbnvG7HJ-35" value="" style="rounded=0;whiteSpace=wrap;html=1;fillColor=#fff2cc;strokeColor=#d6b656;container=0;rotation=90;fontFamily=Times New Roman;" vertex="1" parent="YyxFNso_PHiNrbnvG7HJ-10">
          <mxGeometry x="131.76064003710357" y="90.66331976687269" width="22.730021682416364" height="10.609466315586669" as="geometry" />
        </mxCell>
        <mxCell id="YyxFNso_PHiNrbnvG7HJ-36" value="" style="rounded=0;whiteSpace=wrap;html=1;fillColor=#fff2cc;strokeColor=#d6b656;container=0;rotation=90;fontFamily=Times New Roman;" vertex="1" parent="YyxFNso_PHiNrbnvG7HJ-10">
          <mxGeometry x="153.91019073569478" y="128.31176880675451" width="22.730021682416364" height="10.609466315586669" as="geometry" />
        </mxCell>
        <mxCell id="YyxFNso_PHiNrbnvG7HJ-37" value="" style="rounded=0;whiteSpace=wrap;html=1;fillColor=#d5e8d4;strokeColor=#82b366;container=0;rotation=90;fontFamily=Times New Roman;" vertex="1" parent="YyxFNso_PHiNrbnvG7HJ-10">
          <mxGeometry x="200.50062496376597" y="136.15519569006318" width="22.730021682416364" height="10.609466315586669" as="geometry" />
        </mxCell>
        <mxCell id="YyxFNso_PHiNrbnvG7HJ-38" value="" style="rounded=0;whiteSpace=wrap;html=1;fillColor=#fff2cc;strokeColor=#d6b656;container=0;rotation=90;fontFamily=Times New Roman;" vertex="1" parent="YyxFNso_PHiNrbnvG7HJ-10">
          <mxGeometry x="137.87086091947356" y="128.31176880675451" width="22.730021682416364" height="10.609466315586669" as="geometry" />
        </mxCell>
        <mxCell id="YyxFNso_PHiNrbnvG7HJ-39" value="" style="rounded=0;whiteSpace=wrap;html=1;fillColor=#f8cecc;strokeColor=#b85450;container=0;rotation=90;fontFamily=Times New Roman;" vertex="1" parent="YyxFNso_PHiNrbnvG7HJ-10">
          <mxGeometry x="158.49285639747228" y="11.444708245454706" width="22.730021682416364" height="10.609466315586669" as="geometry" />
        </mxCell>
        <mxCell id="YyxFNso_PHiNrbnvG7HJ-40" value="" style="rounded=0;whiteSpace=wrap;html=1;fillColor=#f8cecc;strokeColor=#b85450;container=0;rotation=90;fontFamily=Times New Roman;" vertex="1" parent="YyxFNso_PHiNrbnvG7HJ-10">
          <mxGeometry x="109.61108933851236" y="16.935107063770772" width="22.730021682416364" height="10.609466315586669" as="geometry" />
        </mxCell>
        <mxCell id="YyxFNso_PHiNrbnvG7HJ-41" value="" style="rounded=0;whiteSpace=wrap;html=1;fillColor=#fff2cc;strokeColor=#d6b656;container=0;rotation=90;fontFamily=Times New Roman;" vertex="1" parent="YyxFNso_PHiNrbnvG7HJ-10">
          <mxGeometry x="158.49285639747228" y="104.7814881568284" width="22.730021682416364" height="10.609466315586669" as="geometry" />
        </mxCell>
        <mxCell id="YyxFNso_PHiNrbnvG7HJ-42" value="" style="rounded=0;whiteSpace=wrap;html=1;fillColor=#d5e8d4;strokeColor=#82b366;container=0;rotation=90;fontFamily=Times New Roman;" vertex="1" parent="YyxFNso_PHiNrbnvG7HJ-10">
          <mxGeometry x="174.5321862136935" y="128.31176880675451" width="22.730021682416364" height="10.609466315586669" as="geometry" />
        </mxCell>
        <mxCell id="YyxFNso_PHiNrbnvG7HJ-43" value="" style="rounded=0;whiteSpace=wrap;html=1;fillColor=#fff2cc;strokeColor=#d6b656;container=0;rotation=90;fontFamily=Times New Roman;" vertex="1" parent="YyxFNso_PHiNrbnvG7HJ-10">
          <mxGeometry x="127.94175198562232" y="128.31176880675451" width="22.730021682416364" height="10.609466315586669" as="geometry" />
        </mxCell>
        <mxCell id="YyxFNso_PHiNrbnvG7HJ-44" value="&lt;span style=&quot;color: rgba(0, 0, 0, 0); font-size: 0px; text-align: start; text-wrap: nowrap;&quot;&gt;%3CmxGraphModel%3E%3Croot%3E%3CmxCell%20id%3D%220%22%2F%3E%3CmxCell%20id%3D%221%22%20parent%3D%220%22%2F%3E%3CmxCell%20id%3D%222%22%20value%3D%22%22%20style%3D%22rounded%3D0%3BwhiteSpace%3Dwrap%3Bhtml%3D1%3BfillColor%3D%23dae8fc%3BstrokeColor%3D%236c8ebf%3B%22%20vertex%3D%221%22%20parent%3D%221%22%3E%3CmxGeometry%20x%3D%22610%22%20y%3D%22480%22%20width%3D%2290%22%20height%3D%2240%22%20as%3D%22geometry%22%2F%3E%3C%2FmxCell%3E%3C%2Froot%3E%3C%2FmxGraphModel%3E&lt;/span&gt;" style="rounded=0;whiteSpace=wrap;html=1;fillColor=#fff2cc;strokeColor=#d6b656;container=0;rotation=90;fontFamily=Times New Roman;" vertex="1" parent="YyxFNso_PHiNrbnvG7HJ-10">
          <mxGeometry x="145.50863702243606" y="154.19507752167323" width="22.730021682416364" height="10.609466315586669" as="geometry" />
        </mxCell>
        <mxCell id="YyxFNso_PHiNrbnvG7HJ-45" value="&lt;span style=&quot;color: rgba(0, 0, 0, 0); font-size: 0px; text-align: start; text-wrap: nowrap;&quot;&gt;%3CmxGraphModel%3E%3Croot%3E%3CmxCell%20id%3D%220%22%2F%3E%3CmxCell%20id%3D%221%22%20parent%3D%220%22%2F%3E%3CmxCell%20id%3D%222%22%20value%3D%22%22%20style%3D%22rounded%3D0%3BwhiteSpace%3Dwrap%3Bhtml%3D1%3BfillColor%3D%23dae8fc%3BstrokeColor%3D%236c8ebf%3B%22%20vertex%3D%221%22%20parent%3D%221%22%3E%3CmxGeometry%20x%3D%22610%22%20y%3D%22480%22%20width%3D%2290%22%20height%3D%2240%22%20as%3D%22geometry%22%2F%3E%3C%2FmxCell%3E%3C%2Froot%3E%3C%2FmxGraphModel%3E&lt;/span&gt;" style="rounded=0;whiteSpace=wrap;html=1;fillColor=#fff2cc;strokeColor=#d6b656;container=0;rotation=90;fontFamily=Times New Roman;" vertex="1" parent="YyxFNso_PHiNrbnvG7HJ-10">
          <mxGeometry x="135.57952808858482" y="154.19507752167323" width="22.730021682416364" height="10.609466315586669" as="geometry" />
        </mxCell>
        <mxCell id="YyxFNso_PHiNrbnvG7HJ-46" value="&lt;span style=&quot;color: rgba(0, 0, 0, 0); font-size: 0px; text-align: start; text-wrap: nowrap;&quot;&gt;%3CmxGraphModel%3E%3Croot%3E%3CmxCell%20id%3D%220%22%2F%3E%3CmxCell%20id%3D%221%22%20parent%3D%220%22%2F%3E%3CmxCell%20id%3D%222%22%20value%3D%22%22%20style%3D%22rounded%3D0%3BwhiteSpace%3Dwrap%3Bhtml%3D1%3BfillColor%3D%23dae8fc%3BstrokeColor%3D%236c8ebf%3B%22%20vertex%3D%221%22%20parent%3D%221%22%3E%3CmxGeometry%20x%3D%22610%22%20y%3D%22480%22%20width%3D%2290%22%20height%3D%2240%22%20as%3D%22geometry%22%2F%3E%3C%2FmxCell%3E%3C%2Froot%3E%3C%2FmxGraphModel%3E&lt;/span&gt;" style="rounded=0;whiteSpace=wrap;html=1;fillColor=#fff2cc;strokeColor=#d6b656;container=0;rotation=90;fontFamily=Times New Roman;" vertex="1" parent="YyxFNso_PHiNrbnvG7HJ-10">
          <mxGeometry x="124.88664154443734" y="154.19507752167323" width="22.730021682416364" height="10.609466315586669" as="geometry" />
        </mxCell>
        <mxCell id="YyxFNso_PHiNrbnvG7HJ-47" value="&lt;span style=&quot;color: rgba(0, 0, 0, 0); font-size: 0px; text-align: start; text-wrap: nowrap;&quot;&gt;%3CmxGraphModel%3E%3Croot%3E%3CmxCell%20id%3D%220%22%2F%3E%3CmxCell%20id%3D%221%22%20parent%3D%220%22%2F%3E%3CmxCell%20id%3D%222%22%20value%3D%22%22%20style%3D%22rounded%3D0%3BwhiteSpace%3Dwrap%3Bhtml%3D1%3BfillColor%3D%23dae8fc%3BstrokeColor%3D%236c8ebf%3B%22%20vertex%3D%221%22%20parent%3D%221%22%3E%3CmxGeometry%20x%3D%22610%22%20y%3D%22480%22%20width%3D%2290%22%20height%3D%2240%22%20as%3D%22geometry%22%2F%3E%3C%2FmxCell%3E%3C%2Froot%3E%3C%2FmxGraphModel%3E&lt;/span&gt;" style="rounded=0;whiteSpace=wrap;html=1;fillColor=#fff2cc;strokeColor=#d6b656;container=0;rotation=90;fontFamily=Times New Roman;" vertex="1" parent="YyxFNso_PHiNrbnvG7HJ-10">
          <mxGeometry x="114.9575326105861" y="154.19507752167323" width="22.730021682416364" height="10.609466315586669" as="geometry" />
        </mxCell>
        <mxCell id="YyxFNso_PHiNrbnvG7HJ-48" value="&lt;span style=&quot;color: rgba(0, 0, 0, 0); font-size: 0px; text-align: start; text-wrap: nowrap;&quot;&gt;%3CmxGraphModel%3E%3Croot%3E%3CmxCell%20id%3D%220%22%2F%3E%3CmxCell%20id%3D%221%22%20parent%3D%220%22%2F%3E%3CmxCell%20id%3D%222%22%20value%3D%22%22%20style%3D%22rounded%3D0%3BwhiteSpace%3Dwrap%3Bhtml%3D1%3BfillColor%3D%23dae8fc%3BstrokeColor%3D%236c8ebf%3B%22%20vertex%3D%221%22%20parent%3D%221%22%3E%3CmxGeometry%20x%3D%22610%22%20y%3D%22480%22%20width%3D%2290%22%20height%3D%2240%22%20as%3D%22geometry%22%2F%3E%3C%2FmxCell%3E%3C%2Froot%3E%3C%2FmxGraphModel%3E&lt;/span&gt;" style="rounded=0;whiteSpace=wrap;html=1;fillColor=#fff2cc;strokeColor=#d6b656;container=0;rotation=90;fontFamily=Times New Roman;" vertex="1" parent="YyxFNso_PHiNrbnvG7HJ-10">
          <mxGeometry x="109.61108933851236" y="128.31176880675451" width="22.730021682416364" height="10.609466315586669" as="geometry" />
        </mxCell>
        <mxCell id="YyxFNso_PHiNrbnvG7HJ-49" value="&lt;span style=&quot;color: rgba(0, 0, 0, 0); font-size: 0px; text-align: start; text-wrap: nowrap;&quot;&gt;%3CmxGraphModel%3E%3Croot%3E%3CmxCell%20id%3D%220%22%2F%3E%3CmxCell%20id%3D%221%22%20parent%3D%220%22%2F%3E%3CmxCell%20id%3D%222%22%20value%3D%22%22%20style%3D%22rounded%3D0%3BwhiteSpace%3Dwrap%3Bhtml%3D1%3BfillColor%3D%23dae8fc%3BstrokeColor%3D%236c8ebf%3B%22%20vertex%3D%221%22%20parent%3D%221%22%3E%3CmxGeometry%20x%3D%22610%22%20y%3D%22480%22%20width%3D%2290%22%20height%3D%2240%22%20as%3D%22geometry%22%2F%3E%3C%2FmxCell%3E%3C%2Froot%3E%3C%2FmxGraphModel%3E&lt;/span&gt;" style="rounded=0;whiteSpace=wrap;html=1;fillColor=#fff2cc;strokeColor=#d6b656;container=0;rotation=90;fontFamily=Times New Roman;" vertex="1" parent="YyxFNso_PHiNrbnvG7HJ-10">
          <mxGeometry x="135.57952808858482" y="177.72535817159945" width="22.730021682416364" height="10.609466315586669" as="geometry" />
        </mxCell>
        <mxCell id="YyxFNso_PHiNrbnvG7HJ-50" value="" style="rounded=0;whiteSpace=wrap;html=1;fillColor=#dae8fc;strokeColor=#6c8ebf;container=0;rotation=90;fontFamily=Times New Roman;" vertex="1" parent="YyxFNso_PHiNrbnvG7HJ-10">
          <mxGeometry x="241.74461591976342" y="11.444708245454706" width="22.730021682416364" height="10.609466315586669" as="geometry" />
        </mxCell>
        <mxCell id="YyxFNso_PHiNrbnvG7HJ-51" value="" style="rounded=0;whiteSpace=wrap;html=1;fillColor=#dae8fc;strokeColor=#6c8ebf;container=0;rotation=90;fontFamily=Times New Roman;" vertex="1" parent="YyxFNso_PHiNrbnvG7HJ-10">
          <mxGeometry x="231.05172937561593" y="11.444708245454706" width="22.730021682416364" height="10.609466315586669" as="geometry" />
        </mxCell>
        <mxCell id="YyxFNso_PHiNrbnvG7HJ-52" value="" style="rounded=0;whiteSpace=wrap;html=1;fillColor=#dae8fc;strokeColor=#6c8ebf;container=0;rotation=90;fontFamily=Times New Roman;" vertex="1" parent="YyxFNso_PHiNrbnvG7HJ-10">
          <mxGeometry x="251.67372485361466" y="39.681045025366075" width="22.730021682416364" height="10.609466315586669" as="geometry" />
        </mxCell>
        <mxCell id="YyxFNso_PHiNrbnvG7HJ-53" value="" style="rounded=0;whiteSpace=wrap;html=1;fillColor=#dae8fc;strokeColor=#6c8ebf;container=0;rotation=90;fontFamily=Times New Roman;" vertex="1" parent="YyxFNso_PHiNrbnvG7HJ-10">
          <mxGeometry x="241.74461591976342" y="39.681045025366075" width="22.730021682416364" height="10.609466315586669" as="geometry" />
        </mxCell>
        <mxCell id="YyxFNso_PHiNrbnvG7HJ-54" value="" style="rounded=0;whiteSpace=wrap;html=1;fillColor=#dae8fc;strokeColor=#6c8ebf;container=0;rotation=90;fontFamily=Times New Roman;" vertex="1" parent="YyxFNso_PHiNrbnvG7HJ-10">
          <mxGeometry x="221.1226204417647" y="11.444708245454706" width="22.730021682416364" height="10.609466315586669" as="geometry" />
        </mxCell>
        <mxCell id="YyxFNso_PHiNrbnvG7HJ-55" value="" style="rounded=0;whiteSpace=wrap;html=1;fillColor=#dae8fc;strokeColor=#6c8ebf;container=0;rotation=90;fontFamily=Times New Roman;" vertex="1" parent="YyxFNso_PHiNrbnvG7HJ-10">
          <mxGeometry x="223.41395327265343" y="39.681045025366075" width="22.730021682416364" height="10.609466315586669" as="geometry" />
        </mxCell>
        <mxCell id="YyxFNso_PHiNrbnvG7HJ-56" value="" style="rounded=0;whiteSpace=wrap;html=1;fillColor=#dae8fc;strokeColor=#6c8ebf;container=0;rotation=90;fontFamily=Times New Roman;" vertex="1" parent="YyxFNso_PHiNrbnvG7HJ-10">
          <mxGeometry x="202.79195779465473" y="39.681045025366075" width="22.730021682416364" height="10.609466315586669" as="geometry" />
        </mxCell>
        <mxCell id="YyxFNso_PHiNrbnvG7HJ-57" value="" style="rounded=0;whiteSpace=wrap;html=1;fillColor=#dae8fc;strokeColor=#6c8ebf;container=0;rotation=90;fontFamily=Times New Roman;" vertex="1" parent="YyxFNso_PHiNrbnvG7HJ-10">
          <mxGeometry x="192.8628488608035" y="39.681045025366075" width="22.730021682416364" height="10.609466315586669" as="geometry" />
        </mxCell>
        <mxCell id="YyxFNso_PHiNrbnvG7HJ-58" value="" style="rounded=0;whiteSpace=wrap;html=1;fillColor=#dae8fc;strokeColor=#6c8ebf;container=0;rotation=90;fontFamily=Times New Roman;" vertex="1" parent="YyxFNso_PHiNrbnvG7HJ-10">
          <mxGeometry x="202.79195779465473" y="11.444708245454706" width="22.730021682416364" height="10.609466315586669" as="geometry" />
        </mxCell>
        <mxCell id="YyxFNso_PHiNrbnvG7HJ-59" value="" style="rounded=0;whiteSpace=wrap;html=1;fillColor=#dae8fc;strokeColor=#6c8ebf;container=0;rotation=90;fontFamily=Times New Roman;" vertex="1" parent="YyxFNso_PHiNrbnvG7HJ-10">
          <mxGeometry x="213.4848443388022" y="39.681045025366075" width="22.730021682416364" height="10.609466315586669" as="geometry" />
        </mxCell>
        <mxCell id="YyxFNso_PHiNrbnvG7HJ-60" value="" style="rounded=0;whiteSpace=wrap;html=1;fillColor=#dae8fc;strokeColor=#6c8ebf;container=0;rotation=90;fontFamily=Times New Roman;" vertex="1" parent="YyxFNso_PHiNrbnvG7HJ-10">
          <mxGeometry x="182.16996231665598" y="39.681045025366075" width="22.730021682416364" height="10.609466315586669" as="geometry" />
        </mxCell>
        <mxCell id="YyxFNso_PHiNrbnvG7HJ-61" value="" style="rounded=0;whiteSpace=wrap;html=1;fillColor=#dae8fc;strokeColor=#6c8ebf;container=0;rotation=90;fontFamily=Times New Roman;" vertex="1" parent="YyxFNso_PHiNrbnvG7HJ-10">
          <mxGeometry x="192.8628488608035" y="11.444708245454706" width="22.730021682416364" height="10.609466315586669" as="geometry" />
        </mxCell>
        <mxCell id="YyxFNso_PHiNrbnvG7HJ-62" value="" style="rounded=1;whiteSpace=wrap;html=1;fillColor=none;strokeWidth=2;glass=0;shadow=1;dashed=1;rotation=90;container=0;fontFamily=Times New Roman;" vertex="1" parent="YyxFNso_PHiNrbnvG7HJ-10">
          <mxGeometry x="185.98885036813724" y="66.34869642861571" width="32.04047075192765" height="19.02031019202363" as="geometry" />
        </mxCell>
        <mxCell id="YyxFNso_PHiNrbnvG7HJ-63" value="" style="rounded=1;whiteSpace=wrap;html=1;fillColor=none;strokeWidth=2;glass=0;shadow=1;dashed=1;rotation=90;container=0;fontFamily=Times New Roman;" vertex="1" parent="YyxFNso_PHiNrbnvG7HJ-10">
          <mxGeometry x="126.41419676502983" y="87.52594901354922" width="32.04047075192765" height="19.02031019202363" as="geometry" />
        </mxCell>
        <mxCell id="YyxFNso_PHiNrbnvG7HJ-64" value="" style="rounded=1;whiteSpace=wrap;html=1;fillColor=none;strokeWidth=2;glass=0;shadow=1;dashed=1;rotation=90;container=0;fontFamily=Times New Roman;" vertex="1" parent="YyxFNso_PHiNrbnvG7HJ-10">
          <mxGeometry x="177.58729665487854" y="35.759331583711685" width="32.04047075192765" height="19.02031019202363" as="geometry" />
        </mxCell>
        <mxCell id="YyxFNso_PHiNrbnvG7HJ-65" value="" style="rounded=1;whiteSpace=wrap;html=1;fillColor=#f5f5f5;fontColor=#333333;strokeColor=#666666;strokeWidth=2;rotation=90;container=0;fontFamily=Times New Roman;" vertex="1" parent="YyxFNso_PHiNrbnvG7HJ-10">
          <mxGeometry x="192.98885036813724" y="285.73126659109715" width="198.5821786770247" height="172.55539143279174" as="geometry" />
        </mxCell>
        <mxCell id="YyxFNso_PHiNrbnvG7HJ-66" value="" style="rounded=0;whiteSpace=wrap;html=1;fillColor=#d5e8d4;strokeColor=#82b366;container=0;rotation=90;fontFamily=Times New Roman;" vertex="1" parent="YyxFNso_PHiNrbnvG7HJ-10">
          <mxGeometry x="350.3270380891645" y="379.85238919080183" width="22.730021682416364" height="10.609466315586669" as="geometry" />
        </mxCell>
        <mxCell id="YyxFNso_PHiNrbnvG7HJ-67" value="" style="rounded=0;whiteSpace=wrap;html=1;fillColor=#d5e8d4;strokeColor=#82b366;container=0;rotation=90;fontFamily=Times New Roman;" vertex="1" parent="YyxFNso_PHiNrbnvG7HJ-10">
          <mxGeometry x="340.39792915531325" y="379.85238919080183" width="22.730021682416364" height="10.609466315586669" as="geometry" />
        </mxCell>
        <mxCell id="YyxFNso_PHiNrbnvG7HJ-68" value="" style="rounded=0;whiteSpace=wrap;html=1;fillColor=#d5e8d4;strokeColor=#82b366;container=0;rotation=90;fontFamily=Times New Roman;" vertex="1" parent="YyxFNso_PHiNrbnvG7HJ-10">
          <mxGeometry x="329.70504261116577" y="379.85238919080183" width="22.730021682416364" height="10.609466315586669" as="geometry" />
        </mxCell>
        <mxCell id="YyxFNso_PHiNrbnvG7HJ-69" value="" style="rounded=0;whiteSpace=wrap;html=1;fillColor=#d5e8d4;strokeColor=#82b366;container=0;rotation=90;fontFamily=Times New Roman;" vertex="1" parent="YyxFNso_PHiNrbnvG7HJ-10">
          <mxGeometry x="319.7759336773145" y="379.85238919080183" width="22.730021682416364" height="10.609466315586669" as="geometry" />
        </mxCell>
        <mxCell id="YyxFNso_PHiNrbnvG7HJ-70" value="" style="rounded=0;whiteSpace=wrap;html=1;fillColor=#d5e8d4;strokeColor=#82b366;container=0;rotation=90;fontFamily=Times New Roman;" vertex="1" parent="YyxFNso_PHiNrbnvG7HJ-10">
          <mxGeometry x="304.5003814713896" y="379.85238919080183" width="22.730021682416364" height="10.609466315586669" as="geometry" />
        </mxCell>
        <mxCell id="YyxFNso_PHiNrbnvG7HJ-71" value="" style="rounded=0;whiteSpace=wrap;html=1;fillColor=#d5e8d4;strokeColor=#82b366;container=0;rotation=90;fontFamily=Times New Roman;" vertex="1" parent="YyxFNso_PHiNrbnvG7HJ-10">
          <mxGeometry x="293.8074949272421" y="379.85238919080183" width="22.730021682416364" height="10.609466315586669" as="geometry" />
        </mxCell>
        <mxCell id="YyxFNso_PHiNrbnvG7HJ-72" value="" style="rounded=0;whiteSpace=wrap;html=1;fillColor=#d5e8d4;strokeColor=#82b366;container=0;rotation=90;fontFamily=Times New Roman;" vertex="1" parent="YyxFNso_PHiNrbnvG7HJ-10">
          <mxGeometry x="283.87838599339085" y="379.85238919080183" width="22.730021682416364" height="10.609466315586669" as="geometry" />
        </mxCell>
        <mxCell id="YyxFNso_PHiNrbnvG7HJ-73" value="" style="rounded=0;whiteSpace=wrap;html=1;fillColor=#d5e8d4;strokeColor=#82b366;container=0;rotation=90;fontFamily=Times New Roman;" vertex="1" parent="YyxFNso_PHiNrbnvG7HJ-10">
          <mxGeometry x="329.70504261116577" y="411.2260967240366" width="22.730021682416364" height="10.609466315586669" as="geometry" />
        </mxCell>
        <mxCell id="YyxFNso_PHiNrbnvG7HJ-74" value="" style="rounded=0;whiteSpace=wrap;html=1;fillColor=#d5e8d4;strokeColor=#82b366;container=0;rotation=90;fontFamily=Times New Roman;" vertex="1" parent="YyxFNso_PHiNrbnvG7HJ-10">
          <mxGeometry x="319.7759336773145" y="411.2260967240366" width="22.730021682416364" height="10.609466315586669" as="geometry" />
        </mxCell>
        <mxCell id="YyxFNso_PHiNrbnvG7HJ-75" value="" style="rounded=0;whiteSpace=wrap;html=1;fillColor=#d5e8d4;strokeColor=#82b366;container=0;rotation=90;fontFamily=Times New Roman;" vertex="1" parent="YyxFNso_PHiNrbnvG7HJ-10">
          <mxGeometry x="309.08304713316704" y="411.2260967240366" width="22.730021682416364" height="10.609466315586669" as="geometry" />
        </mxCell>
        <mxCell id="YyxFNso_PHiNrbnvG7HJ-76" value="" style="rounded=0;whiteSpace=wrap;html=1;fillColor=#d5e8d4;strokeColor=#82b366;container=0;rotation=90;fontFamily=Times New Roman;" vertex="1" parent="YyxFNso_PHiNrbnvG7HJ-10">
          <mxGeometry x="289.98860687576087" y="345.34131090424347" width="22.730021682416364" height="10.609466315586669" as="geometry" />
        </mxCell>
        <mxCell id="YyxFNso_PHiNrbnvG7HJ-77" value="" style="rounded=0;whiteSpace=wrap;html=1;fillColor=#f8cecc;strokeColor=#b85450;container=0;rotation=90;fontFamily=Times New Roman;" vertex="1" parent="YyxFNso_PHiNrbnvG7HJ-10">
          <mxGeometry x="260.20128007420715" y="315.5362887476703" width="22.730021682416364" height="10.609466315586669" as="geometry" />
        </mxCell>
        <mxCell id="YyxFNso_PHiNrbnvG7HJ-78" value="" style="rounded=0;whiteSpace=wrap;html=1;fillColor=#f8cecc;strokeColor=#b85450;container=0;rotation=90;fontFamily=Times New Roman;" vertex="1" parent="YyxFNso_PHiNrbnvG7HJ-10">
          <mxGeometry x="249.50839353005966" y="315.5362887476703" width="22.730021682416364" height="10.609466315586669" as="geometry" />
        </mxCell>
        <mxCell id="YyxFNso_PHiNrbnvG7HJ-79" value="" style="rounded=0;whiteSpace=wrap;html=1;fillColor=#f8cecc;strokeColor=#b85450;container=0;rotation=90;fontFamily=Times New Roman;" vertex="1" parent="YyxFNso_PHiNrbnvG7HJ-10">
          <mxGeometry x="239.57928459620842" y="315.5362887476703" width="22.730021682416364" height="10.609466315586669" as="geometry" />
        </mxCell>
        <mxCell id="YyxFNso_PHiNrbnvG7HJ-80" value="" style="rounded=0;whiteSpace=wrap;html=1;fillColor=#f8cecc;strokeColor=#b85450;container=0;rotation=90;fontFamily=Times New Roman;" vertex="1" parent="YyxFNso_PHiNrbnvG7HJ-10">
          <mxGeometry x="228.88639805206094" y="315.5362887476703" width="22.730021682416364" height="10.609466315586669" as="geometry" />
        </mxCell>
        <mxCell id="YyxFNso_PHiNrbnvG7HJ-81" value="" style="rounded=0;whiteSpace=wrap;html=1;fillColor=#f8cecc;strokeColor=#b85450;container=0;rotation=90;fontFamily=Times New Roman;" vertex="1" parent="YyxFNso_PHiNrbnvG7HJ-10">
          <mxGeometry x="241.8706174270972" y="292.0060080977441" width="22.730021682416364" height="10.609466315586669" as="geometry" />
        </mxCell>
        <mxCell id="YyxFNso_PHiNrbnvG7HJ-82" value="" style="rounded=0;whiteSpace=wrap;html=1;fillColor=#f8cecc;strokeColor=#b85450;container=0;rotation=90;fontFamily=Times New Roman;" vertex="1" parent="YyxFNso_PHiNrbnvG7HJ-10">
          <mxGeometry x="218.95728911820973" y="292.0060080977441" width="22.730021682416364" height="10.609466315586669" as="geometry" />
        </mxCell>
        <mxCell id="YyxFNso_PHiNrbnvG7HJ-83" value="" style="rounded=0;whiteSpace=wrap;html=1;fillColor=#f8cecc;strokeColor=#b85450;container=0;rotation=90;fontFamily=Times New Roman;" vertex="1" parent="YyxFNso_PHiNrbnvG7HJ-10">
          <mxGeometry x="215.9021786770247" y="338.28222670926556" width="22.730021682416364" height="10.609466315586669" as="geometry" />
        </mxCell>
        <mxCell id="YyxFNso_PHiNrbnvG7HJ-84" value="" style="rounded=0;whiteSpace=wrap;html=1;fillColor=#f8cecc;strokeColor=#b85450;container=0;rotation=90;fontFamily=Times New Roman;" vertex="1" parent="YyxFNso_PHiNrbnvG7HJ-10">
          <mxGeometry x="239.57928459620842" y="341.419597462589" width="22.730021682416364" height="10.609466315586669" as="geometry" />
        </mxCell>
        <mxCell id="YyxFNso_PHiNrbnvG7HJ-85" value="" style="rounded=0;whiteSpace=wrap;html=1;fillColor=#f8cecc;strokeColor=#b85450;container=0;rotation=90;fontFamily=Times New Roman;" vertex="1" parent="YyxFNso_PHiNrbnvG7HJ-10">
          <mxGeometry x="257.14616963302217" y="341.419597462589" width="22.730021682416364" height="10.609466315586669" as="geometry" />
        </mxCell>
        <mxCell id="YyxFNso_PHiNrbnvG7HJ-86" value="" style="rounded=0;whiteSpace=wrap;html=1;fillColor=#fff2cc;strokeColor=#d6b656;container=0;rotation=90;fontFamily=Times New Roman;" vertex="1" parent="YyxFNso_PHiNrbnvG7HJ-10">
          <mxGeometry x="241.8706174270972" y="379.85238919080183" width="22.730021682416364" height="10.609466315586669" as="geometry" />
        </mxCell>
        <mxCell id="YyxFNso_PHiNrbnvG7HJ-87" value="" style="rounded=0;whiteSpace=wrap;html=1;fillColor=#f8cecc;strokeColor=#b85450;container=0;rotation=90;fontFamily=Times New Roman;" vertex="1" parent="YyxFNso_PHiNrbnvG7HJ-10">
          <mxGeometry x="230.41395327265343" y="366.518563489177" width="22.730021682416364" height="10.609466315586669" as="geometry" />
        </mxCell>
        <mxCell id="YyxFNso_PHiNrbnvG7HJ-88" value="" style="rounded=0;whiteSpace=wrap;html=1;fillColor=#fff2cc;strokeColor=#d6b656;container=0;rotation=90;fontFamily=Times New Roman;" vertex="1" parent="YyxFNso_PHiNrbnvG7HJ-10">
          <mxGeometry x="252.56350397124464" y="403.38266984072783" width="22.730021682416364" height="10.609466315586669" as="geometry" />
        </mxCell>
        <mxCell id="YyxFNso_PHiNrbnvG7HJ-89" value="" style="rounded=0;whiteSpace=wrap;html=1;fillColor=#d5e8d4;strokeColor=#82b366;container=0;rotation=90;fontFamily=Times New Roman;" vertex="1" parent="YyxFNso_PHiNrbnvG7HJ-10">
          <mxGeometry x="299.15393819931586" y="411.2260967240366" width="22.730021682416364" height="10.609466315586669" as="geometry" />
        </mxCell>
        <mxCell id="YyxFNso_PHiNrbnvG7HJ-90" value="" style="rounded=0;whiteSpace=wrap;html=1;fillColor=#fff2cc;strokeColor=#d6b656;container=0;rotation=90;fontFamily=Times New Roman;" vertex="1" parent="YyxFNso_PHiNrbnvG7HJ-10">
          <mxGeometry x="236.52417415502342" y="403.38266984072783" width="22.730021682416364" height="10.609466315586669" as="geometry" />
        </mxCell>
        <mxCell id="YyxFNso_PHiNrbnvG7HJ-91" value="" style="rounded=0;whiteSpace=wrap;html=1;fillColor=#f8cecc;strokeColor=#b85450;container=0;rotation=90;fontFamily=Times New Roman;" vertex="1" parent="YyxFNso_PHiNrbnvG7HJ-10">
          <mxGeometry x="257.14616963302217" y="286.51560927942813" width="22.730021682416364" height="10.609466315586669" as="geometry" />
        </mxCell>
        <mxCell id="YyxFNso_PHiNrbnvG7HJ-92" value="" style="rounded=0;whiteSpace=wrap;html=1;fillColor=#f8cecc;strokeColor=#b85450;container=0;rotation=90;fontFamily=Times New Roman;" vertex="1" parent="YyxFNso_PHiNrbnvG7HJ-10">
          <mxGeometry x="208.26440257406222" y="292.0060080977441" width="22.730021682416364" height="10.609466315586669" as="geometry" />
        </mxCell>
        <mxCell id="YyxFNso_PHiNrbnvG7HJ-93" value="" style="rounded=0;whiteSpace=wrap;html=1;fillColor=#fff2cc;strokeColor=#d6b656;container=0;rotation=90;fontFamily=Times New Roman;" vertex="1" parent="YyxFNso_PHiNrbnvG7HJ-10">
          <mxGeometry x="257.14616963302217" y="379.85238919080183" width="22.730021682416364" height="10.609466315586669" as="geometry" />
        </mxCell>
        <mxCell id="YyxFNso_PHiNrbnvG7HJ-94" value="" style="rounded=0;whiteSpace=wrap;html=1;fillColor=#d5e8d4;strokeColor=#82b366;container=0;rotation=90;fontFamily=Times New Roman;" vertex="1" parent="YyxFNso_PHiNrbnvG7HJ-10">
          <mxGeometry x="273.18549944924337" y="403.38266984072783" width="22.730021682416364" height="10.609466315586669" as="geometry" />
        </mxCell>
        <mxCell id="YyxFNso_PHiNrbnvG7HJ-95" value="" style="rounded=0;whiteSpace=wrap;html=1;fillColor=#fff2cc;strokeColor=#d6b656;container=0;rotation=90;fontFamily=Times New Roman;" vertex="1" parent="YyxFNso_PHiNrbnvG7HJ-10">
          <mxGeometry x="226.5950652211722" y="403.38266984072783" width="22.730021682416364" height="10.609466315586669" as="geometry" />
        </mxCell>
        <mxCell id="YyxFNso_PHiNrbnvG7HJ-96" value="&lt;span style=&quot;color: rgba(0, 0, 0, 0); font-size: 0px; text-align: start; text-wrap: nowrap;&quot;&gt;%3CmxGraphModel%3E%3Croot%3E%3CmxCell%20id%3D%220%22%2F%3E%3CmxCell%20id%3D%221%22%20parent%3D%220%22%2F%3E%3CmxCell%20id%3D%222%22%20value%3D%22%22%20style%3D%22rounded%3D0%3BwhiteSpace%3Dwrap%3Bhtml%3D1%3BfillColor%3D%23dae8fc%3BstrokeColor%3D%236c8ebf%3B%22%20vertex%3D%221%22%20parent%3D%221%22%3E%3CmxGeometry%20x%3D%22610%22%20y%3D%22480%22%20width%3D%2290%22%20height%3D%2240%22%20as%3D%22geometry%22%2F%3E%3C%2FmxCell%3E%3C%2Froot%3E%3C%2FmxGraphModel%3E&lt;/span&gt;" style="rounded=0;whiteSpace=wrap;html=1;fillColor=#fff2cc;strokeColor=#d6b656;container=0;rotation=90;fontFamily=Times New Roman;" vertex="1" parent="YyxFNso_PHiNrbnvG7HJ-10">
          <mxGeometry x="244.16195025798592" y="429.26597855564677" width="22.730021682416364" height="10.609466315586669" as="geometry" />
        </mxCell>
        <mxCell id="YyxFNso_PHiNrbnvG7HJ-97" value="&lt;span style=&quot;color: rgba(0, 0, 0, 0); font-size: 0px; text-align: start; text-wrap: nowrap;&quot;&gt;%3CmxGraphModel%3E%3Croot%3E%3CmxCell%20id%3D%220%22%2F%3E%3CmxCell%20id%3D%221%22%20parent%3D%220%22%2F%3E%3CmxCell%20id%3D%222%22%20value%3D%22%22%20style%3D%22rounded%3D0%3BwhiteSpace%3Dwrap%3Bhtml%3D1%3BfillColor%3D%23dae8fc%3BstrokeColor%3D%236c8ebf%3B%22%20vertex%3D%221%22%20parent%3D%221%22%3E%3CmxGeometry%20x%3D%22610%22%20y%3D%22480%22%20width%3D%2290%22%20height%3D%2240%22%20as%3D%22geometry%22%2F%3E%3C%2FmxCell%3E%3C%2Froot%3E%3C%2FmxGraphModel%3E&lt;/span&gt;" style="rounded=0;whiteSpace=wrap;html=1;fillColor=#fff2cc;strokeColor=#d6b656;container=0;rotation=90;fontFamily=Times New Roman;" vertex="1" parent="YyxFNso_PHiNrbnvG7HJ-10">
          <mxGeometry x="234.23284132413468" y="429.26597855564677" width="22.730021682416364" height="10.609466315586669" as="geometry" />
        </mxCell>
        <mxCell id="YyxFNso_PHiNrbnvG7HJ-98" value="&lt;span style=&quot;color: rgba(0, 0, 0, 0); font-size: 0px; text-align: start; text-wrap: nowrap;&quot;&gt;%3CmxGraphModel%3E%3Croot%3E%3CmxCell%20id%3D%220%22%2F%3E%3CmxCell%20id%3D%221%22%20parent%3D%220%22%2F%3E%3CmxCell%20id%3D%222%22%20value%3D%22%22%20style%3D%22rounded%3D0%3BwhiteSpace%3Dwrap%3Bhtml%3D1%3BfillColor%3D%23dae8fc%3BstrokeColor%3D%236c8ebf%3B%22%20vertex%3D%221%22%20parent%3D%221%22%3E%3CmxGeometry%20x%3D%22610%22%20y%3D%22480%22%20width%3D%2290%22%20height%3D%2240%22%20as%3D%22geometry%22%2F%3E%3C%2FmxCell%3E%3C%2Froot%3E%3C%2FmxGraphModel%3E&lt;/span&gt;" style="rounded=0;whiteSpace=wrap;html=1;fillColor=#fff2cc;strokeColor=#d6b656;container=0;rotation=90;fontFamily=Times New Roman;" vertex="1" parent="YyxFNso_PHiNrbnvG7HJ-10">
          <mxGeometry x="223.53995477998723" y="429.26597855564677" width="22.730021682416364" height="10.609466315586669" as="geometry" />
        </mxCell>
        <mxCell id="YyxFNso_PHiNrbnvG7HJ-99" value="&lt;span style=&quot;color: rgba(0, 0, 0, 0); font-size: 0px; text-align: start; text-wrap: nowrap;&quot;&gt;%3CmxGraphModel%3E%3Croot%3E%3CmxCell%20id%3D%220%22%2F%3E%3CmxCell%20id%3D%221%22%20parent%3D%220%22%2F%3E%3CmxCell%20id%3D%222%22%20value%3D%22%22%20style%3D%22rounded%3D0%3BwhiteSpace%3Dwrap%3Bhtml%3D1%3BfillColor%3D%23dae8fc%3BstrokeColor%3D%236c8ebf%3B%22%20vertex%3D%221%22%20parent%3D%221%22%3E%3CmxGeometry%20x%3D%22610%22%20y%3D%22480%22%20width%3D%2290%22%20height%3D%2240%22%20as%3D%22geometry%22%2F%3E%3C%2FmxCell%3E%3C%2Froot%3E%3C%2FmxGraphModel%3E&lt;/span&gt;" style="rounded=0;whiteSpace=wrap;html=1;fillColor=#fff2cc;strokeColor=#d6b656;container=0;rotation=90;fontFamily=Times New Roman;" vertex="1" parent="YyxFNso_PHiNrbnvG7HJ-10">
          <mxGeometry x="213.61084584613593" y="429.26597855564677" width="22.730021682416364" height="10.609466315586669" as="geometry" />
        </mxCell>
        <mxCell id="YyxFNso_PHiNrbnvG7HJ-100" value="&lt;span style=&quot;color: rgba(0, 0, 0, 0); font-size: 0px; text-align: start; text-wrap: nowrap;&quot;&gt;%3CmxGraphModel%3E%3Croot%3E%3CmxCell%20id%3D%220%22%2F%3E%3CmxCell%20id%3D%221%22%20parent%3D%220%22%2F%3E%3CmxCell%20id%3D%222%22%20value%3D%22%22%20style%3D%22rounded%3D0%3BwhiteSpace%3Dwrap%3Bhtml%3D1%3BfillColor%3D%23dae8fc%3BstrokeColor%3D%236c8ebf%3B%22%20vertex%3D%221%22%20parent%3D%221%22%3E%3CmxGeometry%20x%3D%22610%22%20y%3D%22480%22%20width%3D%2290%22%20height%3D%2240%22%20as%3D%22geometry%22%2F%3E%3C%2FmxCell%3E%3C%2Froot%3E%3C%2FmxGraphModel%3E&lt;/span&gt;" style="rounded=0;whiteSpace=wrap;html=1;fillColor=#fff2cc;strokeColor=#d6b656;container=0;rotation=90;fontFamily=Times New Roman;" vertex="1" parent="YyxFNso_PHiNrbnvG7HJ-10">
          <mxGeometry x="208.26440257406222" y="403.38266984072783" width="22.730021682416364" height="10.609466315586669" as="geometry" />
        </mxCell>
        <mxCell id="YyxFNso_PHiNrbnvG7HJ-101" value="&lt;span style=&quot;color: rgba(0, 0, 0, 0); font-size: 0px; text-align: start; text-wrap: nowrap;&quot;&gt;%3CmxGraphModel%3E%3Croot%3E%3CmxCell%20id%3D%220%22%2F%3E%3CmxCell%20id%3D%221%22%20parent%3D%220%22%2F%3E%3CmxCell%20id%3D%222%22%20value%3D%22%22%20style%3D%22rounded%3D0%3BwhiteSpace%3Dwrap%3Bhtml%3D1%3BfillColor%3D%23dae8fc%3BstrokeColor%3D%236c8ebf%3B%22%20vertex%3D%221%22%20parent%3D%221%22%3E%3CmxGeometry%20x%3D%22610%22%20y%3D%22480%22%20width%3D%2290%22%20height%3D%2240%22%20as%3D%22geometry%22%2F%3E%3C%2FmxCell%3E%3C%2Froot%3E%3C%2FmxGraphModel%3E&lt;/span&gt;" style="rounded=0;whiteSpace=wrap;html=1;fillColor=#fff2cc;strokeColor=#d6b656;container=0;rotation=90;fontFamily=Times New Roman;" vertex="1" parent="YyxFNso_PHiNrbnvG7HJ-10">
          <mxGeometry x="234.23284132413468" y="452.79625920557277" width="22.730021682416364" height="10.609466315586669" as="geometry" />
        </mxCell>
        <mxCell id="YyxFNso_PHiNrbnvG7HJ-102" value="" style="endArrow=none;dashed=1;html=1;rounded=0;strokeWidth=3;strokeColor=none;fillColor=#f8cecc;fontFamily=Times New Roman;" edge="1" parent="YyxFNso_PHiNrbnvG7HJ-10">
          <mxGeometry width="50" height="50" relative="1" as="geometry">
            <mxPoint x="279.2957203316134" y="337.4978840209348" as="sourcePoint" />
            <mxPoint x="279.2957203316134" y="274.750468954465" as="targetPoint" />
          </mxGeometry>
        </mxCell>
        <mxCell id="YyxFNso_PHiNrbnvG7HJ-103" value="" style="rounded=0;whiteSpace=wrap;html=1;fillColor=#dae8fc;strokeColor=#6c8ebf;container=0;rotation=90;fontFamily=Times New Roman;" vertex="1" parent="YyxFNso_PHiNrbnvG7HJ-10">
          <mxGeometry x="340.39792915531325" y="286.51560927942813" width="22.730021682416364" height="10.609466315586669" as="geometry" />
        </mxCell>
        <mxCell id="YyxFNso_PHiNrbnvG7HJ-104" value="" style="rounded=0;whiteSpace=wrap;html=1;fillColor=#dae8fc;strokeColor=#6c8ebf;container=0;rotation=90;fontFamily=Times New Roman;" vertex="1" parent="YyxFNso_PHiNrbnvG7HJ-10">
          <mxGeometry x="329.70504261116577" y="286.51560927942813" width="22.730021682416364" height="10.609466315586669" as="geometry" />
        </mxCell>
        <mxCell id="YyxFNso_PHiNrbnvG7HJ-105" value="" style="rounded=0;whiteSpace=wrap;html=1;fillColor=#dae8fc;strokeColor=#6c8ebf;container=0;rotation=90;fontFamily=Times New Roman;" vertex="1" parent="YyxFNso_PHiNrbnvG7HJ-10">
          <mxGeometry x="350.3270380891645" y="315.5362887476703" width="22.730021682416364" height="10.609466315586669" as="geometry" />
        </mxCell>
        <mxCell id="YyxFNso_PHiNrbnvG7HJ-106" value="" style="rounded=0;whiteSpace=wrap;html=1;fillColor=#dae8fc;strokeColor=#6c8ebf;container=0;rotation=90;fontFamily=Times New Roman;" vertex="1" parent="YyxFNso_PHiNrbnvG7HJ-10">
          <mxGeometry x="340.39792915531325" y="315.5362887476703" width="22.730021682416364" height="10.609466315586669" as="geometry" />
        </mxCell>
        <mxCell id="YyxFNso_PHiNrbnvG7HJ-107" value="" style="rounded=0;whiteSpace=wrap;html=1;fillColor=#dae8fc;strokeColor=#6c8ebf;container=0;rotation=90;fontFamily=Times New Roman;" vertex="1" parent="YyxFNso_PHiNrbnvG7HJ-10">
          <mxGeometry x="319.7759336773145" y="286.51560927942813" width="22.730021682416364" height="10.609466315586669" as="geometry" />
        </mxCell>
        <mxCell id="YyxFNso_PHiNrbnvG7HJ-108" value="" style="rounded=0;whiteSpace=wrap;html=1;fillColor=#dae8fc;strokeColor=#6c8ebf;container=0;rotation=90;fontFamily=Times New Roman;" vertex="1" parent="YyxFNso_PHiNrbnvG7HJ-10">
          <mxGeometry x="322.0672665082033" y="315.5362887476703" width="22.730021682416364" height="10.609466315586669" as="geometry" />
        </mxCell>
        <mxCell id="YyxFNso_PHiNrbnvG7HJ-109" value="" style="rounded=0;whiteSpace=wrap;html=1;fillColor=#dae8fc;strokeColor=#6c8ebf;container=0;rotation=90;fontFamily=Times New Roman;" vertex="1" parent="YyxFNso_PHiNrbnvG7HJ-10">
          <mxGeometry x="301.4452710302046" y="315.5362887476703" width="22.730021682416364" height="10.609466315586669" as="geometry" />
        </mxCell>
        <mxCell id="YyxFNso_PHiNrbnvG7HJ-110" value="" style="rounded=0;whiteSpace=wrap;html=1;fillColor=#dae8fc;strokeColor=#6c8ebf;container=0;rotation=90;fontFamily=Times New Roman;" vertex="1" parent="YyxFNso_PHiNrbnvG7HJ-10">
          <mxGeometry x="291.5161620963534" y="315.5362887476703" width="22.730021682416364" height="10.609466315586669" as="geometry" />
        </mxCell>
        <mxCell id="YyxFNso_PHiNrbnvG7HJ-111" value="" style="rounded=0;whiteSpace=wrap;html=1;fillColor=#dae8fc;strokeColor=#6c8ebf;container=0;rotation=90;fontFamily=Times New Roman;" vertex="1" parent="YyxFNso_PHiNrbnvG7HJ-10">
          <mxGeometry x="301.4452710302046" y="286.51560927942813" width="22.730021682416364" height="10.609466315586669" as="geometry" />
        </mxCell>
        <mxCell id="YyxFNso_PHiNrbnvG7HJ-112" value="" style="rounded=0;whiteSpace=wrap;html=1;fillColor=#dae8fc;strokeColor=#6c8ebf;container=0;rotation=90;fontFamily=Times New Roman;" vertex="1" parent="YyxFNso_PHiNrbnvG7HJ-10">
          <mxGeometry x="312.1381575743521" y="315.5362887476703" width="22.730021682416364" height="10.609466315586669" as="geometry" />
        </mxCell>
        <mxCell id="YyxFNso_PHiNrbnvG7HJ-113" value="" style="rounded=0;whiteSpace=wrap;html=1;fillColor=#dae8fc;strokeColor=#6c8ebf;container=0;rotation=90;fontFamily=Times New Roman;" vertex="1" parent="YyxFNso_PHiNrbnvG7HJ-10">
          <mxGeometry x="280.82327555220587" y="315.5362887476703" width="22.730021682416364" height="10.609466315586669" as="geometry" />
        </mxCell>
        <mxCell id="YyxFNso_PHiNrbnvG7HJ-114" value="" style="rounded=0;whiteSpace=wrap;html=1;fillColor=#dae8fc;strokeColor=#6c8ebf;container=0;rotation=90;fontFamily=Times New Roman;" vertex="1" parent="YyxFNso_PHiNrbnvG7HJ-10">
          <mxGeometry x="291.5161620963534" y="286.51560927942813" width="22.730021682416364" height="10.609466315586669" as="geometry" />
        </mxCell>
        <mxCell id="YyxFNso_PHiNrbnvG7HJ-115" value="" style="rounded=1;whiteSpace=wrap;html=1;fillColor=none;strokeWidth=2;glass=0;shadow=1;dashed=1;rotation=90;container=0;fontFamily=Times New Roman;" vertex="1" parent="YyxFNso_PHiNrbnvG7HJ-10">
          <mxGeometry x="285.40594121398334" y="341.419597462589" width="32.04047075192765" height="19.02031019202363" as="geometry" />
        </mxCell>
        <mxCell id="YyxFNso_PHiNrbnvG7HJ-116" value="" style="rounded=1;whiteSpace=wrap;html=1;fillColor=none;strokeWidth=2;glass=0;shadow=1;dashed=1;rotation=90;container=0;fontFamily=Times New Roman;" vertex="1" parent="YyxFNso_PHiNrbnvG7HJ-10">
          <mxGeometry x="225.83128761087593" y="362.59685004752254" width="32.04047075192765" height="19.02031019202363" as="geometry" />
        </mxCell>
        <mxCell id="YyxFNso_PHiNrbnvG7HJ-117" value="" style="rounded=1;whiteSpace=wrap;html=1;fillColor=#f5f5f5;strokeWidth=2;fontColor=#333333;strokeColor=#666666;rotation=90;container=0;fontFamily=Times New Roman;" vertex="1" parent="YyxFNso_PHiNrbnvG7HJ-10">
          <mxGeometry x="7.044447794075021" y="288.08429465608987" width="198.5821786770247" height="172.55539143279174" as="geometry" />
        </mxCell>
        <mxCell id="YyxFNso_PHiNrbnvG7HJ-118" value="" style="rounded=0;whiteSpace=wrap;html=1;fillColor=#d5e8d4;strokeColor=#82b366;container=0;rotation=90;fontFamily=Times New Roman;" vertex="1" parent="YyxFNso_PHiNrbnvG7HJ-10">
          <mxGeometry x="164.3826355151023" y="379.85238919080183" width="22.730021682416364" height="10.609466315586669" as="geometry" />
        </mxCell>
        <mxCell id="YyxFNso_PHiNrbnvG7HJ-119" value="" style="rounded=0;whiteSpace=wrap;html=1;fillColor=#d5e8d4;strokeColor=#82b366;container=0;rotation=90;fontFamily=Times New Roman;" vertex="1" parent="YyxFNso_PHiNrbnvG7HJ-10">
          <mxGeometry x="154.45352658125103" y="379.85238919080183" width="22.730021682416364" height="10.609466315586669" as="geometry" />
        </mxCell>
        <mxCell id="YyxFNso_PHiNrbnvG7HJ-120" value="" style="rounded=0;whiteSpace=wrap;html=1;fillColor=#d5e8d4;strokeColor=#82b366;container=0;rotation=90;fontFamily=Times New Roman;" vertex="1" parent="YyxFNso_PHiNrbnvG7HJ-10">
          <mxGeometry x="143.76064003710357" y="379.85238919080183" width="22.730021682416364" height="10.609466315586669" as="geometry" />
        </mxCell>
        <mxCell id="YyxFNso_PHiNrbnvG7HJ-121" value="" style="rounded=0;whiteSpace=wrap;html=1;fillColor=#d5e8d4;strokeColor=#82b366;container=0;rotation=90;fontFamily=Times New Roman;" vertex="1" parent="YyxFNso_PHiNrbnvG7HJ-10">
          <mxGeometry x="133.83153110325236" y="379.85238919080183" width="22.730021682416364" height="10.609466315586669" as="geometry" />
        </mxCell>
        <mxCell id="YyxFNso_PHiNrbnvG7HJ-122" value="" style="rounded=0;whiteSpace=wrap;html=1;fillColor=#d5e8d4;strokeColor=#82b366;container=0;rotation=90;fontFamily=Times New Roman;" vertex="1" parent="YyxFNso_PHiNrbnvG7HJ-10">
          <mxGeometry x="118.55597889732738" y="379.85238919080183" width="22.730021682416364" height="10.609466315586669" as="geometry" />
        </mxCell>
        <mxCell id="YyxFNso_PHiNrbnvG7HJ-123" value="" style="rounded=0;whiteSpace=wrap;html=1;fillColor=#d5e8d4;strokeColor=#82b366;container=0;rotation=90;fontFamily=Times New Roman;" vertex="1" parent="YyxFNso_PHiNrbnvG7HJ-10">
          <mxGeometry x="107.86309235317987" y="379.85238919080183" width="22.730021682416364" height="10.609466315586669" as="geometry" />
        </mxCell>
        <mxCell id="YyxFNso_PHiNrbnvG7HJ-124" value="" style="rounded=0;whiteSpace=wrap;html=1;fillColor=#d5e8d4;strokeColor=#82b366;container=0;rotation=90;fontFamily=Times New Roman;" vertex="1" parent="YyxFNso_PHiNrbnvG7HJ-10">
          <mxGeometry x="97.93398341932863" y="379.85238919080183" width="22.730021682416364" height="10.609466315586669" as="geometry" />
        </mxCell>
        <mxCell id="YyxFNso_PHiNrbnvG7HJ-125" value="" style="rounded=0;whiteSpace=wrap;html=1;fillColor=#d5e8d4;strokeColor=#82b366;container=0;rotation=90;fontFamily=Times New Roman;" vertex="1" parent="YyxFNso_PHiNrbnvG7HJ-10">
          <mxGeometry x="143.76064003710357" y="411.2260967240366" width="22.730021682416364" height="10.609466315586669" as="geometry" />
        </mxCell>
        <mxCell id="YyxFNso_PHiNrbnvG7HJ-126" value="" style="rounded=0;whiteSpace=wrap;html=1;fillColor=#d5e8d4;strokeColor=#82b366;container=0;rotation=90;fontFamily=Times New Roman;" vertex="1" parent="YyxFNso_PHiNrbnvG7HJ-10">
          <mxGeometry x="133.83153110325236" y="411.2260967240366" width="22.730021682416364" height="10.609466315586669" as="geometry" />
        </mxCell>
        <mxCell id="YyxFNso_PHiNrbnvG7HJ-127" value="" style="rounded=0;whiteSpace=wrap;html=1;fillColor=#d5e8d4;strokeColor=#82b366;container=0;rotation=90;fontFamily=Times New Roman;" vertex="1" parent="YyxFNso_PHiNrbnvG7HJ-10">
          <mxGeometry x="123.13864455910488" y="411.2260967240366" width="22.730021682416364" height="10.609466315586669" as="geometry" />
        </mxCell>
        <mxCell id="YyxFNso_PHiNrbnvG7HJ-128" value="" style="rounded=0;whiteSpace=wrap;html=1;fillColor=#dae8fc;strokeColor=#6c8ebf;container=0;rotation=90;fontFamily=Times New Roman;" vertex="1" parent="YyxFNso_PHiNrbnvG7HJ-10">
          <mxGeometry x="104.04420430169864" y="345.34131090424347" width="22.730021682416364" height="10.609466315586669" as="geometry" />
        </mxCell>
        <mxCell id="YyxFNso_PHiNrbnvG7HJ-129" value="" style="rounded=0;whiteSpace=wrap;html=1;fillColor=#f8cecc;strokeColor=#b85450;container=0;rotation=90;fontFamily=Times New Roman;" vertex="1" parent="YyxFNso_PHiNrbnvG7HJ-10">
          <mxGeometry x="74.25687750014492" y="315.5362887476703" width="22.730021682416364" height="10.609466315586669" as="geometry" />
        </mxCell>
        <mxCell id="YyxFNso_PHiNrbnvG7HJ-130" value="" style="rounded=0;whiteSpace=wrap;html=1;fillColor=#f8cecc;strokeColor=#b85450;container=0;rotation=90;fontFamily=Times New Roman;" vertex="1" parent="YyxFNso_PHiNrbnvG7HJ-10">
          <mxGeometry x="63.56399095599745" y="315.5362887476703" width="22.730021682416364" height="10.609466315586669" as="geometry" />
        </mxCell>
        <mxCell id="YyxFNso_PHiNrbnvG7HJ-131" value="" style="rounded=0;whiteSpace=wrap;html=1;fillColor=#f8cecc;strokeColor=#b85450;container=0;rotation=90;fontFamily=Times New Roman;" vertex="1" parent="YyxFNso_PHiNrbnvG7HJ-10">
          <mxGeometry x="53.63488202214621" y="315.5362887476703" width="22.730021682416364" height="10.609466315586669" as="geometry" />
        </mxCell>
        <mxCell id="YyxFNso_PHiNrbnvG7HJ-132" value="" style="rounded=0;whiteSpace=wrap;html=1;fillColor=#f8cecc;strokeColor=#b85450;container=0;rotation=90;fontFamily=Times New Roman;" vertex="1" parent="YyxFNso_PHiNrbnvG7HJ-10">
          <mxGeometry x="42.941995477998724" y="315.5362887476703" width="22.730021682416364" height="10.609466315586669" as="geometry" />
        </mxCell>
        <mxCell id="YyxFNso_PHiNrbnvG7HJ-133" value="" style="rounded=0;whiteSpace=wrap;html=1;fillColor=#f8cecc;strokeColor=#b85450;container=0;rotation=90;fontFamily=Times New Roman;" vertex="1" parent="YyxFNso_PHiNrbnvG7HJ-10">
          <mxGeometry x="55.92621485303494" y="292.0060080977441" width="22.730021682416364" height="10.609466315586669" as="geometry" />
        </mxCell>
        <mxCell id="YyxFNso_PHiNrbnvG7HJ-134" value="" style="rounded=0;whiteSpace=wrap;html=1;fillColor=#f8cecc;strokeColor=#b85450;container=0;rotation=90;fontFamily=Times New Roman;" vertex="1" parent="YyxFNso_PHiNrbnvG7HJ-10">
          <mxGeometry x="33.012886544147484" y="292.0060080977441" width="22.730021682416364" height="10.609466315586669" as="geometry" />
        </mxCell>
        <mxCell id="YyxFNso_PHiNrbnvG7HJ-135" value="" style="rounded=0;whiteSpace=wrap;html=1;fillColor=#f8cecc;strokeColor=#b85450;container=0;rotation=90;fontFamily=Times New Roman;" vertex="1" parent="YyxFNso_PHiNrbnvG7HJ-10">
          <mxGeometry x="29.95777610296249" y="338.28222670926556" width="22.730021682416364" height="10.609466315586669" as="geometry" />
        </mxCell>
        <mxCell id="YyxFNso_PHiNrbnvG7HJ-136" value="" style="rounded=0;whiteSpace=wrap;html=1;fillColor=#f8cecc;strokeColor=#b85450;container=0;rotation=90;fontFamily=Times New Roman;" vertex="1" parent="YyxFNso_PHiNrbnvG7HJ-10">
          <mxGeometry x="53.63488202214621" y="341.419597462589" width="22.730021682416364" height="10.609466315586669" as="geometry" />
        </mxCell>
        <mxCell id="YyxFNso_PHiNrbnvG7HJ-137" value="" style="rounded=0;whiteSpace=wrap;html=1;fillColor=#f8cecc;strokeColor=#b85450;container=0;rotation=90;fontFamily=Times New Roman;" vertex="1" parent="YyxFNso_PHiNrbnvG7HJ-10">
          <mxGeometry x="71.20176705895992" y="341.419597462589" width="22.730021682416364" height="10.609466315586669" as="geometry" />
        </mxCell>
        <mxCell id="YyxFNso_PHiNrbnvG7HJ-138" value="" style="rounded=0;whiteSpace=wrap;html=1;fillColor=#fff2cc;strokeColor=#d6b656;container=0;rotation=90;fontFamily=Times New Roman;" vertex="1" parent="YyxFNso_PHiNrbnvG7HJ-10">
          <mxGeometry x="55.92621485303494" y="379.85238919080183" width="22.730021682416364" height="10.609466315586669" as="geometry" />
        </mxCell>
        <mxCell id="YyxFNso_PHiNrbnvG7HJ-139" value="" style="rounded=0;whiteSpace=wrap;html=1;fillColor=#fff2cc;strokeColor=#d6b656;container=0;rotation=90;fontFamily=Times New Roman;" vertex="1" parent="YyxFNso_PHiNrbnvG7HJ-10">
          <mxGeometry x="44.46955069859121" y="365.73422080084623" width="22.730021682416364" height="10.609466315586669" as="geometry" />
        </mxCell>
        <mxCell id="YyxFNso_PHiNrbnvG7HJ-140" value="" style="rounded=0;whiteSpace=wrap;html=1;fillColor=#fff2cc;strokeColor=#d6b656;container=0;rotation=90;fontFamily=Times New Roman;" vertex="1" parent="YyxFNso_PHiNrbnvG7HJ-10">
          <mxGeometry x="66.61910139718242" y="403.38266984072783" width="22.730021682416364" height="10.609466315586669" as="geometry" />
        </mxCell>
        <mxCell id="YyxFNso_PHiNrbnvG7HJ-141" value="" style="rounded=0;whiteSpace=wrap;html=1;fillColor=#d5e8d4;strokeColor=#82b366;container=0;rotation=90;fontFamily=Times New Roman;" vertex="1" parent="YyxFNso_PHiNrbnvG7HJ-10">
          <mxGeometry x="113.20953562525361" y="411.2260967240366" width="22.730021682416364" height="10.609466315586669" as="geometry" />
        </mxCell>
        <mxCell id="YyxFNso_PHiNrbnvG7HJ-142" value="" style="rounded=0;whiteSpace=wrap;html=1;fillColor=#fff2cc;strokeColor=#d6b656;container=0;rotation=90;fontFamily=Times New Roman;" vertex="1" parent="YyxFNso_PHiNrbnvG7HJ-10">
          <mxGeometry x="50.579771580961214" y="403.38266984072783" width="22.730021682416364" height="10.609466315586669" as="geometry" />
        </mxCell>
        <mxCell id="YyxFNso_PHiNrbnvG7HJ-143" value="" style="rounded=0;whiteSpace=wrap;html=1;fillColor=#f8cecc;strokeColor=#b85450;container=0;rotation=90;fontFamily=Times New Roman;" vertex="1" parent="YyxFNso_PHiNrbnvG7HJ-10">
          <mxGeometry x="71.20176705895992" y="286.51560927942813" width="22.730021682416364" height="10.609466315586669" as="geometry" />
        </mxCell>
        <mxCell id="YyxFNso_PHiNrbnvG7HJ-144" value="" style="rounded=0;whiteSpace=wrap;html=1;fillColor=#f8cecc;strokeColor=#b85450;container=0;rotation=90;fontFamily=Times New Roman;" vertex="1" parent="YyxFNso_PHiNrbnvG7HJ-10">
          <mxGeometry x="22.32" y="292.0060080977441" width="22.730021682416364" height="10.609466315586669" as="geometry" />
        </mxCell>
        <mxCell id="YyxFNso_PHiNrbnvG7HJ-145" value="" style="rounded=0;whiteSpace=wrap;html=1;fillColor=#fff2cc;strokeColor=#d6b656;container=0;rotation=90;fontFamily=Times New Roman;" vertex="1" parent="YyxFNso_PHiNrbnvG7HJ-10">
          <mxGeometry x="71.20176705895992" y="379.85238919080183" width="22.730021682416364" height="10.609466315586669" as="geometry" />
        </mxCell>
        <mxCell id="YyxFNso_PHiNrbnvG7HJ-146" value="" style="rounded=0;whiteSpace=wrap;html=1;fillColor=#d5e8d4;strokeColor=#82b366;container=0;rotation=90;fontFamily=Times New Roman;" vertex="1" parent="YyxFNso_PHiNrbnvG7HJ-10">
          <mxGeometry x="87.24109687518114" y="403.38266984072783" width="22.730021682416364" height="10.609466315586669" as="geometry" />
        </mxCell>
        <mxCell id="YyxFNso_PHiNrbnvG7HJ-147" value="" style="rounded=0;whiteSpace=wrap;html=1;fillColor=#fff2cc;strokeColor=#d6b656;container=0;rotation=90;fontFamily=Times New Roman;" vertex="1" parent="YyxFNso_PHiNrbnvG7HJ-10">
          <mxGeometry x="40.650662647109975" y="403.38266984072783" width="22.730021682416364" height="10.609466315586669" as="geometry" />
        </mxCell>
        <mxCell id="YyxFNso_PHiNrbnvG7HJ-148" value="&lt;span style=&quot;color: rgba(0, 0, 0, 0); font-size: 0px; text-align: start; text-wrap: nowrap;&quot;&gt;%3CmxGraphModel%3E%3Croot%3E%3CmxCell%20id%3D%220%22%2F%3E%3CmxCell%20id%3D%221%22%20parent%3D%220%22%2F%3E%3CmxCell%20id%3D%222%22%20value%3D%22%22%20style%3D%22rounded%3D0%3BwhiteSpace%3Dwrap%3Bhtml%3D1%3BfillColor%3D%23dae8fc%3BstrokeColor%3D%236c8ebf%3B%22%20vertex%3D%221%22%20parent%3D%221%22%3E%3CmxGeometry%20x%3D%22610%22%20y%3D%22480%22%20width%3D%2290%22%20height%3D%2240%22%20as%3D%22geometry%22%2F%3E%3C%2FmxCell%3E%3C%2Froot%3E%3C%2FmxGraphModel%3E&lt;/span&gt;" style="rounded=0;whiteSpace=wrap;html=1;fillColor=#fff2cc;strokeColor=#d6b656;container=0;rotation=90;fontFamily=Times New Roman;" vertex="1" parent="YyxFNso_PHiNrbnvG7HJ-10">
          <mxGeometry x="58.217547683923705" y="429.26597855564677" width="22.730021682416364" height="10.609466315586669" as="geometry" />
        </mxCell>
        <mxCell id="YyxFNso_PHiNrbnvG7HJ-149" value="&lt;span style=&quot;color: rgba(0, 0, 0, 0); font-size: 0px; text-align: start; text-wrap: nowrap;&quot;&gt;%3CmxGraphModel%3E%3Croot%3E%3CmxCell%20id%3D%220%22%2F%3E%3CmxCell%20id%3D%221%22%20parent%3D%220%22%2F%3E%3CmxCell%20id%3D%222%22%20value%3D%22%22%20style%3D%22rounded%3D0%3BwhiteSpace%3Dwrap%3Bhtml%3D1%3BfillColor%3D%23dae8fc%3BstrokeColor%3D%236c8ebf%3B%22%20vertex%3D%221%22%20parent%3D%221%22%3E%3CmxGeometry%20x%3D%22610%22%20y%3D%22480%22%20width%3D%2290%22%20height%3D%2240%22%20as%3D%22geometry%22%2F%3E%3C%2FmxCell%3E%3C%2Froot%3E%3C%2FmxGraphModel%3E&lt;/span&gt;" style="rounded=0;whiteSpace=wrap;html=1;fillColor=#fff2cc;strokeColor=#d6b656;container=0;rotation=90;fontFamily=Times New Roman;" vertex="1" parent="YyxFNso_PHiNrbnvG7HJ-10">
          <mxGeometry x="48.288438750072466" y="429.26597855564677" width="22.730021682416364" height="10.609466315586669" as="geometry" />
        </mxCell>
        <mxCell id="YyxFNso_PHiNrbnvG7HJ-150" value="&lt;span style=&quot;color: rgba(0, 0, 0, 0); font-size: 0px; text-align: start; text-wrap: nowrap;&quot;&gt;%3CmxGraphModel%3E%3Croot%3E%3CmxCell%20id%3D%220%22%2F%3E%3CmxCell%20id%3D%221%22%20parent%3D%220%22%2F%3E%3CmxCell%20id%3D%222%22%20value%3D%22%22%20style%3D%22rounded%3D0%3BwhiteSpace%3Dwrap%3Bhtml%3D1%3BfillColor%3D%23dae8fc%3BstrokeColor%3D%236c8ebf%3B%22%20vertex%3D%221%22%20parent%3D%221%22%3E%3CmxGeometry%20x%3D%22610%22%20y%3D%22480%22%20width%3D%2290%22%20height%3D%2240%22%20as%3D%22geometry%22%2F%3E%3C%2FmxCell%3E%3C%2Froot%3E%3C%2FmxGraphModel%3E&lt;/span&gt;" style="rounded=0;whiteSpace=wrap;html=1;fillColor=#fff2cc;strokeColor=#d6b656;container=0;rotation=90;fontFamily=Times New Roman;" vertex="1" parent="YyxFNso_PHiNrbnvG7HJ-10">
          <mxGeometry x="37.59555220592498" y="429.26597855564677" width="22.730021682416364" height="10.609466315586669" as="geometry" />
        </mxCell>
        <mxCell id="YyxFNso_PHiNrbnvG7HJ-151" value="&lt;span style=&quot;color: rgba(0, 0, 0, 0); font-size: 0px; text-align: start; text-wrap: nowrap;&quot;&gt;%3CmxGraphModel%3E%3Croot%3E%3CmxCell%20id%3D%220%22%2F%3E%3CmxCell%20id%3D%221%22%20parent%3D%220%22%2F%3E%3CmxCell%20id%3D%222%22%20value%3D%22%22%20style%3D%22rounded%3D0%3BwhiteSpace%3Dwrap%3Bhtml%3D1%3BfillColor%3D%23dae8fc%3BstrokeColor%3D%236c8ebf%3B%22%20vertex%3D%221%22%20parent%3D%221%22%3E%3CmxGeometry%20x%3D%22610%22%20y%3D%22480%22%20width%3D%2290%22%20height%3D%2240%22%20as%3D%22geometry%22%2F%3E%3C%2FmxCell%3E%3C%2Froot%3E%3C%2FmxGraphModel%3E&lt;/span&gt;" style="rounded=0;whiteSpace=wrap;html=1;fillColor=#fff2cc;strokeColor=#d6b656;container=0;rotation=90;fontFamily=Times New Roman;" vertex="1" parent="YyxFNso_PHiNrbnvG7HJ-10">
          <mxGeometry x="27.666443272073742" y="429.26597855564677" width="22.730021682416364" height="10.609466315586669" as="geometry" />
        </mxCell>
        <mxCell id="YyxFNso_PHiNrbnvG7HJ-152" value="&lt;span style=&quot;color: rgba(0, 0, 0, 0); font-size: 0px; text-align: start; text-wrap: nowrap;&quot;&gt;%3CmxGraphModel%3E%3Croot%3E%3CmxCell%20id%3D%220%22%2F%3E%3CmxCell%20id%3D%221%22%20parent%3D%220%22%2F%3E%3CmxCell%20id%3D%222%22%20value%3D%22%22%20style%3D%22rounded%3D0%3BwhiteSpace%3Dwrap%3Bhtml%3D1%3BfillColor%3D%23dae8fc%3BstrokeColor%3D%236c8ebf%3B%22%20vertex%3D%221%22%20parent%3D%221%22%3E%3CmxGeometry%20x%3D%22610%22%20y%3D%22480%22%20width%3D%2290%22%20height%3D%2240%22%20as%3D%22geometry%22%2F%3E%3C%2FmxCell%3E%3C%2Froot%3E%3C%2FmxGraphModel%3E&lt;/span&gt;" style="rounded=0;whiteSpace=wrap;html=1;fillColor=#fff2cc;strokeColor=#d6b656;container=0;rotation=90;fontFamily=Times New Roman;" vertex="1" parent="YyxFNso_PHiNrbnvG7HJ-10">
          <mxGeometry x="22.32" y="403.38266984072783" width="22.730021682416364" height="10.609466315586669" as="geometry" />
        </mxCell>
        <mxCell id="YyxFNso_PHiNrbnvG7HJ-153" value="&lt;span style=&quot;color: rgba(0, 0, 0, 0); font-size: 0px; text-align: start; text-wrap: nowrap;&quot;&gt;%3CmxGraphModel%3E%3Croot%3E%3CmxCell%20id%3D%220%22%2F%3E%3CmxCell%20id%3D%221%22%20parent%3D%220%22%2F%3E%3CmxCell%20id%3D%222%22%20value%3D%22%22%20style%3D%22rounded%3D0%3BwhiteSpace%3Dwrap%3Bhtml%3D1%3BfillColor%3D%23dae8fc%3BstrokeColor%3D%236c8ebf%3B%22%20vertex%3D%221%22%20parent%3D%221%22%3E%3CmxGeometry%20x%3D%22610%22%20y%3D%22480%22%20width%3D%2290%22%20height%3D%2240%22%20as%3D%22geometry%22%2F%3E%3C%2FmxCell%3E%3C%2Froot%3E%3C%2FmxGraphModel%3E&lt;/span&gt;" style="rounded=0;whiteSpace=wrap;html=1;fillColor=#fff2cc;strokeColor=#d6b656;container=0;rotation=90;fontFamily=Times New Roman;" vertex="1" parent="YyxFNso_PHiNrbnvG7HJ-10">
          <mxGeometry x="48.288438750072466" y="452.79625920557277" width="22.730021682416364" height="10.609466315586669" as="geometry" />
        </mxCell>
        <mxCell id="YyxFNso_PHiNrbnvG7HJ-154" value="" style="endArrow=none;dashed=1;html=1;rounded=0;strokeWidth=3;strokeColor=none;fillColor=#f8cecc;fontFamily=Times New Roman;" edge="1" parent="YyxFNso_PHiNrbnvG7HJ-10">
          <mxGeometry width="50" height="50" relative="1" as="geometry">
            <mxPoint x="93.35131775755116" y="337.4978840209348" as="sourcePoint" />
            <mxPoint x="93.35131775755116" y="274.750468954465" as="targetPoint" />
          </mxGeometry>
        </mxCell>
        <mxCell id="YyxFNso_PHiNrbnvG7HJ-155" value="" style="rounded=0;whiteSpace=wrap;html=1;fillColor=#dae8fc;strokeColor=#6c8ebf;container=0;rotation=90;fontFamily=Times New Roman;" vertex="1" parent="YyxFNso_PHiNrbnvG7HJ-10">
          <mxGeometry x="154.45352658125103" y="286.51560927942813" width="22.730021682416364" height="10.609466315586669" as="geometry" />
        </mxCell>
        <mxCell id="YyxFNso_PHiNrbnvG7HJ-156" value="" style="rounded=0;whiteSpace=wrap;html=1;fillColor=#dae8fc;strokeColor=#6c8ebf;container=0;rotation=90;fontFamily=Times New Roman;" vertex="1" parent="YyxFNso_PHiNrbnvG7HJ-10">
          <mxGeometry x="143.76064003710357" y="286.51560927942813" width="22.730021682416364" height="10.609466315586669" as="geometry" />
        </mxCell>
        <mxCell id="YyxFNso_PHiNrbnvG7HJ-157" value="" style="rounded=0;whiteSpace=wrap;html=1;fillColor=#dae8fc;strokeColor=#6c8ebf;container=0;rotation=90;fontFamily=Times New Roman;" vertex="1" parent="YyxFNso_PHiNrbnvG7HJ-10">
          <mxGeometry x="164.3826355151023" y="315.5362887476703" width="22.730021682416364" height="10.609466315586669" as="geometry" />
        </mxCell>
        <mxCell id="YyxFNso_PHiNrbnvG7HJ-158" value="" style="rounded=0;whiteSpace=wrap;html=1;fillColor=#dae8fc;strokeColor=#6c8ebf;container=0;rotation=90;fontFamily=Times New Roman;" vertex="1" parent="YyxFNso_PHiNrbnvG7HJ-10">
          <mxGeometry x="154.45352658125103" y="315.5362887476703" width="22.730021682416364" height="10.609466315586669" as="geometry" />
        </mxCell>
        <mxCell id="YyxFNso_PHiNrbnvG7HJ-159" value="" style="rounded=0;whiteSpace=wrap;html=1;fillColor=#dae8fc;strokeColor=#6c8ebf;container=0;rotation=90;fontFamily=Times New Roman;" vertex="1" parent="YyxFNso_PHiNrbnvG7HJ-10">
          <mxGeometry x="133.83153110325236" y="286.51560927942813" width="22.730021682416364" height="10.609466315586669" as="geometry" />
        </mxCell>
        <mxCell id="YyxFNso_PHiNrbnvG7HJ-160" value="" style="rounded=0;whiteSpace=wrap;html=1;fillColor=#dae8fc;strokeColor=#6c8ebf;container=0;rotation=90;fontFamily=Times New Roman;" vertex="1" parent="YyxFNso_PHiNrbnvG7HJ-10">
          <mxGeometry x="136.1228639341411" y="315.5362887476703" width="22.730021682416364" height="10.609466315586669" as="geometry" />
        </mxCell>
        <mxCell id="YyxFNso_PHiNrbnvG7HJ-161" value="" style="rounded=0;whiteSpace=wrap;html=1;fillColor=#dae8fc;strokeColor=#6c8ebf;container=0;rotation=90;fontFamily=Times New Roman;" vertex="1" parent="YyxFNso_PHiNrbnvG7HJ-10">
          <mxGeometry x="115.50086845614237" y="315.5362887476703" width="22.730021682416364" height="10.609466315586669" as="geometry" />
        </mxCell>
        <mxCell id="YyxFNso_PHiNrbnvG7HJ-162" value="" style="rounded=0;whiteSpace=wrap;html=1;fillColor=#dae8fc;strokeColor=#6c8ebf;container=0;rotation=90;fontFamily=Times New Roman;" vertex="1" parent="YyxFNso_PHiNrbnvG7HJ-10">
          <mxGeometry x="105.57175952229113" y="315.5362887476703" width="22.730021682416364" height="10.609466315586669" as="geometry" />
        </mxCell>
        <mxCell id="YyxFNso_PHiNrbnvG7HJ-163" value="" style="rounded=0;whiteSpace=wrap;html=1;fillColor=#dae8fc;strokeColor=#6c8ebf;container=0;rotation=90;fontFamily=Times New Roman;" vertex="1" parent="YyxFNso_PHiNrbnvG7HJ-10">
          <mxGeometry x="115.50086845614237" y="286.51560927942813" width="22.730021682416364" height="10.609466315586669" as="geometry" />
        </mxCell>
        <mxCell id="YyxFNso_PHiNrbnvG7HJ-164" value="" style="rounded=0;whiteSpace=wrap;html=1;fillColor=#dae8fc;strokeColor=#6c8ebf;container=0;rotation=90;fontFamily=Times New Roman;" vertex="1" parent="YyxFNso_PHiNrbnvG7HJ-10">
          <mxGeometry x="126.19375500028985" y="315.5362887476703" width="22.730021682416364" height="10.609466315586669" as="geometry" />
        </mxCell>
        <mxCell id="YyxFNso_PHiNrbnvG7HJ-165" value="" style="rounded=0;whiteSpace=wrap;html=1;fillColor=#f8cecc;strokeColor=#b85450;container=0;rotation=90;fontFamily=Times New Roman;" vertex="1" parent="YyxFNso_PHiNrbnvG7HJ-10">
          <mxGeometry x="94.87887297814365" y="315.5362887476703" width="22.730021682416364" height="10.609466315586669" as="geometry" />
        </mxCell>
        <mxCell id="YyxFNso_PHiNrbnvG7HJ-166" value="" style="rounded=0;whiteSpace=wrap;html=1;fillColor=#dae8fc;strokeColor=#6c8ebf;container=0;rotation=90;fontFamily=Times New Roman;" vertex="1" parent="YyxFNso_PHiNrbnvG7HJ-10">
          <mxGeometry x="105.57175952229113" y="286.51560927942813" width="22.730021682416364" height="10.609466315586669" as="geometry" />
        </mxCell>
        <mxCell id="YyxFNso_PHiNrbnvG7HJ-167" value="" style="rounded=1;whiteSpace=wrap;html=1;fillColor=none;strokeWidth=2;glass=0;shadow=1;dashed=1;rotation=90;container=0;fontFamily=Times New Roman;" vertex="1" parent="YyxFNso_PHiNrbnvG7HJ-10">
          <mxGeometry x="90.29620731636615" y="310.8302326176851" width="32.04047075192765" height="19.02031019202363" as="geometry" />
        </mxCell>
        <mxCell id="YyxFNso_PHiNrbnvG7HJ-168" value="" style="rounded=1;whiteSpace=wrap;html=1;fillColor=none;strokeWidth=2;glass=0;shadow=1;dashed=1;rotation=90;container=0;fontFamily=Times New Roman;" vertex="1" parent="YyxFNso_PHiNrbnvG7HJ-10">
          <mxGeometry x="100.22531625021739" y="340.63525477425816" width="32.04047075192765" height="19.02031019202363" as="geometry" />
        </mxCell>
        <mxCell id="YyxFNso_PHiNrbnvG7HJ-169" value="" style="rounded=1;whiteSpace=wrap;html=1;fillColor=none;dashed=1;dashPattern=1 4;strokeColor=#336600;strokeWidth=2;fontFamily=Times New Roman;" vertex="1" parent="YyxFNso_PHiNrbnvG7HJ-10">
          <mxGeometry y="229.326539855499" width="389.32" height="253" as="geometry" />
        </mxCell>
        <mxCell id="YyxFNso_PHiNrbnvG7HJ-170" value="&lt;font style=&quot;font-size: 22px;&quot; color=&quot;#1a1a1a&quot;&gt;SA&lt;/font&gt;" style="text;html=1;align=center;verticalAlign=middle;whiteSpace=wrap;rounded=0;fontFamily=Times New Roman;" vertex="1" parent="YyxFNso_PHiNrbnvG7HJ-10">
          <mxGeometry x="8.600000000000001" y="235.326539855499" width="97.72" height="35" as="geometry" />
        </mxCell>
        <mxCell id="YyxFNso_PHiNrbnvG7HJ-171" value="&lt;font style=&quot;font-size: 21px;&quot;&gt;K-means/&lt;/font&gt;&lt;div&gt;&lt;font style=&quot;font-size: 21px;&quot;&gt;Hilbert&lt;/font&gt;&lt;/div&gt;" style="text;html=1;align=center;verticalAlign=middle;whiteSpace=wrap;rounded=0;fontFamily=Times New Roman;" vertex="1" parent="YyxFNso_PHiNrbnvG7HJ-10">
          <mxGeometry x="4.93" y="71.27653985549898" width="93" height="30" as="geometry" />
        </mxCell>
        <mxCell id="YyxFNso_PHiNrbnvG7HJ-172" value="&lt;font style=&quot;font-size: 26px;&quot;&gt;OptimalOper&lt;/font&gt;" style="text;html=1;align=center;verticalAlign=middle;whiteSpace=wrap;rounded=0;fontFamily=Times New Roman;" vertex="1" parent="1">
          <mxGeometry x="713" y="246.96000000000004" width="113.1" height="42" as="geometry" />
        </mxCell>
        <mxCell id="YyxFNso_PHiNrbnvG7HJ-173" style="edgeStyle=orthogonalEdgeStyle;rounded=0;orthogonalLoop=1;jettySize=auto;html=1;exitX=0.5;exitY=1;exitDx=0;exitDy=0;fontFamily=宋体;" edge="1" parent="1" source="YyxFNso_PHiNrbnvG7HJ-3" target="YyxFNso_PHiNrbnvG7HJ-174">
          <mxGeometry relative="1" as="geometry" />
        </mxCell>
        <mxCell id="YyxFNso_PHiNrbnvG7HJ-174" value="" style="rounded=1;whiteSpace=wrap;html=1;fontFamily=宋体;" vertex="1" parent="1">
          <mxGeometry x="146.63" y="857" width="576" height="60" as="geometry" />
        </mxCell>
        <mxCell id="YyxFNso_PHiNrbnvG7HJ-175" value="&lt;font style=&quot;font-size: 22px;&quot;&gt;Select&lt;/font&gt;" style="text;html=1;align=center;verticalAlign=middle;whiteSpace=wrap;rounded=0;fontFamily=Times New Roman;" vertex="1" parent="1">
          <mxGeometry x="471" y="320.39" width="93" height="30" as="geometry" />
        </mxCell>
        <mxCell id="YyxFNso_PHiNrbnvG7HJ-176" value="&lt;font style=&quot;font-size: 22px;&quot;&gt;Insert&amp;amp;&lt;/font&gt;&lt;div&gt;&lt;font style=&quot;font-size: 22px;&quot;&gt;Remove&lt;/font&gt;&lt;/div&gt;" style="text;html=1;align=center;verticalAlign=middle;whiteSpace=wrap;rounded=0;fontFamily=Times New Roman;" vertex="1" parent="1">
          <mxGeometry x="471" y="573" width="93" height="30" as="geometry" />
        </mxCell>
        <mxCell id="YyxFNso_PHiNrbnvG7HJ-177" value="" style="group;fontFamily=Times New Roman;" vertex="1" connectable="0" parent="1">
          <mxGeometry x="526" y="310.6700000000001" width="334.25" height="198.58000000000004" as="geometry" />
        </mxCell>
        <mxCell id="YyxFNso_PHiNrbnvG7HJ-178" value="" style="rounded=1;whiteSpace=wrap;html=1;fillColor=#f5f5f5;strokeWidth=2;fontColor=#333333;strokeColor=#666666;rotation=90;container=0;fontFamily=Times New Roman;" vertex="1" parent="YyxFNso_PHiNrbnvG7HJ-177">
          <mxGeometry x="86.91999999999996" y="-48.75000000000006" width="198.58" height="296.08" as="geometry" />
        </mxCell>
        <mxCell id="YyxFNso_PHiNrbnvG7HJ-179" value="" style="ellipse;whiteSpace=wrap;html=1;aspect=fixed;fillColor=#B85450;strokeColor=#b85450;fontFamily=Times New Roman;" vertex="1" parent="YyxFNso_PHiNrbnvG7HJ-177">
          <mxGeometry x="33" y="97.32999999999993" width="10" height="10" as="geometry" />
        </mxCell>
        <mxCell id="YyxFNso_PHiNrbnvG7HJ-180" value="CLK" style="text;html=1;align=center;verticalAlign=middle;whiteSpace=wrap;rounded=0;fontFamily=Times New Roman;" vertex="1" parent="YyxFNso_PHiNrbnvG7HJ-177">
          <mxGeometry y="86.23999999999995" width="38" height="30" as="geometry" />
        </mxCell>
        <mxCell id="YyxFNso_PHiNrbnvG7HJ-181" value="" style="rounded=0;whiteSpace=wrap;html=1;fillColor=#f8cecc;strokeColor=#b85450;container=0;rotation=90;fontFamily=Times New Roman;" vertex="1" parent="YyxFNso_PHiNrbnvG7HJ-177">
          <mxGeometry x="43.0039758826598" y="29.328567208271693" width="22.730021682416364" height="10.609466315586669" as="geometry" />
        </mxCell>
        <mxCell id="YyxFNso_PHiNrbnvG7HJ-182" value="" style="rounded=0;whiteSpace=wrap;html=1;fillColor=#f8cecc;strokeColor=#b85450;container=0;rotation=90;fontFamily=Times New Roman;" vertex="1" parent="YyxFNso_PHiNrbnvG7HJ-177">
          <mxGeometry x="60.273975882659784" y="18.71856720827168" width="22.730021682416364" height="10.609466315586669" as="geometry" />
        </mxCell>
        <mxCell id="YyxFNso_PHiNrbnvG7HJ-183" value="" style="rounded=0;whiteSpace=wrap;html=1;fillColor=#f8cecc;strokeColor=#b85450;container=0;rotation=90;fontFamily=Times New Roman;" vertex="1" parent="YyxFNso_PHiNrbnvG7HJ-177">
          <mxGeometry x="60.273975882659784" y="42.32856720827169" width="22.730021682416364" height="10.609466315586669" as="geometry" />
        </mxCell>
        <mxCell id="YyxFNso_PHiNrbnvG7HJ-184" value="" style="rounded=0;whiteSpace=wrap;html=1;fillColor=#f8cecc;strokeColor=#b85450;container=0;rotation=90;fontFamily=Times New Roman;" vertex="1" parent="YyxFNso_PHiNrbnvG7HJ-177">
          <mxGeometry x="60.273975882659784" y="65.32856720827169" width="22.730021682416364" height="10.609466315586669" as="geometry" />
        </mxCell>
        <mxCell id="YyxFNso_PHiNrbnvG7HJ-185" value="" style="rounded=0;whiteSpace=wrap;html=1;fillColor=#f8cecc;strokeColor=#b85450;container=0;rotation=90;fontFamily=Times New Roman;" vertex="1" parent="YyxFNso_PHiNrbnvG7HJ-177">
          <mxGeometry x="76.0039758826598" y="8.108567208271666" width="22.730021682416364" height="10.609466315586669" as="geometry" />
        </mxCell>
        <mxCell id="YyxFNso_PHiNrbnvG7HJ-186" value="" style="rounded=0;whiteSpace=wrap;html=1;fillColor=#f8cecc;strokeColor=#b85450;container=0;rotation=90;fontFamily=Times New Roman;" vertex="1" parent="YyxFNso_PHiNrbnvG7HJ-177">
          <mxGeometry x="46.0039758826598" y="93.98856720827172" width="22.730021682416364" height="10.609466315586669" as="geometry" />
        </mxCell>
        <mxCell id="YyxFNso_PHiNrbnvG7HJ-187" value="" style="rounded=0;whiteSpace=wrap;html=1;fillColor=#f8cecc;strokeColor=#b85450;container=0;rotation=90;fontFamily=Times New Roman;" vertex="1" parent="YyxFNso_PHiNrbnvG7HJ-177">
          <mxGeometry x="76.0039758826598" y="98.71856720827168" width="22.730021682416364" height="10.609466315586669" as="geometry" />
        </mxCell>
        <mxCell id="YyxFNso_PHiNrbnvG7HJ-188" value="" style="rounded=0;whiteSpace=wrap;html=1;fillColor=#f8cecc;strokeColor=#b85450;container=0;rotation=90;fontFamily=Times New Roman;" vertex="1" parent="YyxFNso_PHiNrbnvG7HJ-177">
          <mxGeometry x="40.273975882659784" y="126.32856720827169" width="22.730021682416364" height="10.609466315586669" as="geometry" />
        </mxCell>
        <mxCell id="YyxFNso_PHiNrbnvG7HJ-189" value="" style="rounded=0;whiteSpace=wrap;html=1;fillColor=#f8cecc;strokeColor=#b85450;container=0;rotation=90;fontFamily=Times New Roman;" vertex="1" parent="YyxFNso_PHiNrbnvG7HJ-177">
          <mxGeometry x="65.73397588265982" y="133.3285672082717" width="22.730021682416364" height="10.609466315586669" as="geometry" />
        </mxCell>
        <mxCell id="YyxFNso_PHiNrbnvG7HJ-190" value="" style="rounded=0;whiteSpace=wrap;html=1;fillColor=#f8cecc;strokeColor=#b85450;container=0;rotation=90;fontFamily=Times New Roman;" vertex="1" parent="YyxFNso_PHiNrbnvG7HJ-177">
          <mxGeometry x="65.73397588265982" y="157.3285672082717" width="22.730021682416364" height="10.609466315586669" as="geometry" />
        </mxCell>
        <mxCell id="YyxFNso_PHiNrbnvG7HJ-191" value="" style="rounded=0;whiteSpace=wrap;html=1;fillColor=#f8cecc;strokeColor=#b85450;container=0;rotation=90;fontFamily=Times New Roman;" vertex="1" parent="YyxFNso_PHiNrbnvG7HJ-177">
          <mxGeometry x="91.0039758826598" y="133.3285672082717" width="22.730021682416364" height="10.609466315586669" as="geometry" />
        </mxCell>
        <mxCell id="YyxFNso_PHiNrbnvG7HJ-192" value="" style="rounded=0;whiteSpace=wrap;html=1;fillColor=#f8cecc;strokeColor=#b85450;container=0;rotation=90;fontFamily=Times New Roman;" vertex="1" parent="YyxFNso_PHiNrbnvG7HJ-177">
          <mxGeometry x="46.0039758826598" y="174.3285672082717" width="22.730021682416364" height="10.609466315586669" as="geometry" />
        </mxCell>
        <mxCell id="YyxFNso_PHiNrbnvG7HJ-193" value="" style="rounded=0;whiteSpace=wrap;html=1;fillColor=#f8cecc;strokeColor=#b85450;container=0;rotation=90;fontFamily=Times New Roman;" vertex="1" parent="YyxFNso_PHiNrbnvG7HJ-177">
          <mxGeometry x="83.0039758826598" y="163.71856720827168" width="22.730021682416364" height="10.609466315586669" as="geometry" />
        </mxCell>
        <mxCell id="YyxFNso_PHiNrbnvG7HJ-194" value="" style="rounded=0;whiteSpace=wrap;html=1;fillColor=#f8cecc;strokeColor=#b85450;container=0;rotation=90;fontFamily=Times New Roman;" vertex="1" parent="YyxFNso_PHiNrbnvG7HJ-177">
          <mxGeometry x="91.0039758826598" y="52.93856720827171" width="22.730021682416364" height="10.609466315586669" as="geometry" />
        </mxCell>
        <mxCell id="YyxFNso_PHiNrbnvG7HJ-195" value="" style="rounded=0;whiteSpace=wrap;html=1;fillColor=#f8cecc;strokeColor=#b85450;container=0;rotation=90;fontFamily=Times New Roman;" vertex="1" parent="YyxFNso_PHiNrbnvG7HJ-177">
          <mxGeometry x="40.273975882659784" y="69.9385672082717" width="22.730021682416364" height="10.609466315586669" as="geometry" />
        </mxCell>
        <mxCell id="YyxFNso_PHiNrbnvG7HJ-196" value="" style="rounded=0;whiteSpace=wrap;html=1;fillColor=#f8cecc;strokeColor=#b85450;container=0;rotation=90;fontFamily=Times New Roman;" vertex="1" parent="YyxFNso_PHiNrbnvG7HJ-177">
          <mxGeometry x="91.0039758826598" y="75.93856720827165" width="22.730021682416364" height="10.609466315586669" as="geometry" />
        </mxCell>
        <mxCell id="YyxFNso_PHiNrbnvG7HJ-197" value="" style="rounded=0;whiteSpace=wrap;html=1;fillColor=#f8cecc;strokeColor=#b85450;container=0;rotation=90;fontFamily=Times New Roman;" vertex="1" parent="YyxFNso_PHiNrbnvG7HJ-177">
          <mxGeometry x="105.73397588265982" y="13.328567208271636" width="22.730021682416364" height="10.609466315586669" as="geometry" />
        </mxCell>
        <mxCell id="YyxFNso_PHiNrbnvG7HJ-198" value="" style="rounded=0;whiteSpace=wrap;html=1;fillColor=#f8cecc;strokeColor=#b85450;container=0;rotation=90;fontFamily=Times New Roman;" vertex="1" parent="YyxFNso_PHiNrbnvG7HJ-177">
          <mxGeometry x="111.0039758826598" y="95.93856720827165" width="22.730021682416364" height="10.609466315586669" as="geometry" />
        </mxCell>
        <mxCell id="YyxFNso_PHiNrbnvG7HJ-199" value="" style="rounded=0;whiteSpace=wrap;html=1;fillColor=#f8cecc;strokeColor=#b85450;container=0;rotation=90;fontFamily=Times New Roman;" vertex="1" parent="YyxFNso_PHiNrbnvG7HJ-177">
          <mxGeometry x="117.0039758826598" y="13.328567208271636" width="22.730021682416364" height="10.609466315586669" as="geometry" />
        </mxCell>
        <mxCell id="YyxFNso_PHiNrbnvG7HJ-200" value="" style="rounded=0;whiteSpace=wrap;html=1;fillColor=#f8cecc;strokeColor=#b85450;container=0;rotation=90;fontFamily=Times New Roman;" vertex="1" parent="YyxFNso_PHiNrbnvG7HJ-177">
          <mxGeometry x="128.46397588265984" y="13.328567208271636" width="22.730021682416364" height="10.609466315586669" as="geometry" />
        </mxCell>
        <mxCell id="YyxFNso_PHiNrbnvG7HJ-201" value="" style="rounded=0;whiteSpace=wrap;html=1;fillColor=#f8cecc;strokeColor=#b85450;container=0;rotation=90;fontFamily=Times New Roman;" vertex="1" parent="YyxFNso_PHiNrbnvG7HJ-177">
          <mxGeometry x="128.46397588265984" y="49.328567208271636" width="22.730021682416364" height="10.609466315586669" as="geometry" />
        </mxCell>
        <mxCell id="YyxFNso_PHiNrbnvG7HJ-202" value="" style="rounded=0;whiteSpace=wrap;html=1;fillColor=#f8cecc;strokeColor=#b85450;container=0;rotation=90;fontFamily=Times New Roman;" vertex="1" parent="YyxFNso_PHiNrbnvG7HJ-177">
          <mxGeometry x="105.73397588265982" y="179.32856720827164" width="22.730021682416364" height="10.609466315586669" as="geometry" />
        </mxCell>
        <mxCell id="YyxFNso_PHiNrbnvG7HJ-203" value="" style="rounded=0;whiteSpace=wrap;html=1;fillColor=#f8cecc;strokeColor=#b85450;container=0;rotation=90;fontFamily=Times New Roman;" vertex="1" parent="YyxFNso_PHiNrbnvG7HJ-177">
          <mxGeometry x="133.73397588265982" y="136.93856720827165" width="22.730021682416364" height="10.609466315586669" as="geometry" />
        </mxCell>
        <mxCell id="YyxFNso_PHiNrbnvG7HJ-204" value="" style="rounded=0;whiteSpace=wrap;html=1;fillColor=#f8cecc;strokeColor=#b85450;container=0;rotation=90;fontFamily=Times New Roman;" vertex="1" parent="YyxFNso_PHiNrbnvG7HJ-177">
          <mxGeometry x="128.46397588265984" y="72.32856720827164" width="22.730021682416364" height="10.609466315586669" as="geometry" />
        </mxCell>
        <mxCell id="YyxFNso_PHiNrbnvG7HJ-205" value="" style="rounded=0;whiteSpace=wrap;html=1;fillColor=#f8cecc;strokeColor=#b85450;container=0;rotation=90;fontFamily=Times New Roman;" vertex="1" parent="YyxFNso_PHiNrbnvG7HJ-177">
          <mxGeometry x="139.73397588265982" y="179.32856720827164" width="22.730021682416364" height="10.609466315586669" as="geometry" />
        </mxCell>
        <mxCell id="YyxFNso_PHiNrbnvG7HJ-206" value="" style="rounded=0;whiteSpace=wrap;html=1;fillColor=#f8cecc;strokeColor=#b85450;container=0;rotation=90;fontFamily=Times New Roman;" vertex="1" parent="YyxFNso_PHiNrbnvG7HJ-177">
          <mxGeometry x="151.19397588265974" y="8.108567208271666" width="22.730021682416364" height="10.609466315586669" as="geometry" />
        </mxCell>
        <mxCell id="YyxFNso_PHiNrbnvG7HJ-207" value="" style="rounded=0;whiteSpace=wrap;html=1;fillColor=#f8cecc;strokeColor=#b85450;container=0;rotation=90;fontFamily=Times New Roman;" vertex="1" parent="YyxFNso_PHiNrbnvG7HJ-177">
          <mxGeometry x="151.19397588265974" y="31.718567208271622" width="22.730021682416364" height="10.609466315586669" as="geometry" />
        </mxCell>
        <mxCell id="YyxFNso_PHiNrbnvG7HJ-208" value="" style="rounded=0;whiteSpace=wrap;html=1;fillColor=#f8cecc;strokeColor=#b85450;container=0;rotation=90;fontFamily=Times New Roman;" vertex="1" parent="YyxFNso_PHiNrbnvG7HJ-177">
          <mxGeometry x="151.19397588265974" y="54.71856720827162" width="22.730021682416364" height="10.609466315586669" as="geometry" />
        </mxCell>
        <mxCell id="YyxFNso_PHiNrbnvG7HJ-209" value="" style="rounded=0;whiteSpace=wrap;html=1;fillColor=#f8cecc;strokeColor=#b85450;container=0;rotation=90;fontFamily=Times New Roman;" vertex="1" parent="YyxFNso_PHiNrbnvG7HJ-177">
          <mxGeometry x="180.0039758826598" y="13.328567208271636" width="22.730021682416364" height="10.609466315586669" as="geometry" />
        </mxCell>
        <mxCell id="YyxFNso_PHiNrbnvG7HJ-210" value="" style="rounded=0;whiteSpace=wrap;html=1;fillColor=#f8cecc;strokeColor=#b85450;container=0;rotation=90;fontFamily=Times New Roman;" vertex="1" parent="YyxFNso_PHiNrbnvG7HJ-177">
          <mxGeometry x="154.0039758826598" y="95.93856720827165" width="22.730021682416364" height="10.609466315586669" as="geometry" />
        </mxCell>
        <mxCell id="YyxFNso_PHiNrbnvG7HJ-211" value="" style="rounded=0;whiteSpace=wrap;html=1;fillColor=#f8cecc;strokeColor=#b85450;container=0;rotation=90;fontFamily=Times New Roman;" vertex="1" parent="YyxFNso_PHiNrbnvG7HJ-177">
          <mxGeometry x="164.27397588265978" y="162.71856720827162" width="22.730021682416364" height="10.609466315586669" as="geometry" />
        </mxCell>
        <mxCell id="YyxFNso_PHiNrbnvG7HJ-212" value="" style="rounded=0;whiteSpace=wrap;html=1;fillColor=#f8cecc;strokeColor=#b85450;container=0;rotation=90;fontFamily=Times New Roman;" vertex="1" parent="YyxFNso_PHiNrbnvG7HJ-177">
          <mxGeometry x="173.92397588265976" y="75.93856720827165" width="22.730021682416364" height="10.609466315586669" as="geometry" />
        </mxCell>
        <mxCell id="YyxFNso_PHiNrbnvG7HJ-213" value="" style="rounded=0;whiteSpace=wrap;html=1;fillColor=#f8cecc;strokeColor=#b85450;container=0;rotation=90;fontFamily=Times New Roman;" vertex="1" parent="YyxFNso_PHiNrbnvG7HJ-177">
          <mxGeometry x="173.92397588265976" y="131.32856720827164" width="22.730021682416364" height="10.609466315586669" as="geometry" />
        </mxCell>
        <mxCell id="YyxFNso_PHiNrbnvG7HJ-214" value="" style="rounded=0;whiteSpace=wrap;html=1;fillColor=#f8cecc;strokeColor=#b85450;container=0;rotation=90;fontFamily=Times New Roman;" vertex="1" parent="YyxFNso_PHiNrbnvG7HJ-177">
          <mxGeometry x="196.65397588265978" y="95.93856720827165" width="22.730021682416364" height="10.609466315586669" as="geometry" />
        </mxCell>
        <mxCell id="YyxFNso_PHiNrbnvG7HJ-215" value="" style="rounded=0;whiteSpace=wrap;html=1;fillColor=#f8cecc;strokeColor=#b85450;container=0;rotation=90;fontFamily=Times New Roman;" vertex="1" parent="YyxFNso_PHiNrbnvG7HJ-177">
          <mxGeometry x="196.65397588265978" y="46.32856720827169" width="22.730021682416364" height="10.609466315586669" as="geometry" />
        </mxCell>
        <mxCell id="YyxFNso_PHiNrbnvG7HJ-216" value="" style="rounded=0;whiteSpace=wrap;html=1;fillColor=#f8cecc;strokeColor=#b85450;container=0;rotation=90;fontFamily=Times New Roman;" vertex="1" parent="YyxFNso_PHiNrbnvG7HJ-177">
          <mxGeometry x="210.0039758826598" y="16.328567208271693" width="22.730021682416364" height="10.609466315586669" as="geometry" />
        </mxCell>
        <mxCell id="YyxFNso_PHiNrbnvG7HJ-217" value="" style="rounded=0;whiteSpace=wrap;html=1;fillColor=#f8cecc;strokeColor=#b85450;container=0;rotation=90;fontFamily=Times New Roman;" vertex="1" parent="YyxFNso_PHiNrbnvG7HJ-177">
          <mxGeometry x="210.0039758826598" y="136.93856720827165" width="22.730021682416364" height="10.609466315586669" as="geometry" />
        </mxCell>
        <mxCell id="YyxFNso_PHiNrbnvG7HJ-218" value="" style="rounded=0;whiteSpace=wrap;html=1;fillColor=#f8cecc;strokeColor=#b85450;container=0;rotation=90;fontFamily=Times New Roman;" vertex="1" parent="YyxFNso_PHiNrbnvG7HJ-177">
          <mxGeometry x="206.73397588265982" y="46.32856720827169" width="22.730021682416364" height="10.609466315586669" as="geometry" />
        </mxCell>
        <mxCell id="YyxFNso_PHiNrbnvG7HJ-219" value="" style="rounded=0;whiteSpace=wrap;html=1;fillColor=#f8cecc;strokeColor=#b85450;container=0;rotation=90;fontFamily=Times New Roman;" vertex="1" parent="YyxFNso_PHiNrbnvG7HJ-177">
          <mxGeometry x="210.0039758826598" y="157.3285672082717" width="22.730021682416364" height="10.609466315586669" as="geometry" />
        </mxCell>
        <mxCell id="YyxFNso_PHiNrbnvG7HJ-220" value="" style="rounded=0;whiteSpace=wrap;html=1;fillColor=#f8cecc;strokeColor=#b85450;container=0;rotation=90;fontFamily=Times New Roman;" vertex="1" parent="YyxFNso_PHiNrbnvG7HJ-177">
          <mxGeometry x="223.0039758826598" y="103.49856720827165" width="22.730021682416364" height="10.609466315586669" as="geometry" />
        </mxCell>
        <mxCell id="YyxFNso_PHiNrbnvG7HJ-221" value="" style="rounded=0;whiteSpace=wrap;html=1;fillColor=#f8cecc;strokeColor=#b85450;container=0;rotation=90;fontFamily=Times New Roman;" vertex="1" parent="YyxFNso_PHiNrbnvG7HJ-177">
          <mxGeometry x="223.0039758826598" y="179.3285672082717" width="22.730021682416364" height="10.609466315586669" as="geometry" />
        </mxCell>
        <mxCell id="YyxFNso_PHiNrbnvG7HJ-222" value="" style="rounded=0;whiteSpace=wrap;html=1;fillColor=#f8cecc;strokeColor=#b85450;container=0;rotation=90;fontFamily=Times New Roman;" vertex="1" parent="YyxFNso_PHiNrbnvG7HJ-177">
          <mxGeometry x="235.0039758826598" y="179.3285672082717" width="22.730021682416364" height="10.609466315586669" as="geometry" />
        </mxCell>
        <mxCell id="YyxFNso_PHiNrbnvG7HJ-223" value="" style="rounded=0;whiteSpace=wrap;html=1;fillColor=#f8cecc;strokeColor=#b85450;container=0;rotation=90;fontFamily=Times New Roman;" vertex="1" parent="YyxFNso_PHiNrbnvG7HJ-177">
          <mxGeometry x="243.0039758826598" y="128.3285672082717" width="22.730021682416364" height="10.609466315586669" as="geometry" />
        </mxCell>
        <mxCell id="YyxFNso_PHiNrbnvG7HJ-224" value="" style="rounded=0;whiteSpace=wrap;html=1;fillColor=#d5e8d4;strokeColor=#82b366;container=0;rotation=90;fontFamily=Times New Roman;" vertex="1" parent="YyxFNso_PHiNrbnvG7HJ-177">
          <mxGeometry x="290.31397588265986" y="18.328567208271693" width="22.730021682416364" height="10.609466315586669" as="geometry" />
        </mxCell>
        <mxCell id="YyxFNso_PHiNrbnvG7HJ-225" value="" style="rounded=0;whiteSpace=wrap;html=1;fillColor=#f8cecc;strokeColor=#b85450;container=0;rotation=90;fontFamily=Times New Roman;" vertex="1" parent="YyxFNso_PHiNrbnvG7HJ-177">
          <mxGeometry x="184.0039758826598" y="174.3285672082717" width="22.730021682416364" height="10.609466315586669" as="geometry" />
        </mxCell>
        <mxCell id="YyxFNso_PHiNrbnvG7HJ-226" value="" style="rounded=0;whiteSpace=wrap;html=1;fillColor=#f8cecc;strokeColor=#b85450;container=0;rotation=90;fontFamily=Times New Roman;" vertex="1" parent="YyxFNso_PHiNrbnvG7HJ-177">
          <mxGeometry x="226.73397588265982" y="51.32856720827169" width="22.730021682416364" height="10.609466315586669" as="geometry" />
        </mxCell>
        <mxCell id="YyxFNso_PHiNrbnvG7HJ-227" value="" style="rounded=0;whiteSpace=wrap;html=1;fillColor=#f8cecc;strokeColor=#b85450;container=0;rotation=90;fontFamily=Times New Roman;" vertex="1" parent="YyxFNso_PHiNrbnvG7HJ-177">
          <mxGeometry x="260.0039758826598" y="116.10856720827172" width="22.730021682416364" height="10.609466315586669" as="geometry" />
        </mxCell>
        <mxCell id="YyxFNso_PHiNrbnvG7HJ-228" value="" style="rounded=0;whiteSpace=wrap;html=1;fillColor=#f8cecc;strokeColor=#b85450;container=0;rotation=90;fontFamily=Times New Roman;" vertex="1" parent="YyxFNso_PHiNrbnvG7HJ-177">
          <mxGeometry x="286.0039758826598" y="133.32856720827175" width="22.730021682416364" height="10.609466315586669" as="geometry" />
        </mxCell>
        <mxCell id="YyxFNso_PHiNrbnvG7HJ-229" value="" style="rounded=0;whiteSpace=wrap;html=1;fillColor=#f8cecc;strokeColor=#b85450;container=0;rotation=90;fontFamily=Times New Roman;" vertex="1" parent="YyxFNso_PHiNrbnvG7HJ-177">
          <mxGeometry x="243.0039758826598" y="154.10856720827172" width="22.730021682416364" height="10.609466315586669" as="geometry" />
        </mxCell>
        <mxCell id="YyxFNso_PHiNrbnvG7HJ-230" value="" style="rounded=0;whiteSpace=wrap;html=1;fillColor=#d5e8d4;strokeColor=#82b366;container=0;rotation=90;fontFamily=Times New Roman;" vertex="1" parent="YyxFNso_PHiNrbnvG7HJ-177">
          <mxGeometry x="299.0039758826598" y="54.32856720827169" width="22.730021682416364" height="10.609466315586669" as="geometry" />
        </mxCell>
        <mxCell id="YyxFNso_PHiNrbnvG7HJ-231" value="" style="rounded=0;whiteSpace=wrap;html=1;fillColor=#d5e8d4;strokeColor=#82b366;container=0;rotation=90;fontFamily=Times New Roman;" vertex="1" parent="YyxFNso_PHiNrbnvG7HJ-177">
          <mxGeometry x="282.1039758826598" y="47.32856720827169" width="22.730021682416364" height="10.609466315586669" as="geometry" />
        </mxCell>
        <mxCell id="YyxFNso_PHiNrbnvG7HJ-232" value="" style="rounded=0;whiteSpace=wrap;html=1;fillColor=#d5e8d4;strokeColor=#82b366;container=0;rotation=90;fontFamily=Times New Roman;" vertex="1" parent="YyxFNso_PHiNrbnvG7HJ-177">
          <mxGeometry x="267.58397588265984" y="21.328567208271693" width="22.730021682416364" height="10.609466315586669" as="geometry" />
        </mxCell>
        <mxCell id="YyxFNso_PHiNrbnvG7HJ-233" value="" style="rounded=0;whiteSpace=wrap;html=1;fillColor=#d5e8d4;strokeColor=#82b366;container=0;rotation=90;fontFamily=Times New Roman;" vertex="1" parent="YyxFNso_PHiNrbnvG7HJ-177">
          <mxGeometry x="267.58397588265984" y="54.32856720827169" width="22.730021682416364" height="10.609466315586669" as="geometry" />
        </mxCell>
        <mxCell id="YyxFNso_PHiNrbnvG7HJ-234" value="" style="rounded=0;whiteSpace=wrap;html=1;fillColor=#d5e8d4;strokeColor=#82b366;container=0;rotation=90;fontFamily=Times New Roman;" vertex="1" parent="YyxFNso_PHiNrbnvG7HJ-177">
          <mxGeometry x="257.0039758826598" y="13.108567208271666" width="22.730021682416364" height="10.609466315586669" as="geometry" />
        </mxCell>
        <mxCell id="YyxFNso_PHiNrbnvG7HJ-235" value="" style="rounded=0;whiteSpace=wrap;html=1;fillColor=#d5e8d4;strokeColor=#82b366;container=0;rotation=90;fontFamily=Times New Roman;" vertex="1" parent="YyxFNso_PHiNrbnvG7HJ-177">
          <mxGeometry x="253.73397588265982" y="61.93856720827165" width="22.730021682416364" height="10.609466315586669" as="geometry" />
        </mxCell>
        <mxCell id="YyxFNso_PHiNrbnvG7HJ-236" value="" style="rounded=1;whiteSpace=wrap;html=1;fillColor=none;glass=1;dashed=1;strokeWidth=2;shadow=1;fontFamily=Times New Roman;" vertex="1" parent="YyxFNso_PHiNrbnvG7HJ-177">
          <mxGeometry x="289.30999999999995" y="8.229999999999905" width="25.69" height="30.1" as="geometry" />
        </mxCell>
        <mxCell id="YyxFNso_PHiNrbnvG7HJ-237" value="" style="rounded=0;whiteSpace=wrap;html=1;fillColor=#d5e8d4;strokeColor=#82b366;container=0;rotation=90;fontFamily=Times New Roman;" vertex="1" parent="YyxFNso_PHiNrbnvG7HJ-177">
          <mxGeometry x="282.1039758826598" y="77.9385672082717" width="22.730021682416364" height="10.609466315586669" as="geometry" />
        </mxCell>
        <mxCell id="YyxFNso_PHiNrbnvG7HJ-238" value="" style="group;fillColor=none;fontFamily=Times New Roman;" vertex="1" connectable="0" parent="1">
          <mxGeometry x="526" y="557.0000000000001" width="334.25" height="198.58000000000004" as="geometry" />
        </mxCell>
        <mxCell id="YyxFNso_PHiNrbnvG7HJ-239" value="" style="rounded=1;whiteSpace=wrap;html=1;fillColor=#f5f5f5;strokeWidth=2;fontColor=#333333;strokeColor=#666666;rotation=90;container=0;fontFamily=Times New Roman;" vertex="1" parent="YyxFNso_PHiNrbnvG7HJ-238">
          <mxGeometry x="86.91999999999996" y="-48.75000000000006" width="198.58" height="296.08" as="geometry" />
        </mxCell>
        <mxCell id="YyxFNso_PHiNrbnvG7HJ-240" value="" style="ellipse;whiteSpace=wrap;html=1;aspect=fixed;fillColor=#B85450;strokeColor=#b85450;fontFamily=Times New Roman;" vertex="1" parent="YyxFNso_PHiNrbnvG7HJ-238">
          <mxGeometry x="33" y="97.32999999999993" width="10" height="10" as="geometry" />
        </mxCell>
        <mxCell id="YyxFNso_PHiNrbnvG7HJ-241" value="CLK" style="text;html=1;align=center;verticalAlign=middle;whiteSpace=wrap;rounded=0;fontFamily=Times New Roman;" vertex="1" parent="YyxFNso_PHiNrbnvG7HJ-238">
          <mxGeometry y="86.23999999999995" width="38" height="30" as="geometry" />
        </mxCell>
        <mxCell id="YyxFNso_PHiNrbnvG7HJ-242" value="" style="rounded=0;whiteSpace=wrap;html=1;fillColor=#f8cecc;strokeColor=#b85450;container=0;rotation=90;fontFamily=Times New Roman;" vertex="1" parent="YyxFNso_PHiNrbnvG7HJ-238">
          <mxGeometry x="43.0039758826598" y="29.328567208271693" width="22.730021682416364" height="10.609466315586669" as="geometry" />
        </mxCell>
        <mxCell id="YyxFNso_PHiNrbnvG7HJ-243" value="" style="rounded=0;whiteSpace=wrap;html=1;fillColor=#f8cecc;strokeColor=#b85450;container=0;rotation=90;fontFamily=Times New Roman;" vertex="1" parent="YyxFNso_PHiNrbnvG7HJ-238">
          <mxGeometry x="60.273975882659784" y="18.71856720827168" width="22.730021682416364" height="10.609466315586669" as="geometry" />
        </mxCell>
        <mxCell id="YyxFNso_PHiNrbnvG7HJ-244" value="" style="rounded=0;whiteSpace=wrap;html=1;fillColor=#f8cecc;strokeColor=#b85450;container=0;rotation=90;fontFamily=Times New Roman;" vertex="1" parent="YyxFNso_PHiNrbnvG7HJ-238">
          <mxGeometry x="60.273975882659784" y="42.32856720827169" width="22.730021682416364" height="10.609466315586669" as="geometry" />
        </mxCell>
        <mxCell id="YyxFNso_PHiNrbnvG7HJ-245" value="" style="rounded=0;whiteSpace=wrap;html=1;fillColor=#f8cecc;strokeColor=#b85450;container=0;rotation=90;fontFamily=Times New Roman;" vertex="1" parent="YyxFNso_PHiNrbnvG7HJ-238">
          <mxGeometry x="60.273975882659784" y="65.32856720827169" width="22.730021682416364" height="10.609466315586669" as="geometry" />
        </mxCell>
        <mxCell id="YyxFNso_PHiNrbnvG7HJ-246" value="" style="rounded=0;whiteSpace=wrap;html=1;fillColor=#f8cecc;strokeColor=#b85450;container=0;rotation=90;fontFamily=Times New Roman;" vertex="1" parent="YyxFNso_PHiNrbnvG7HJ-238">
          <mxGeometry x="76.0039758826598" y="8.108567208271666" width="22.730021682416364" height="10.609466315586669" as="geometry" />
        </mxCell>
        <mxCell id="YyxFNso_PHiNrbnvG7HJ-247" value="" style="rounded=0;whiteSpace=wrap;html=1;fillColor=#f8cecc;strokeColor=#b85450;container=0;rotation=90;fontFamily=Times New Roman;" vertex="1" parent="YyxFNso_PHiNrbnvG7HJ-238">
          <mxGeometry x="46.0039758826598" y="93.98856720827172" width="22.730021682416364" height="10.609466315586669" as="geometry" />
        </mxCell>
        <mxCell id="YyxFNso_PHiNrbnvG7HJ-248" value="" style="rounded=0;whiteSpace=wrap;html=1;fillColor=#f8cecc;strokeColor=#b85450;container=0;rotation=90;fontFamily=Times New Roman;" vertex="1" parent="YyxFNso_PHiNrbnvG7HJ-238">
          <mxGeometry x="76.0039758826598" y="98.71856720827168" width="22.730021682416364" height="10.609466315586669" as="geometry" />
        </mxCell>
        <mxCell id="YyxFNso_PHiNrbnvG7HJ-249" value="" style="rounded=0;whiteSpace=wrap;html=1;fillColor=#f8cecc;strokeColor=#b85450;container=0;rotation=90;fontFamily=Times New Roman;" vertex="1" parent="YyxFNso_PHiNrbnvG7HJ-238">
          <mxGeometry x="40.273975882659784" y="126.32856720827169" width="22.730021682416364" height="10.609466315586669" as="geometry" />
        </mxCell>
        <mxCell id="YyxFNso_PHiNrbnvG7HJ-250" value="" style="rounded=0;whiteSpace=wrap;html=1;fillColor=#f8cecc;strokeColor=#b85450;container=0;rotation=90;fontFamily=Times New Roman;" vertex="1" parent="YyxFNso_PHiNrbnvG7HJ-238">
          <mxGeometry x="65.73397588265982" y="133.3285672082717" width="22.730021682416364" height="10.609466315586669" as="geometry" />
        </mxCell>
        <mxCell id="YyxFNso_PHiNrbnvG7HJ-251" value="" style="rounded=0;whiteSpace=wrap;html=1;fillColor=#f8cecc;strokeColor=#b85450;container=0;rotation=90;fontFamily=Times New Roman;" vertex="1" parent="YyxFNso_PHiNrbnvG7HJ-238">
          <mxGeometry x="65.73397588265982" y="157.3285672082717" width="22.730021682416364" height="10.609466315586669" as="geometry" />
        </mxCell>
        <mxCell id="YyxFNso_PHiNrbnvG7HJ-252" value="" style="rounded=0;whiteSpace=wrap;html=1;fillColor=#f8cecc;strokeColor=#b85450;container=0;rotation=90;fontFamily=Times New Roman;" vertex="1" parent="YyxFNso_PHiNrbnvG7HJ-238">
          <mxGeometry x="91.0039758826598" y="133.3285672082717" width="22.730021682416364" height="10.609466315586669" as="geometry" />
        </mxCell>
        <mxCell id="YyxFNso_PHiNrbnvG7HJ-253" value="" style="rounded=0;whiteSpace=wrap;html=1;fillColor=#f8cecc;strokeColor=#b85450;container=0;rotation=90;fontFamily=Times New Roman;" vertex="1" parent="YyxFNso_PHiNrbnvG7HJ-238">
          <mxGeometry x="46.0039758826598" y="174.3285672082717" width="22.730021682416364" height="10.609466315586669" as="geometry" />
        </mxCell>
        <mxCell id="YyxFNso_PHiNrbnvG7HJ-254" value="" style="rounded=0;whiteSpace=wrap;html=1;fillColor=#f8cecc;strokeColor=#b85450;container=0;rotation=90;fontFamily=Times New Roman;" vertex="1" parent="YyxFNso_PHiNrbnvG7HJ-238">
          <mxGeometry x="83.0039758826598" y="163.71856720827168" width="22.730021682416364" height="10.609466315586669" as="geometry" />
        </mxCell>
        <mxCell id="YyxFNso_PHiNrbnvG7HJ-255" value="" style="rounded=0;whiteSpace=wrap;html=1;fillColor=#f8cecc;strokeColor=#b85450;container=0;rotation=90;fontFamily=Times New Roman;" vertex="1" parent="YyxFNso_PHiNrbnvG7HJ-238">
          <mxGeometry x="91.0039758826598" y="52.93856720827171" width="22.730021682416364" height="10.609466315586669" as="geometry" />
        </mxCell>
        <mxCell id="YyxFNso_PHiNrbnvG7HJ-256" value="" style="rounded=0;whiteSpace=wrap;html=1;fillColor=#f8cecc;strokeColor=#b85450;container=0;rotation=90;fontFamily=Times New Roman;" vertex="1" parent="YyxFNso_PHiNrbnvG7HJ-238">
          <mxGeometry x="40.273975882659784" y="69.9385672082717" width="22.730021682416364" height="10.609466315586669" as="geometry" />
        </mxCell>
        <mxCell id="YyxFNso_PHiNrbnvG7HJ-257" value="" style="rounded=0;whiteSpace=wrap;html=1;fillColor=#f8cecc;strokeColor=#b85450;container=0;rotation=90;fontFamily=Times New Roman;" vertex="1" parent="YyxFNso_PHiNrbnvG7HJ-238">
          <mxGeometry x="91.0039758826598" y="75.93856720827165" width="22.730021682416364" height="10.609466315586669" as="geometry" />
        </mxCell>
        <mxCell id="YyxFNso_PHiNrbnvG7HJ-258" value="" style="rounded=0;whiteSpace=wrap;html=1;fillColor=#f8cecc;strokeColor=#b85450;container=0;rotation=90;fontFamily=Times New Roman;" vertex="1" parent="YyxFNso_PHiNrbnvG7HJ-238">
          <mxGeometry x="105.73397588265982" y="13.328567208271636" width="22.730021682416364" height="10.609466315586669" as="geometry" />
        </mxCell>
        <mxCell id="YyxFNso_PHiNrbnvG7HJ-259" value="" style="rounded=0;whiteSpace=wrap;html=1;fillColor=#f8cecc;strokeColor=#b85450;container=0;rotation=90;fontFamily=Times New Roman;" vertex="1" parent="YyxFNso_PHiNrbnvG7HJ-238">
          <mxGeometry x="111.0039758826598" y="95.93856720827165" width="22.730021682416364" height="10.609466315586669" as="geometry" />
        </mxCell>
        <mxCell id="YyxFNso_PHiNrbnvG7HJ-260" value="" style="rounded=0;whiteSpace=wrap;html=1;fillColor=#f8cecc;strokeColor=#b85450;container=0;rotation=90;fontFamily=Times New Roman;" vertex="1" parent="YyxFNso_PHiNrbnvG7HJ-238">
          <mxGeometry x="117.0039758826598" y="13.328567208271636" width="22.730021682416364" height="10.609466315586669" as="geometry" />
        </mxCell>
        <mxCell id="YyxFNso_PHiNrbnvG7HJ-261" value="" style="rounded=0;whiteSpace=wrap;html=1;fillColor=#f8cecc;strokeColor=#b85450;container=0;rotation=90;fontFamily=Times New Roman;" vertex="1" parent="YyxFNso_PHiNrbnvG7HJ-238">
          <mxGeometry x="128.46397588265984" y="13.328567208271636" width="22.730021682416364" height="10.609466315586669" as="geometry" />
        </mxCell>
        <mxCell id="YyxFNso_PHiNrbnvG7HJ-262" value="" style="rounded=0;whiteSpace=wrap;html=1;fillColor=#f8cecc;strokeColor=#b85450;container=0;rotation=90;fontFamily=Times New Roman;" vertex="1" parent="YyxFNso_PHiNrbnvG7HJ-238">
          <mxGeometry x="128.46397588265984" y="49.328567208271636" width="22.730021682416364" height="10.609466315586669" as="geometry" />
        </mxCell>
        <mxCell id="YyxFNso_PHiNrbnvG7HJ-263" value="" style="rounded=0;whiteSpace=wrap;html=1;fillColor=#f8cecc;strokeColor=#b85450;container=0;rotation=90;fontFamily=Times New Roman;" vertex="1" parent="YyxFNso_PHiNrbnvG7HJ-238">
          <mxGeometry x="105.73397588265982" y="179.32856720827164" width="22.730021682416364" height="10.609466315586669" as="geometry" />
        </mxCell>
        <mxCell id="YyxFNso_PHiNrbnvG7HJ-264" value="" style="rounded=0;whiteSpace=wrap;html=1;fillColor=#f8cecc;strokeColor=#b85450;container=0;rotation=90;fontFamily=Times New Roman;" vertex="1" parent="YyxFNso_PHiNrbnvG7HJ-238">
          <mxGeometry x="133.73397588265982" y="136.93856720827165" width="22.730021682416364" height="10.609466315586669" as="geometry" />
        </mxCell>
        <mxCell id="YyxFNso_PHiNrbnvG7HJ-265" value="" style="rounded=0;whiteSpace=wrap;html=1;fillColor=#f8cecc;strokeColor=#b85450;container=0;rotation=90;fontFamily=Times New Roman;" vertex="1" parent="YyxFNso_PHiNrbnvG7HJ-238">
          <mxGeometry x="128.46397588265984" y="72.32856720827164" width="22.730021682416364" height="10.609466315586669" as="geometry" />
        </mxCell>
        <mxCell id="YyxFNso_PHiNrbnvG7HJ-266" value="" style="rounded=0;whiteSpace=wrap;html=1;fillColor=#f8cecc;strokeColor=#b85450;container=0;rotation=90;fontFamily=Times New Roman;" vertex="1" parent="YyxFNso_PHiNrbnvG7HJ-238">
          <mxGeometry x="139.73397588265982" y="179.32856720827164" width="22.730021682416364" height="10.609466315586669" as="geometry" />
        </mxCell>
        <mxCell id="YyxFNso_PHiNrbnvG7HJ-267" value="" style="rounded=0;whiteSpace=wrap;html=1;fillColor=#f8cecc;strokeColor=#b85450;container=0;rotation=90;fontFamily=Times New Roman;" vertex="1" parent="YyxFNso_PHiNrbnvG7HJ-238">
          <mxGeometry x="151.19397588265974" y="8.108567208271666" width="22.730021682416364" height="10.609466315586669" as="geometry" />
        </mxCell>
        <mxCell id="YyxFNso_PHiNrbnvG7HJ-268" value="" style="rounded=0;whiteSpace=wrap;html=1;fillColor=#f8cecc;strokeColor=#b85450;container=0;rotation=90;fontFamily=Times New Roman;" vertex="1" parent="YyxFNso_PHiNrbnvG7HJ-238">
          <mxGeometry x="151.19397588265974" y="31.718567208271622" width="22.730021682416364" height="10.609466315586669" as="geometry" />
        </mxCell>
        <mxCell id="YyxFNso_PHiNrbnvG7HJ-269" value="" style="rounded=0;whiteSpace=wrap;html=1;fillColor=#f8cecc;strokeColor=#b85450;container=0;rotation=90;fontFamily=Times New Roman;" vertex="1" parent="YyxFNso_PHiNrbnvG7HJ-238">
          <mxGeometry x="151.19397588265974" y="54.71856720827162" width="22.730021682416364" height="10.609466315586669" as="geometry" />
        </mxCell>
        <mxCell id="YyxFNso_PHiNrbnvG7HJ-270" value="" style="rounded=0;whiteSpace=wrap;html=1;fillColor=#f8cecc;strokeColor=#b85450;container=0;rotation=90;fontFamily=Times New Roman;" vertex="1" parent="YyxFNso_PHiNrbnvG7HJ-238">
          <mxGeometry x="180.0039758826598" y="13.328567208271636" width="22.730021682416364" height="10.609466315586669" as="geometry" />
        </mxCell>
        <mxCell id="YyxFNso_PHiNrbnvG7HJ-271" value="" style="rounded=0;whiteSpace=wrap;html=1;fillColor=#f8cecc;strokeColor=#b85450;container=0;rotation=90;fontFamily=Times New Roman;" vertex="1" parent="YyxFNso_PHiNrbnvG7HJ-238">
          <mxGeometry x="154.0039758826598" y="95.93856720827165" width="22.730021682416364" height="10.609466315586669" as="geometry" />
        </mxCell>
        <mxCell id="YyxFNso_PHiNrbnvG7HJ-272" value="" style="rounded=0;whiteSpace=wrap;html=1;fillColor=#f8cecc;strokeColor=#b85450;container=0;rotation=90;fontFamily=Times New Roman;" vertex="1" parent="YyxFNso_PHiNrbnvG7HJ-238">
          <mxGeometry x="164.27397588265978" y="162.71856720827162" width="22.730021682416364" height="10.609466315586669" as="geometry" />
        </mxCell>
        <mxCell id="YyxFNso_PHiNrbnvG7HJ-273" value="" style="rounded=0;whiteSpace=wrap;html=1;fillColor=#f8cecc;strokeColor=#b85450;container=0;rotation=90;fontFamily=Times New Roman;" vertex="1" parent="YyxFNso_PHiNrbnvG7HJ-238">
          <mxGeometry x="173.92397588265976" y="75.93856720827165" width="22.730021682416364" height="10.609466315586669" as="geometry" />
        </mxCell>
        <mxCell id="YyxFNso_PHiNrbnvG7HJ-274" value="" style="rounded=0;whiteSpace=wrap;html=1;fillColor=#f8cecc;strokeColor=#b85450;container=0;rotation=90;fontFamily=Times New Roman;" vertex="1" parent="YyxFNso_PHiNrbnvG7HJ-238">
          <mxGeometry x="173.92397588265976" y="131.32856720827164" width="22.730021682416364" height="10.609466315586669" as="geometry" />
        </mxCell>
        <mxCell id="YyxFNso_PHiNrbnvG7HJ-275" value="" style="rounded=0;whiteSpace=wrap;html=1;fillColor=#f8cecc;strokeColor=#b85450;container=0;rotation=90;fontFamily=Times New Roman;" vertex="1" parent="YyxFNso_PHiNrbnvG7HJ-238">
          <mxGeometry x="196.65397588265978" y="95.93856720827165" width="22.730021682416364" height="10.609466315586669" as="geometry" />
        </mxCell>
        <mxCell id="YyxFNso_PHiNrbnvG7HJ-276" value="" style="rounded=0;whiteSpace=wrap;html=1;fillColor=#f8cecc;strokeColor=#b85450;container=0;rotation=90;fontFamily=Times New Roman;" vertex="1" parent="YyxFNso_PHiNrbnvG7HJ-238">
          <mxGeometry x="196.65397588265978" y="46.32856720827169" width="22.730021682416364" height="10.609466315586669" as="geometry" />
        </mxCell>
        <mxCell id="YyxFNso_PHiNrbnvG7HJ-277" value="" style="rounded=0;whiteSpace=wrap;html=1;fillColor=#f8cecc;strokeColor=#b85450;container=0;rotation=90;fontFamily=Times New Roman;" vertex="1" parent="YyxFNso_PHiNrbnvG7HJ-238">
          <mxGeometry x="210.0039758826598" y="16.328567208271693" width="22.730021682416364" height="10.609466315586669" as="geometry" />
        </mxCell>
        <mxCell id="YyxFNso_PHiNrbnvG7HJ-278" value="" style="rounded=0;whiteSpace=wrap;html=1;fillColor=#f8cecc;strokeColor=#b85450;container=0;rotation=90;fontFamily=Times New Roman;" vertex="1" parent="YyxFNso_PHiNrbnvG7HJ-238">
          <mxGeometry x="210.0039758826598" y="136.93856720827165" width="22.730021682416364" height="10.609466315586669" as="geometry" />
        </mxCell>
        <mxCell id="YyxFNso_PHiNrbnvG7HJ-279" value="" style="rounded=0;whiteSpace=wrap;html=1;fillColor=#f8cecc;strokeColor=#b85450;container=0;rotation=90;fontFamily=Times New Roman;" vertex="1" parent="YyxFNso_PHiNrbnvG7HJ-238">
          <mxGeometry x="206.73397588265982" y="46.32856720827169" width="22.730021682416364" height="10.609466315586669" as="geometry" />
        </mxCell>
        <mxCell id="YyxFNso_PHiNrbnvG7HJ-280" value="" style="rounded=0;whiteSpace=wrap;html=1;fillColor=#f8cecc;strokeColor=#b85450;container=0;rotation=90;fontFamily=Times New Roman;" vertex="1" parent="YyxFNso_PHiNrbnvG7HJ-238">
          <mxGeometry x="210.0039758826598" y="157.3285672082717" width="22.730021682416364" height="10.609466315586669" as="geometry" />
        </mxCell>
        <mxCell id="YyxFNso_PHiNrbnvG7HJ-281" value="" style="rounded=0;whiteSpace=wrap;html=1;fillColor=#f8cecc;strokeColor=#b85450;container=0;rotation=90;fontFamily=Times New Roman;" vertex="1" parent="YyxFNso_PHiNrbnvG7HJ-238">
          <mxGeometry x="223.0039758826598" y="103.49856720827165" width="22.730021682416364" height="10.609466315586669" as="geometry" />
        </mxCell>
        <mxCell id="YyxFNso_PHiNrbnvG7HJ-282" value="" style="rounded=0;whiteSpace=wrap;html=1;fillColor=#f8cecc;strokeColor=#b85450;container=0;rotation=90;fontFamily=Times New Roman;" vertex="1" parent="YyxFNso_PHiNrbnvG7HJ-238">
          <mxGeometry x="223.0039758826598" y="179.3285672082717" width="22.730021682416364" height="10.609466315586669" as="geometry" />
        </mxCell>
        <mxCell id="YyxFNso_PHiNrbnvG7HJ-283" value="" style="rounded=0;whiteSpace=wrap;html=1;fillColor=#f8cecc;strokeColor=#b85450;container=0;rotation=90;fontFamily=Times New Roman;" vertex="1" parent="YyxFNso_PHiNrbnvG7HJ-238">
          <mxGeometry x="235.0039758826598" y="179.3285672082717" width="22.730021682416364" height="10.609466315586669" as="geometry" />
        </mxCell>
        <mxCell id="YyxFNso_PHiNrbnvG7HJ-284" value="" style="rounded=0;whiteSpace=wrap;html=1;fillColor=#f8cecc;strokeColor=#b85450;container=0;rotation=90;fontFamily=Times New Roman;" vertex="1" parent="YyxFNso_PHiNrbnvG7HJ-238">
          <mxGeometry x="243.0039758826598" y="128.3285672082717" width="22.730021682416364" height="10.609466315586669" as="geometry" />
        </mxCell>
        <mxCell id="YyxFNso_PHiNrbnvG7HJ-285" value="" style="rounded=0;whiteSpace=wrap;html=1;container=0;rotation=90;fillColor=#E6E6E6;fontFamily=Times New Roman;" vertex="1" parent="YyxFNso_PHiNrbnvG7HJ-238">
          <mxGeometry x="290.31397588265986" y="18.328567208271693" width="22.730021682416364" height="10.609466315586669" as="geometry" />
        </mxCell>
        <mxCell id="YyxFNso_PHiNrbnvG7HJ-286" value="" style="rounded=0;whiteSpace=wrap;html=1;fillColor=#f8cecc;strokeColor=#b85450;container=0;rotation=90;fontFamily=Times New Roman;" vertex="1" parent="YyxFNso_PHiNrbnvG7HJ-238">
          <mxGeometry x="184.0039758826598" y="174.3285672082717" width="22.730021682416364" height="10.609466315586669" as="geometry" />
        </mxCell>
        <mxCell id="YyxFNso_PHiNrbnvG7HJ-287" value="" style="rounded=0;whiteSpace=wrap;html=1;fillColor=#f8cecc;strokeColor=#b85450;container=0;rotation=90;fontFamily=Times New Roman;" vertex="1" parent="YyxFNso_PHiNrbnvG7HJ-238">
          <mxGeometry x="226.73397588265982" y="51.32856720827169" width="22.730021682416364" height="10.609466315586669" as="geometry" />
        </mxCell>
        <mxCell id="YyxFNso_PHiNrbnvG7HJ-288" value="" style="rounded=0;whiteSpace=wrap;html=1;fillColor=#f8cecc;strokeColor=#b85450;container=0;rotation=90;fontFamily=Times New Roman;" vertex="1" parent="YyxFNso_PHiNrbnvG7HJ-238">
          <mxGeometry x="260.0039758826598" y="116.10856720827172" width="22.730021682416364" height="10.609466315586669" as="geometry" />
        </mxCell>
        <mxCell id="YyxFNso_PHiNrbnvG7HJ-289" value="" style="rounded=0;whiteSpace=wrap;html=1;fillColor=#f8cecc;strokeColor=#b85450;container=0;rotation=90;fontFamily=Times New Roman;" vertex="1" parent="YyxFNso_PHiNrbnvG7HJ-238">
          <mxGeometry x="286.0039758826598" y="133.32856720827175" width="22.730021682416364" height="10.609466315586669" as="geometry" />
        </mxCell>
        <mxCell id="YyxFNso_PHiNrbnvG7HJ-290" value="" style="rounded=0;whiteSpace=wrap;html=1;fillColor=#f8cecc;strokeColor=#b85450;container=0;rotation=90;fontFamily=Times New Roman;" vertex="1" parent="YyxFNso_PHiNrbnvG7HJ-238">
          <mxGeometry x="243.0039758826598" y="154.10856720827172" width="22.730021682416364" height="10.609466315586669" as="geometry" />
        </mxCell>
        <mxCell id="YyxFNso_PHiNrbnvG7HJ-291" value="" style="rounded=0;whiteSpace=wrap;html=1;container=0;rotation=90;fillColor=#E6E6E6;fontFamily=Times New Roman;" vertex="1" parent="YyxFNso_PHiNrbnvG7HJ-238">
          <mxGeometry x="299.0039758826598" y="54.32856720827169" width="22.730021682416364" height="10.609466315586669" as="geometry" />
        </mxCell>
        <mxCell id="YyxFNso_PHiNrbnvG7HJ-292" value="" style="rounded=0;whiteSpace=wrap;html=1;container=0;rotation=90;fillColor=#E6E6E6;fontFamily=Times New Roman;" vertex="1" parent="YyxFNso_PHiNrbnvG7HJ-238">
          <mxGeometry x="282.1039758826598" y="47.32856720827169" width="22.730021682416364" height="10.609466315586669" as="geometry" />
        </mxCell>
        <mxCell id="YyxFNso_PHiNrbnvG7HJ-293" value="" style="rounded=0;whiteSpace=wrap;html=1;container=0;rotation=90;fillColor=#E6E6E6;fontFamily=Times New Roman;" vertex="1" parent="YyxFNso_PHiNrbnvG7HJ-238">
          <mxGeometry x="267.58397588265984" y="21.328567208271693" width="22.730021682416364" height="10.609466315586669" as="geometry" />
        </mxCell>
        <mxCell id="YyxFNso_PHiNrbnvG7HJ-294" value="" style="rounded=0;whiteSpace=wrap;html=1;container=0;rotation=90;fillColor=#E6E6E6;fontFamily=Times New Roman;" vertex="1" parent="YyxFNso_PHiNrbnvG7HJ-238">
          <mxGeometry x="267.58397588265984" y="54.32856720827169" width="22.730021682416364" height="10.609466315586669" as="geometry" />
        </mxCell>
        <mxCell id="YyxFNso_PHiNrbnvG7HJ-295" value="" style="rounded=0;whiteSpace=wrap;html=1;container=0;rotation=90;fillColor=#E6E6E6;fontFamily=Times New Roman;" vertex="1" parent="YyxFNso_PHiNrbnvG7HJ-238">
          <mxGeometry x="257.0039758826598" y="13.108567208271666" width="22.730021682416364" height="10.609466315586669" as="geometry" />
        </mxCell>
        <mxCell id="YyxFNso_PHiNrbnvG7HJ-296" value="" style="rounded=0;whiteSpace=wrap;html=1;container=0;rotation=90;fillColor=#E6E6E6;fontFamily=Times New Roman;" vertex="1" parent="YyxFNso_PHiNrbnvG7HJ-238">
          <mxGeometry x="253.73397588265982" y="61.93856720827165" width="22.730021682416364" height="10.609466315586669" as="geometry" />
        </mxCell>
        <mxCell id="YyxFNso_PHiNrbnvG7HJ-297" value="" style="rounded=0;whiteSpace=wrap;html=1;fillColor=#f8cecc;strokeColor=#b85450;container=0;rotation=90;fontFamily=Times New Roman;" vertex="1" parent="YyxFNso_PHiNrbnvG7HJ-238">
          <mxGeometry x="282.1039758826598" y="77.9385672082717" width="22.730021682416364" height="10.609466315586669" as="geometry" />
        </mxCell>
        <mxCell id="YyxFNso_PHiNrbnvG7HJ-298" value="" style="rounded=0;whiteSpace=wrap;html=1;fillColor=#d5e8d4;strokeColor=#82b366;container=0;rotation=90;fontFamily=Times New Roman;" vertex="1" parent="YyxFNso_PHiNrbnvG7HJ-238">
          <mxGeometry x="196.32" y="79.17" width="11.11" height="9.06" as="geometry" />
        </mxCell>
        <mxCell id="YyxFNso_PHiNrbnvG7HJ-299" style="edgeStyle=orthogonalEdgeStyle;rounded=0;orthogonalLoop=1;jettySize=auto;html=1;exitX=1;exitY=0.5;exitDx=0;exitDy=0;entryX=0;entryY=0.5;entryDx=0;entryDy=0;fontFamily=Times New Roman;" edge="1" parent="1" source="YyxFNso_PHiNrbnvG7HJ-178" target="YyxFNso_PHiNrbnvG7HJ-239">
          <mxGeometry relative="1" as="geometry" />
        </mxCell>
        <mxCell id="YyxFNso_PHiNrbnvG7HJ-300" style="edgeStyle=orthogonalEdgeStyle;rounded=0;orthogonalLoop=1;jettySize=auto;html=1;exitX=0.5;exitY=1;exitDx=0;exitDy=0;entryX=0.5;entryY=0;entryDx=0;entryDy=0;fontFamily=宋体;" edge="1" parent="1" source="YyxFNso_PHiNrbnvG7HJ-301" target="YyxFNso_PHiNrbnvG7HJ-303">
          <mxGeometry relative="1" as="geometry" />
        </mxCell>
        <mxCell id="YyxFNso_PHiNrbnvG7HJ-301" value="&lt;font style=&quot;font-size: 23px;&quot;&gt;GenBuffer&lt;/font&gt;&lt;div&gt;&lt;font style=&quot;font-size: 23px;&quot;&gt;start&lt;/font&gt;&lt;/div&gt;" style="rounded=1;whiteSpace=wrap;html=1;fontFamily=Times New Roman;" vertex="1" parent="1">
          <mxGeometry x="95" y="1031" width="112" height="54" as="geometry" />
        </mxCell>
        <mxCell id="YyxFNso_PHiNrbnvG7HJ-302" style="edgeStyle=orthogonalEdgeStyle;rounded=0;orthogonalLoop=1;jettySize=auto;html=1;exitX=0.5;exitY=1;exitDx=0;exitDy=0;fontFamily=宋体;" edge="1" parent="1" source="YyxFNso_PHiNrbnvG7HJ-303" target="YyxFNso_PHiNrbnvG7HJ-306">
          <mxGeometry relative="1" as="geometry" />
        </mxCell>
        <mxCell id="YyxFNso_PHiNrbnvG7HJ-303" value="&lt;font style=&quot;font-size: 23px;&quot;&gt;Select&lt;/font&gt;" style="rounded=0;whiteSpace=wrap;html=1;fontFamily=Times New Roman;" vertex="1" parent="1">
          <mxGeometry x="91" y="1179" width="120" height="60" as="geometry" />
        </mxCell>
        <mxCell id="YyxFNso_PHiNrbnvG7HJ-304" style="edgeStyle=orthogonalEdgeStyle;rounded=0;orthogonalLoop=1;jettySize=auto;html=1;exitX=1;exitY=0.5;exitDx=0;exitDy=0;entryX=0;entryY=0.5;entryDx=0;entryDy=0;dashed=1;fontFamily=宋体;" edge="1" parent="1" source="YyxFNso_PHiNrbnvG7HJ-306" target="YyxFNso_PHiNrbnvG7HJ-335">
          <mxGeometry relative="1" as="geometry" />
        </mxCell>
        <mxCell id="YyxFNso_PHiNrbnvG7HJ-305" style="edgeStyle=orthogonalEdgeStyle;rounded=0;orthogonalLoop=1;jettySize=auto;html=1;exitX=0.5;exitY=1;exitDx=0;exitDy=0;entryX=0.5;entryY=0;entryDx=0;entryDy=0;fontFamily=宋体;" edge="1" parent="1" source="YyxFNso_PHiNrbnvG7HJ-306" target="YyxFNso_PHiNrbnvG7HJ-364">
          <mxGeometry relative="1" as="geometry" />
        </mxCell>
        <mxCell id="YyxFNso_PHiNrbnvG7HJ-306" value="&lt;font style=&quot;font-size: 23px;&quot;&gt;InitPos&lt;/font&gt;" style="rounded=0;whiteSpace=wrap;html=1;fontFamily=Times New Roman;" vertex="1" parent="1">
          <mxGeometry x="91" y="1449" width="120" height="60" as="geometry" />
        </mxCell>
        <mxCell id="YyxFNso_PHiNrbnvG7HJ-307" style="edgeStyle=orthogonalEdgeStyle;rounded=0;orthogonalLoop=1;jettySize=auto;html=1;exitX=0.5;exitY=1;exitDx=0;exitDy=0;entryX=0.5;entryY=0;entryDx=0;entryDy=0;fontFamily=宋体;" edge="1" parent="1" source="YyxFNso_PHiNrbnvG7HJ-308" target="YyxFNso_PHiNrbnvG7HJ-309">
          <mxGeometry relative="1" as="geometry" />
        </mxCell>
        <mxCell id="YyxFNso_PHiNrbnvG7HJ-308" value="&lt;font style=&quot;font-size: 23px;&quot;&gt;Adjust&lt;/font&gt;" style="rounded=0;whiteSpace=wrap;html=1;fontFamily=宋体;" vertex="1" parent="1">
          <mxGeometry x="91" y="1808.5" width="120" height="60" as="geometry" />
        </mxCell>
        <mxCell id="YyxFNso_PHiNrbnvG7HJ-309" value="&lt;span style=&quot;font-size: 20px;&quot;&gt;end&lt;/span&gt;" style="rounded=1;whiteSpace=wrap;html=1;fontFamily=宋体;" vertex="1" parent="1">
          <mxGeometry x="95" y="1983" width="112" height="54" as="geometry" />
        </mxCell>
        <mxCell id="YyxFNso_PHiNrbnvG7HJ-310" style="edgeStyle=orthogonalEdgeStyle;rounded=0;orthogonalLoop=1;jettySize=auto;html=1;exitX=0;exitY=0.5;exitDx=0;exitDy=0;fontSize=16;fontFamily=宋体;" edge="1" parent="1" source="YyxFNso_PHiNrbnvG7HJ-312" target="YyxFNso_PHiNrbnvG7HJ-318">
          <mxGeometry relative="1" as="geometry" />
        </mxCell>
        <mxCell id="YyxFNso_PHiNrbnvG7HJ-311" style="edgeStyle=orthogonalEdgeStyle;rounded=0;orthogonalLoop=1;jettySize=auto;html=1;exitX=1;exitY=0.5;exitDx=0;exitDy=0;fontSize=16;fontFamily=宋体;" edge="1" parent="1" source="YyxFNso_PHiNrbnvG7HJ-312" target="YyxFNso_PHiNrbnvG7HJ-324">
          <mxGeometry relative="1" as="geometry" />
        </mxCell>
        <mxCell id="YyxFNso_PHiNrbnvG7HJ-312" value="&lt;font&gt;选择算子&lt;/font&gt;" style="rhombus;whiteSpace=wrap;html=1;fontSize=16;fontFamily=宋体;" vertex="1" parent="1">
          <mxGeometry x="433" y="1013" width="174" height="43" as="geometry" />
        </mxCell>
        <mxCell id="YyxFNso_PHiNrbnvG7HJ-313" style="edgeStyle=orthogonalEdgeStyle;rounded=0;orthogonalLoop=1;jettySize=auto;html=1;exitX=0.5;exitY=1;exitDx=0;exitDy=0;entryX=0.5;entryY=0;entryDx=0;entryDy=0;fontSize=16;fontFamily=宋体;" edge="1" parent="1" source="YyxFNso_PHiNrbnvG7HJ-314" target="YyxFNso_PHiNrbnvG7HJ-316">
          <mxGeometry relative="1" as="geometry" />
        </mxCell>
        <mxCell id="YyxFNso_PHiNrbnvG7HJ-314" value="&lt;font&gt;聚类&lt;/font&gt;" style="rounded=0;whiteSpace=wrap;html=1;fontSize=16;fontFamily=宋体;" vertex="1" parent="1">
          <mxGeometry x="310" y="1142" width="180" height="43" as="geometry" />
        </mxCell>
        <mxCell id="YyxFNso_PHiNrbnvG7HJ-315" style="edgeStyle=orthogonalEdgeStyle;rounded=0;orthogonalLoop=1;jettySize=auto;html=1;exitX=0.5;exitY=1;exitDx=0;exitDy=0;fontFamily=宋体;" edge="1" parent="1" source="YyxFNso_PHiNrbnvG7HJ-316">
          <mxGeometry relative="1" as="geometry">
            <mxPoint x="516.4306204659599" y="1317.0506155831474" as="targetPoint" />
            <Array as="points">
              <mxPoint x="400" y="1291" />
              <mxPoint x="516" y="1291" />
            </Array>
          </mxGeometry>
        </mxCell>
        <mxCell id="YyxFNso_PHiNrbnvG7HJ-316" value="&lt;font&gt;模拟退火调整&lt;/font&gt;" style="rounded=0;whiteSpace=wrap;html=1;fontSize=16;fontFamily=宋体;" vertex="1" parent="1">
          <mxGeometry x="310" y="1207" width="180" height="43" as="geometry" />
        </mxCell>
        <mxCell id="YyxFNso_PHiNrbnvG7HJ-317" style="edgeStyle=orthogonalEdgeStyle;rounded=0;orthogonalLoop=1;jettySize=auto;html=1;exitX=0.5;exitY=1;exitDx=0;exitDy=0;entryX=0.5;entryY=0;entryDx=0;entryDy=0;fontSize=16;fontFamily=宋体;" edge="1" parent="1" source="YyxFNso_PHiNrbnvG7HJ-318" target="YyxFNso_PHiNrbnvG7HJ-314">
          <mxGeometry relative="1" as="geometry" />
        </mxCell>
        <mxCell id="YyxFNso_PHiNrbnvG7HJ-318" value="&lt;font&gt;计算集群大小&lt;/font&gt;" style="rounded=0;whiteSpace=wrap;html=1;fontSize=16;fontFamily=宋体;" vertex="1" parent="1">
          <mxGeometry x="310" y="1077" width="180" height="43" as="geometry" />
        </mxCell>
        <mxCell id="YyxFNso_PHiNrbnvG7HJ-319" style="edgeStyle=orthogonalEdgeStyle;rounded=0;orthogonalLoop=1;jettySize=auto;html=1;exitX=0.5;exitY=1;exitDx=0;exitDy=0;entryX=0.5;entryY=0;entryDx=0;entryDy=0;fontSize=16;fontFamily=宋体;" edge="1" parent="1" source="YyxFNso_PHiNrbnvG7HJ-320" target="YyxFNso_PHiNrbnvG7HJ-322">
          <mxGeometry relative="1" as="geometry" />
        </mxCell>
        <mxCell id="YyxFNso_PHiNrbnvG7HJ-320" value="&lt;font&gt;选择离CLK最远的Sink&lt;/font&gt;" style="rounded=0;whiteSpace=wrap;html=1;fontSize=16;fontFamily=宋体;" vertex="1" parent="1">
          <mxGeometry x="545.63" y="1142" width="180" height="43" as="geometry" />
        </mxCell>
        <mxCell id="YyxFNso_PHiNrbnvG7HJ-321" style="edgeStyle=orthogonalEdgeStyle;rounded=0;orthogonalLoop=1;jettySize=auto;html=1;exitX=0.5;exitY=1;exitDx=0;exitDy=0;entryX=0.5;entryY=0;entryDx=0;entryDy=0;fontFamily=宋体;" edge="1" parent="1" source="YyxFNso_PHiNrbnvG7HJ-322" target="YyxFNso_PHiNrbnvG7HJ-327">
          <mxGeometry relative="1" as="geometry" />
        </mxCell>
        <mxCell id="YyxFNso_PHiNrbnvG7HJ-322" value="&lt;span&gt;选择集群，加入buffer，删除FF&lt;/span&gt;" style="rounded=0;whiteSpace=wrap;html=1;fontSize=16;fontFamily=宋体;" vertex="1" parent="1">
          <mxGeometry x="545.63" y="1207" width="180" height="43" as="geometry" />
        </mxCell>
        <mxCell id="YyxFNso_PHiNrbnvG7HJ-323" style="edgeStyle=orthogonalEdgeStyle;rounded=0;orthogonalLoop=1;jettySize=auto;html=1;exitX=0.5;exitY=1;exitDx=0;exitDy=0;entryX=0.5;entryY=0;entryDx=0;entryDy=0;fontSize=16;fontFamily=宋体;" edge="1" parent="1" source="YyxFNso_PHiNrbnvG7HJ-324" target="YyxFNso_PHiNrbnvG7HJ-320">
          <mxGeometry relative="1" as="geometry" />
        </mxCell>
        <mxCell id="YyxFNso_PHiNrbnvG7HJ-324" value="&lt;span&gt;计算集群大小&lt;/span&gt;" style="rounded=0;whiteSpace=wrap;html=1;fontSize=16;fontFamily=宋体;" vertex="1" parent="1">
          <mxGeometry x="545.63" y="1077" width="180" height="43" as="geometry" />
        </mxCell>
        <mxCell id="YyxFNso_PHiNrbnvG7HJ-325" value="" style="endArrow=classic;html=1;rounded=0;entryX=0.5;entryY=0;entryDx=0;entryDy=0;fontSize=16;fontFamily=宋体;" edge="1" parent="1" target="YyxFNso_PHiNrbnvG7HJ-312">
          <mxGeometry width="50" height="50" relative="1" as="geometry">
            <mxPoint x="520" y="993" as="sourcePoint" />
            <mxPoint x="488" y="1126" as="targetPoint" />
          </mxGeometry>
        </mxCell>
        <mxCell id="YyxFNso_PHiNrbnvG7HJ-326" style="edgeStyle=orthogonalEdgeStyle;rounded=0;orthogonalLoop=1;jettySize=auto;html=1;exitX=0;exitY=0.5;exitDx=0;exitDy=0;fontFamily=宋体;" edge="1" parent="1" source="YyxFNso_PHiNrbnvG7HJ-327">
          <mxGeometry relative="1" as="geometry">
            <mxPoint x="515.7957153320312" y="1292.2857142857142" as="targetPoint" />
          </mxGeometry>
        </mxCell>
        <mxCell id="YyxFNso_PHiNrbnvG7HJ-327" value="&lt;font&gt;全局选择结束&lt;/font&gt;" style="rhombus;whiteSpace=wrap;html=1;fontSize=16;fontFamily=宋体;" vertex="1" parent="1">
          <mxGeometry x="548.63" y="1271" width="174" height="43" as="geometry" />
        </mxCell>
        <mxCell id="YyxFNso_PHiNrbnvG7HJ-328" style="edgeStyle=orthogonalEdgeStyle;rounded=0;orthogonalLoop=1;jettySize=auto;html=1;exitX=1;exitY=0.5;exitDx=0;exitDy=0;fontFamily=宋体;" edge="1" parent="1">
          <mxGeometry relative="1" as="geometry">
            <mxPoint x="725.3599999999999" y="1291.74" as="sourcePoint" />
            <mxPoint x="639.73" y="1052.24" as="targetPoint" />
            <Array as="points">
              <mxPoint x="738.73" y="1292.24" />
              <mxPoint x="738.73" y="1052.24" />
            </Array>
          </mxGeometry>
        </mxCell>
        <mxCell id="YyxFNso_PHiNrbnvG7HJ-329" value="否" style="edgeLabel;html=1;align=center;verticalAlign=middle;resizable=0;points=[];fontFamily=宋体;" vertex="1" connectable="0" parent="YyxFNso_PHiNrbnvG7HJ-328">
          <mxGeometry x="-0.3852" y="1" relative="1" as="geometry">
            <mxPoint x="1" y="-39" as="offset" />
          </mxGeometry>
        </mxCell>
        <mxCell id="YyxFNso_PHiNrbnvG7HJ-330" value="是" style="edgeLabel;html=1;align=center;verticalAlign=middle;resizable=0;points=[];fontFamily=宋体;" vertex="1" connectable="0" parent="1">
          <mxGeometry x="751.0042857142857" y="1163.4985961855632" as="geometry">
            <mxPoint x="-217" y="119" as="offset" />
          </mxGeometry>
        </mxCell>
        <mxCell id="YyxFNso_PHiNrbnvG7HJ-331" style="edgeStyle=orthogonalEdgeStyle;rounded=0;orthogonalLoop=1;jettySize=auto;html=1;exitX=1;exitY=0.5;exitDx=0;exitDy=0;entryX=-0.002;entryY=0.652;entryDx=0;entryDy=0;entryPerimeter=0;dashed=1;fontFamily=宋体;" edge="1" parent="1" source="YyxFNso_PHiNrbnvG7HJ-303" target="YyxFNso_PHiNrbnvG7HJ-2">
          <mxGeometry relative="1" as="geometry" />
        </mxCell>
        <mxCell id="YyxFNso_PHiNrbnvG7HJ-332" value="&lt;font face=&quot;Times New Roman&quot;&gt;OptimalOper&lt;/font&gt;" style="edgeLabel;html=1;align=center;verticalAlign=middle;resizable=0;points=[];fontFamily=宋体;" vertex="1" connectable="0" parent="1">
          <mxGeometry x="748.7142857142856" y="1163.5033580903246" as="geometry">
            <mxPoint x="-118" y="-139" as="offset" />
          </mxGeometry>
        </mxCell>
        <mxCell id="YyxFNso_PHiNrbnvG7HJ-333" value="&lt;font face=&quot;Times New Roman&quot;&gt;BalanceOper&lt;/font&gt;" style="edgeLabel;html=1;align=center;verticalAlign=middle;resizable=0;points=[];fontFamily=宋体;" vertex="1" connectable="0" parent="1">
          <mxGeometry x="739.0042857142855" y="1169.0033580903246" as="geometry">
            <mxPoint x="-334" y="-144" as="offset" />
          </mxGeometry>
        </mxCell>
        <mxCell id="YyxFNso_PHiNrbnvG7HJ-334" value="" style="group;fontFamily=宋体;" vertex="1" connectable="0" parent="1">
          <mxGeometry x="292" y="1335" width="478.5" height="289" as="geometry" />
        </mxCell>
        <mxCell id="YyxFNso_PHiNrbnvG7HJ-335" value="" style="rounded=1;whiteSpace=wrap;html=1;fillColor=none;dashed=1;strokeColor=#000099;fontFamily=宋体;" vertex="1" parent="YyxFNso_PHiNrbnvG7HJ-334">
          <mxGeometry width="475" height="289" as="geometry" />
        </mxCell>
        <mxCell id="YyxFNso_PHiNrbnvG7HJ-336" style="edgeStyle=orthogonalEdgeStyle;rounded=0;orthogonalLoop=1;jettySize=auto;html=1;exitX=0;exitY=0.5;exitDx=0;exitDy=0;fontFamily=宋体;" edge="1" parent="YyxFNso_PHiNrbnvG7HJ-334" source="YyxFNso_PHiNrbnvG7HJ-340" target="YyxFNso_PHiNrbnvG7HJ-342">
          <mxGeometry relative="1" as="geometry" />
        </mxCell>
        <mxCell id="YyxFNso_PHiNrbnvG7HJ-337" value="CenterOper" style="edgeLabel;html=1;align=center;verticalAlign=middle;resizable=0;points=[];fontFamily=Times New Roman;" vertex="1" connectable="0" parent="YyxFNso_PHiNrbnvG7HJ-336">
          <mxGeometry x="-0.3337" y="-2" relative="1" as="geometry">
            <mxPoint x="-2" y="-5" as="offset" />
          </mxGeometry>
        </mxCell>
        <mxCell id="YyxFNso_PHiNrbnvG7HJ-338" style="edgeStyle=orthogonalEdgeStyle;rounded=0;orthogonalLoop=1;jettySize=auto;html=1;exitX=1;exitY=0.5;exitDx=0;exitDy=0;entryX=0.5;entryY=0;entryDx=0;entryDy=0;fontFamily=宋体;" edge="1" parent="YyxFNso_PHiNrbnvG7HJ-334" source="YyxFNso_PHiNrbnvG7HJ-340" target="YyxFNso_PHiNrbnvG7HJ-345">
          <mxGeometry relative="1" as="geometry" />
        </mxCell>
        <mxCell id="YyxFNso_PHiNrbnvG7HJ-339" value="else" style="edgeLabel;html=1;align=center;verticalAlign=middle;resizable=0;points=[];fontFamily=Times New Roman;" vertex="1" connectable="0" parent="YyxFNso_PHiNrbnvG7HJ-338">
          <mxGeometry x="-0.3701" y="3" relative="1" as="geometry">
            <mxPoint y="-5" as="offset" />
          </mxGeometry>
        </mxCell>
        <mxCell id="YyxFNso_PHiNrbnvG7HJ-340" value="&lt;font&gt;选择算子&lt;/font&gt;" style="rhombus;whiteSpace=wrap;html=1;fontSize=16;fontFamily=宋体;" vertex="1" parent="YyxFNso_PHiNrbnvG7HJ-334">
          <mxGeometry x="135.5" y="25" width="174" height="43" as="geometry" />
        </mxCell>
        <mxCell id="YyxFNso_PHiNrbnvG7HJ-341" value="" style="endArrow=classic;html=1;rounded=0;entryX=0.5;entryY=0;entryDx=0;entryDy=0;fontSize=16;fontFamily=宋体;" edge="1" parent="YyxFNso_PHiNrbnvG7HJ-334">
          <mxGeometry width="50" height="50" relative="1" as="geometry">
            <mxPoint x="222.38" y="5" as="sourcePoint" />
            <mxPoint x="222.38" y="25" as="targetPoint" />
          </mxGeometry>
        </mxCell>
        <mxCell id="YyxFNso_PHiNrbnvG7HJ-342" value="选择质心" style="rounded=0;whiteSpace=wrap;html=1;fontSize=16;fontFamily=宋体;" vertex="1" parent="YyxFNso_PHiNrbnvG7HJ-334">
          <mxGeometry x="5.5" y="84" width="113" height="43" as="geometry" />
        </mxCell>
        <mxCell id="YyxFNso_PHiNrbnvG7HJ-343" value="" style="edgeStyle=orthogonalEdgeStyle;rounded=0;orthogonalLoop=1;jettySize=auto;html=1;fontFamily=宋体;" edge="1" parent="YyxFNso_PHiNrbnvG7HJ-334" source="YyxFNso_PHiNrbnvG7HJ-345" target="YyxFNso_PHiNrbnvG7HJ-348">
          <mxGeometry relative="1" as="geometry" />
        </mxCell>
        <mxCell id="YyxFNso_PHiNrbnvG7HJ-344" style="edgeStyle=orthogonalEdgeStyle;rounded=0;orthogonalLoop=1;jettySize=auto;html=1;exitX=0;exitY=0.5;exitDx=0;exitDy=0;entryX=0.5;entryY=0;entryDx=0;entryDy=0;fontFamily=宋体;" edge="1" parent="YyxFNso_PHiNrbnvG7HJ-334" source="YyxFNso_PHiNrbnvG7HJ-345" target="YyxFNso_PHiNrbnvG7HJ-347">
          <mxGeometry relative="1" as="geometry" />
        </mxCell>
        <mxCell id="YyxFNso_PHiNrbnvG7HJ-345" value="&lt;font&gt;选择算子&lt;/font&gt;" style="rhombus;whiteSpace=wrap;html=1;fontSize=16;fontFamily=宋体;" vertex="1" parent="YyxFNso_PHiNrbnvG7HJ-334">
          <mxGeometry x="298.5" y="84" width="174" height="43" as="geometry" />
        </mxCell>
        <mxCell id="YyxFNso_PHiNrbnvG7HJ-346" style="edgeStyle=orthogonalEdgeStyle;rounded=0;orthogonalLoop=1;jettySize=auto;html=1;exitX=0.5;exitY=1;exitDx=0;exitDy=0;entryX=0.5;entryY=0;entryDx=0;entryDy=0;fontFamily=宋体;" edge="1" parent="YyxFNso_PHiNrbnvG7HJ-334" source="YyxFNso_PHiNrbnvG7HJ-347" target="YyxFNso_PHiNrbnvG7HJ-349">
          <mxGeometry relative="1" as="geometry" />
        </mxCell>
        <mxCell id="YyxFNso_PHiNrbnvG7HJ-347" value="选择包络矩形" style="rounded=0;whiteSpace=wrap;html=1;fontSize=16;fontFamily=宋体;" vertex="1" parent="YyxFNso_PHiNrbnvG7HJ-334">
          <mxGeometry x="166" y="151" width="113" height="43" as="geometry" />
        </mxCell>
        <mxCell id="YyxFNso_PHiNrbnvG7HJ-348" value="二分选择离CLK最近点" style="rounded=0;whiteSpace=wrap;html=1;fontSize=16;fontFamily=宋体;" vertex="1" parent="YyxFNso_PHiNrbnvG7HJ-334">
          <mxGeometry x="329" y="151" width="113" height="43" as="geometry" />
        </mxCell>
        <mxCell id="YyxFNso_PHiNrbnvG7HJ-349" value="选择离CLK最近点" style="rounded=0;whiteSpace=wrap;html=1;fontSize=16;fontFamily=宋体;" vertex="1" parent="YyxFNso_PHiNrbnvG7HJ-334">
          <mxGeometry x="166" y="218" width="113" height="43" as="geometry" />
        </mxCell>
        <mxCell id="YyxFNso_PHiNrbnvG7HJ-350" value="&lt;font face=&quot;Times New Roman&quot;&gt;AttractOper&lt;/font&gt;" style="edgeLabel;html=1;align=center;verticalAlign=middle;resizable=0;points=[];fontFamily=宋体;" vertex="1" connectable="0" parent="YyxFNso_PHiNrbnvG7HJ-334">
          <mxGeometry x="248.50333333333322" y="84" as="geometry">
            <mxPoint x="14" y="10" as="offset" />
          </mxGeometry>
        </mxCell>
        <mxCell id="YyxFNso_PHiNrbnvG7HJ-351" value="&lt;font face=&quot;Times New Roman&quot;&gt;ContractOper&lt;/font&gt;" style="edgeLabel;html=1;align=center;verticalAlign=middle;resizable=0;points=[];fontFamily=宋体;" vertex="1" connectable="0" parent="YyxFNso_PHiNrbnvG7HJ-334">
          <mxGeometry x="336.5033333333332" y="127" as="geometry">
            <mxPoint x="14" y="10" as="offset" />
          </mxGeometry>
        </mxCell>
        <mxCell id="YyxFNso_PHiNrbnvG7HJ-352" value="" style="endArrow=classic;html=1;rounded=0;exitX=0.5;exitY=1;exitDx=0;exitDy=0;fontFamily=宋体;" edge="1" parent="YyxFNso_PHiNrbnvG7HJ-334" source="YyxFNso_PHiNrbnvG7HJ-349">
          <mxGeometry width="50" height="50" relative="1" as="geometry">
            <mxPoint x="203.5" y="334" as="sourcePoint" />
            <mxPoint x="222.5" y="286" as="targetPoint" />
          </mxGeometry>
        </mxCell>
        <mxCell id="YyxFNso_PHiNrbnvG7HJ-353" value="" style="rounded=1;whiteSpace=wrap;html=1;fillColor=none;dashed=1;strokeColor=#000099;container=0;fontFamily=宋体;" vertex="1" parent="1">
          <mxGeometry x="291" y="1631" width="475" height="368" as="geometry" />
        </mxCell>
        <mxCell id="YyxFNso_PHiNrbnvG7HJ-354" style="edgeStyle=orthogonalEdgeStyle;rounded=0;orthogonalLoop=1;jettySize=auto;html=1;exitX=0;exitY=0.5;exitDx=0;exitDy=0;fontFamily=宋体;" edge="1" parent="1" source="YyxFNso_PHiNrbnvG7HJ-357" target="YyxFNso_PHiNrbnvG7HJ-360">
          <mxGeometry relative="1" as="geometry" />
        </mxCell>
        <mxCell id="YyxFNso_PHiNrbnvG7HJ-355" value="ProximatorOper" style="edgeLabel;html=1;align=center;verticalAlign=middle;resizable=0;points=[];container=0;fontFamily=宋体;" vertex="1" connectable="0" parent="YyxFNso_PHiNrbnvG7HJ-354">
          <mxGeometry x="-0.3337" y="-2" relative="1" as="geometry">
            <mxPoint x="-2" y="-7" as="offset" />
          </mxGeometry>
        </mxCell>
        <mxCell id="YyxFNso_PHiNrbnvG7HJ-356" style="edgeStyle=orthogonalEdgeStyle;rounded=0;orthogonalLoop=1;jettySize=auto;html=1;exitX=1;exitY=0.5;exitDx=0;exitDy=0;entryX=0.5;entryY=0;entryDx=0;entryDy=0;fontFamily=宋体;" edge="1" parent="1" source="YyxFNso_PHiNrbnvG7HJ-357" target="YyxFNso_PHiNrbnvG7HJ-368">
          <mxGeometry relative="1" as="geometry" />
        </mxCell>
        <mxCell id="YyxFNso_PHiNrbnvG7HJ-357" value="&lt;font&gt;Overlap算子&lt;/font&gt;" style="rhombus;whiteSpace=wrap;html=1;fontSize=16;container=0;fontFamily=宋体;" vertex="1" parent="1">
          <mxGeometry x="426.5" y="1657" width="174" height="43" as="geometry" />
        </mxCell>
        <mxCell id="YyxFNso_PHiNrbnvG7HJ-358" value="" style="endArrow=classic;html=1;rounded=0;entryX=0.5;entryY=0;entryDx=0;entryDy=0;fontSize=16;fontFamily=宋体;" edge="1" parent="1">
          <mxGeometry width="50" height="50" relative="1" as="geometry">
            <mxPoint x="513.38" y="1636" as="sourcePoint" />
            <mxPoint x="513.38" y="1656" as="targetPoint" />
          </mxGeometry>
        </mxCell>
        <mxCell id="YyxFNso_PHiNrbnvG7HJ-359" style="edgeStyle=orthogonalEdgeStyle;rounded=0;orthogonalLoop=1;jettySize=auto;html=1;exitX=0.5;exitY=1;exitDx=0;exitDy=0;entryX=0.5;entryY=0;entryDx=0;entryDy=0;fontFamily=宋体;" edge="1" parent="1" source="YyxFNso_PHiNrbnvG7HJ-360" target="YyxFNso_PHiNrbnvG7HJ-371">
          <mxGeometry relative="1" as="geometry">
            <Array as="points">
              <mxPoint x="353" y="1771" />
              <mxPoint x="514" y="1771" />
            </Array>
          </mxGeometry>
        </mxCell>
        <mxCell id="YyxFNso_PHiNrbnvG7HJ-360" value="就近原则" style="rounded=0;whiteSpace=wrap;html=1;fontSize=16;container=0;fontFamily=宋体;" vertex="1" parent="1">
          <mxGeometry x="296.5" y="1715" width="113" height="43" as="geometry" />
        </mxCell>
        <mxCell id="YyxFNso_PHiNrbnvG7HJ-361" value="" style="endArrow=classic;html=1;rounded=0;exitX=0.5;exitY=1;exitDx=0;exitDy=0;fontFamily=宋体;" edge="1" parent="1" source="YyxFNso_PHiNrbnvG7HJ-389">
          <mxGeometry width="50" height="50" relative="1" as="geometry">
            <mxPoint x="513.5000000000005" y="1968" as="sourcePoint" />
            <mxPoint x="513.5" y="1993" as="targetPoint" />
          </mxGeometry>
        </mxCell>
        <mxCell id="YyxFNso_PHiNrbnvG7HJ-362" style="edgeStyle=orthogonalEdgeStyle;rounded=0;orthogonalLoop=1;jettySize=auto;html=1;exitX=0.5;exitY=1;exitDx=0;exitDy=0;fontFamily=宋体;" edge="1" parent="1" source="YyxFNso_PHiNrbnvG7HJ-364" target="YyxFNso_PHiNrbnvG7HJ-308">
          <mxGeometry relative="1" as="geometry" />
        </mxCell>
        <mxCell id="YyxFNso_PHiNrbnvG7HJ-363" style="edgeStyle=orthogonalEdgeStyle;rounded=0;orthogonalLoop=1;jettySize=auto;html=1;exitX=0;exitY=0.5;exitDx=0;exitDy=0;entryX=0;entryY=0.5;entryDx=0;entryDy=0;fontFamily=宋体;" edge="1" parent="1" source="YyxFNso_PHiNrbnvG7HJ-364" target="YyxFNso_PHiNrbnvG7HJ-309">
          <mxGeometry relative="1" as="geometry" />
        </mxCell>
        <mxCell id="YyxFNso_PHiNrbnvG7HJ-364" value="&lt;font style=&quot;font-size: 17px;&quot;&gt;have Overlap&amp;nbsp;&lt;/font&gt;&lt;div&gt;&lt;font style=&quot;font-size: 17px;&quot;&gt;or RC limit&lt;/font&gt;&lt;/div&gt;" style="rhombus;whiteSpace=wrap;html=1;fontFamily=Times New Roman;" vertex="1" parent="1">
          <mxGeometry x="46.5" y="1581" width="209" height="80" as="geometry" />
        </mxCell>
        <mxCell id="YyxFNso_PHiNrbnvG7HJ-365" value="Yes" style="text;html=1;align=center;verticalAlign=middle;whiteSpace=wrap;rounded=0;fontFamily=宋体;" vertex="1" parent="1">
          <mxGeometry x="151" y="1688" width="60" height="30" as="geometry" />
        </mxCell>
        <mxCell id="YyxFNso_PHiNrbnvG7HJ-366" value="No" style="text;html=1;align=center;verticalAlign=middle;whiteSpace=wrap;rounded=0;fontFamily=宋体;" vertex="1" parent="1">
          <mxGeometry x="17" y="1688" width="60" height="30" as="geometry" />
        </mxCell>
        <mxCell id="YyxFNso_PHiNrbnvG7HJ-367" style="edgeStyle=orthogonalEdgeStyle;rounded=0;orthogonalLoop=1;jettySize=auto;html=1;exitX=0.5;exitY=1;exitDx=0;exitDy=0;entryX=0.5;entryY=0;entryDx=0;entryDy=0;fontFamily=宋体;" edge="1" parent="1" source="YyxFNso_PHiNrbnvG7HJ-368" target="YyxFNso_PHiNrbnvG7HJ-371">
          <mxGeometry relative="1" as="geometry">
            <Array as="points">
              <mxPoint x="694" y="1771" />
              <mxPoint x="514" y="1771" />
            </Array>
          </mxGeometry>
        </mxCell>
        <mxCell id="YyxFNso_PHiNrbnvG7HJ-368" value="更优原则" style="rounded=0;whiteSpace=wrap;html=1;fontSize=16;container=0;fontFamily=宋体;" vertex="1" parent="1">
          <mxGeometry x="637" y="1715" width="113" height="43" as="geometry" />
        </mxCell>
        <mxCell id="YyxFNso_PHiNrbnvG7HJ-369" value="OptimalOper" style="edgeLabel;html=1;align=center;verticalAlign=middle;resizable=0;points=[];container=0;fontFamily=宋体;" vertex="1" connectable="0" parent="1">
          <mxGeometry x="644.0033333333334" y="1669" as="geometry">
            <mxPoint x="2" y="1" as="offset" />
          </mxGeometry>
        </mxCell>
        <mxCell id="YyxFNso_PHiNrbnvG7HJ-370" style="edgeStyle=orthogonalEdgeStyle;rounded=0;orthogonalLoop=1;jettySize=auto;html=1;exitX=0.5;exitY=1;exitDx=0;exitDy=0;entryX=0.5;entryY=0;entryDx=0;entryDy=0;fontFamily=宋体;" edge="1" parent="1" source="YyxFNso_PHiNrbnvG7HJ-371" target="YyxFNso_PHiNrbnvG7HJ-374">
          <mxGeometry relative="1" as="geometry" />
        </mxCell>
        <mxCell id="YyxFNso_PHiNrbnvG7HJ-371" value="&lt;font&gt;RC limit&lt;/font&gt;" style="rhombus;whiteSpace=wrap;html=1;fontSize=16;container=0;fontFamily=宋体;" vertex="1" parent="1">
          <mxGeometry x="426.5" y="1791" width="174" height="43" as="geometry" />
        </mxCell>
        <mxCell id="YyxFNso_PHiNrbnvG7HJ-372" style="edgeStyle=orthogonalEdgeStyle;rounded=0;orthogonalLoop=1;jettySize=auto;html=1;entryX=0.5;entryY=0;entryDx=0;entryDy=0;fontFamily=宋体;" edge="1" parent="1" source="YyxFNso_PHiNrbnvG7HJ-374" target="YyxFNso_PHiNrbnvG7HJ-388">
          <mxGeometry relative="1" as="geometry" />
        </mxCell>
        <mxCell id="YyxFNso_PHiNrbnvG7HJ-373" style="edgeStyle=orthogonalEdgeStyle;rounded=0;orthogonalLoop=1;jettySize=auto;html=1;exitX=0.5;exitY=1;exitDx=0;exitDy=0;entryX=0.5;entryY=0;entryDx=0;entryDy=0;fontFamily=宋体;" edge="1" parent="1" source="YyxFNso_PHiNrbnvG7HJ-374" target="YyxFNso_PHiNrbnvG7HJ-389">
          <mxGeometry relative="1" as="geometry" />
        </mxCell>
        <mxCell id="YyxFNso_PHiNrbnvG7HJ-374" value="&lt;font&gt;RC算子&lt;/font&gt;" style="rhombus;whiteSpace=wrap;html=1;fontSize=16;container=0;fontFamily=宋体;" vertex="1" parent="1">
          <mxGeometry x="426.5" y="1858" width="174" height="43" as="geometry" />
        </mxCell>
        <mxCell id="YyxFNso_PHiNrbnvG7HJ-375" style="edgeStyle=orthogonalEdgeStyle;rounded=0;orthogonalLoop=1;jettySize=auto;html=1;entryX=0.009;entryY=0.566;entryDx=0;entryDy=0;entryPerimeter=0;fontFamily=宋体;" edge="1" parent="1" source="YyxFNso_PHiNrbnvG7HJ-308" target="YyxFNso_PHiNrbnvG7HJ-353">
          <mxGeometry relative="1" as="geometry" />
        </mxCell>
        <mxCell id="YyxFNso_PHiNrbnvG7HJ-376" style="edgeStyle=orthogonalEdgeStyle;rounded=0;orthogonalLoop=1;jettySize=auto;html=1;fontFamily=宋体;" edge="1" parent="1">
          <mxGeometry relative="1" as="geometry">
            <mxPoint x="424.48" y="1813" as="sourcePoint" />
            <mxPoint x="513.5" y="1974" as="targetPoint" />
            <Array as="points">
              <mxPoint x="409.48" y="1813" />
              <mxPoint x="409.48" y="1974" />
            </Array>
          </mxGeometry>
        </mxCell>
        <mxCell id="YyxFNso_PHiNrbnvG7HJ-377" value="No" style="text;html=1;align=center;verticalAlign=middle;whiteSpace=wrap;rounded=0;fontFamily=宋体;" vertex="1" parent="1">
          <mxGeometry x="366.5" y="1847" width="60" height="30" as="geometry" />
        </mxCell>
        <mxCell id="YyxFNso_PHiNrbnvG7HJ-378" value="Yes" style="text;html=1;align=center;verticalAlign=middle;whiteSpace=wrap;rounded=0;fontFamily=宋体;" vertex="1" parent="1">
          <mxGeometry x="498.5" y="1832" width="60" height="30" as="geometry" />
        </mxCell>
        <mxCell id="YyxFNso_PHiNrbnvG7HJ-379" style="edgeStyle=orthogonalEdgeStyle;rounded=0;orthogonalLoop=1;jettySize=auto;html=1;exitX=0.5;exitY=1;exitDx=0;exitDy=0;entryX=0.5;entryY=0;entryDx=0;entryDy=0;fontFamily=宋体;" edge="1" parent="1" source="YyxFNso_PHiNrbnvG7HJ-380" target="YyxFNso_PHiNrbnvG7HJ-382">
          <mxGeometry relative="1" as="geometry" />
        </mxCell>
        <mxCell id="YyxFNso_PHiNrbnvG7HJ-380" value="&lt;font style=&quot;font-size: 29px;&quot;&gt;Start&lt;/font&gt;" style="rounded=1;whiteSpace=wrap;html=1;fontFamily=宋体;" vertex="1" parent="1">
          <mxGeometry x="-297" y="1246" width="120" height="60" as="geometry" />
        </mxCell>
        <mxCell id="YyxFNso_PHiNrbnvG7HJ-381" style="edgeStyle=orthogonalEdgeStyle;rounded=0;orthogonalLoop=1;jettySize=auto;html=1;exitX=0.5;exitY=1;exitDx=0;exitDy=0;entryX=0.5;entryY=0;entryDx=0;entryDy=0;fontFamily=宋体;" edge="1" parent="1" source="YyxFNso_PHiNrbnvG7HJ-382" target="YyxFNso_PHiNrbnvG7HJ-384">
          <mxGeometry relative="1" as="geometry" />
        </mxCell>
        <mxCell id="YyxFNso_PHiNrbnvG7HJ-382" value="&lt;font style=&quot;font-size: 29px;&quot;&gt;自底向上的&lt;/font&gt;&lt;div&gt;&lt;font style=&quot;font-size: 29px;&quot;&gt;拓扑树建立&lt;/font&gt;&lt;/div&gt;" style="rounded=0;whiteSpace=wrap;html=1;fontFamily=宋体;" vertex="1" parent="1">
          <mxGeometry x="-368.5" y="1359" width="263" height="93" as="geometry" />
        </mxCell>
        <mxCell id="YyxFNso_PHiNrbnvG7HJ-383" style="edgeStyle=orthogonalEdgeStyle;rounded=0;orthogonalLoop=1;jettySize=auto;html=1;exitX=0.5;exitY=1;exitDx=0;exitDy=0;entryX=0.5;entryY=0;entryDx=0;entryDy=0;fontFamily=宋体;" edge="1" parent="1" source="YyxFNso_PHiNrbnvG7HJ-384" target="YyxFNso_PHiNrbnvG7HJ-385">
          <mxGeometry relative="1" as="geometry" />
        </mxCell>
        <mxCell id="YyxFNso_PHiNrbnvG7HJ-384" value="&lt;font style=&quot;font-size: 29px;&quot;&gt;自顶向下的&lt;/font&gt;&lt;div&gt;&lt;font style=&quot;font-size: 29px;&quot;&gt;拓扑树调整&lt;/font&gt;&lt;/div&gt;" style="rounded=0;whiteSpace=wrap;html=1;fontFamily=宋体;" vertex="1" parent="1">
          <mxGeometry x="-368.5" y="1513" width="263" height="93" as="geometry" />
        </mxCell>
        <mxCell id="YyxFNso_PHiNrbnvG7HJ-385" value="&lt;span style=&quot;font-size: 29px;&quot;&gt;END&lt;/span&gt;" style="rounded=1;whiteSpace=wrap;html=1;fontFamily=宋体;" vertex="1" parent="1">
          <mxGeometry x="-297" y="1669" width="120" height="60" as="geometry" />
        </mxCell>
        <mxCell id="YyxFNso_PHiNrbnvG7HJ-386" style="edgeStyle=orthogonalEdgeStyle;rounded=0;orthogonalLoop=1;jettySize=auto;html=1;exitX=1;exitY=0.5;exitDx=0;exitDy=0;entryX=0.002;entryY=0.399;entryDx=0;entryDy=0;entryPerimeter=0;dashed=1;strokeWidth=2;strokeColor=#990000;fontFamily=宋体;" edge="1" parent="1" source="YyxFNso_PHiNrbnvG7HJ-382" target="YyxFNso_PHiNrbnvG7HJ-1">
          <mxGeometry relative="1" as="geometry">
            <mxPoint x="-37.2859999999996" y="1399.348" as="targetPoint" />
          </mxGeometry>
        </mxCell>
        <mxCell id="YyxFNso_PHiNrbnvG7HJ-387" style="edgeStyle=orthogonalEdgeStyle;rounded=0;orthogonalLoop=1;jettySize=auto;html=1;exitX=0.5;exitY=1;exitDx=0;exitDy=0;fontFamily=宋体;" edge="1" parent="1" source="YyxFNso_PHiNrbnvG7HJ-388">
          <mxGeometry relative="1" as="geometry">
            <mxPoint x="515" y="1971" as="targetPoint" />
            <Array as="points">
              <mxPoint x="692" y="1972" />
              <mxPoint x="515" y="1972" />
            </Array>
          </mxGeometry>
        </mxCell>
        <mxCell id="YyxFNso_PHiNrbnvG7HJ-388" value="就远原则" style="rounded=0;whiteSpace=wrap;html=1;fontSize=16;container=0;fontFamily=宋体;" vertex="1" parent="1">
          <mxGeometry x="635.71" y="1918" width="113" height="43" as="geometry" />
        </mxCell>
        <mxCell id="YyxFNso_PHiNrbnvG7HJ-389" value="就近原则" style="rounded=0;whiteSpace=wrap;html=1;fontSize=16;container=0;fontFamily=宋体;" vertex="1" parent="1">
          <mxGeometry x="457" y="1918" width="113" height="43" as="geometry" />
        </mxCell>
      </root>
    </mxGraphModel>
  </diagram>
</mxfile>
